<?xml version="1.0" encoding="utf-8"?>
<!-- Generator: Adobe Illustrator 16.0.0, SVG Export Plug-In . SVG Version: 6.00 Build 0)  -->
<!DOCTYPE svg PUBLIC "-//W3C//DTD SVG 1.1//EN" "http://www.w3.org/Graphics/SVG/1.1/DTD/svg11.dtd">
<svg version="1.1" id="Layer_1" xmlns="http://www.w3.org/2000/svg" xmlns:xlink="http://www.w3.org/1999/xlink" x="0px" y="0px"
	 width="200px" height="150px" viewBox="0 0 200 150" enable-background="new 0 0 200 150" xml:space="preserve">
<g>
	<g>
		
			<linearGradient id="SVGID_1_" gradientUnits="userSpaceOnUse" x1="294.6318" y1="-181.4136" x2="405.5273" y2="-181.4136" gradientTransform="matrix(1 0 0 -1 -235.1348 -132.3848)">
			<stop  offset="0.0032" style="stop-color:#FA7A00"/>
			<stop  offset="1" style="stop-color:#FFC400"/>
		</linearGradient>
		<path fill="url(#SVGID_1_)" d="M170.393,49.028c0,6.032-1.146,11.917-3.408,17.488c-2.34,5.774-5.774,10.951-10.209,15.388
			c-4.437,4.436-9.611,7.865-15.387,10.212c-5.57,2.26-11.455,3.403-17.488,3.403c-6.032,0-11.918-1.145-17.49-3.403
			c-5.773-2.347-10.949-5.776-15.386-10.212c0,0-17.354-17.388-20.92-21.188l-0.046-0.053L59.964,50.84
			c-1.681-1.633,1.59-4.842,3.269-3.209l8.276,8.056l1.34-0.973L62.336,42.45c-1.676-1.96,2.242-5.159,3.92-3.201l10.707,12.49
			l1.165-0.844l-9.115-14.453c-1.371-2.172,2.989-4.776,4.358-2.606l8.879,14.081l0.656-0.474L78.15,35.068
			c-0.917-2.386,4.083-4.186,4.797-1.73c1.554,5.339,2.952,9.351,6.236,17.604c0.688-2.559,1.72-5.167,2.857-7.976
			c1.188-2.932,6.667-0.49,5.827,1.909c-1.669,4.783-4.058,8.478-4.187,13.421l10.55,10.544c2.649,2.634,5.731,4.678,9.154,6.063
			c3.352,1.359,6.883,2.044,10.516,2.044c3.629,0,7.166-0.686,10.51-2.044c3.459-1.403,6.562-3.461,9.232-6.131
			c2.668-2.669,4.73-5.776,6.131-9.233c1.358-3.343,2.045-6.88,2.045-10.51c0-3.632-0.687-7.165-2.045-10.512
			c-1.399-3.456-3.463-6.564-6.131-9.233c-2.67-2.667-5.773-4.732-9.232-6.131c-3.344-1.358-6.881-2.043-10.51-2.043
			c-5.129,0-9.284-4.159-9.284-9.285c0-5.129,4.155-9.287,9.284-9.287c6.033,0,11.918,1.145,17.488,3.406
			c5.774,2.338,10.95,5.774,15.387,10.21c4.435,4.437,7.869,9.613,10.209,15.383C169.246,37.108,170.393,42.995,170.393,49.028z"/>
		
			<linearGradient id="SVGID_2_" gradientUnits="userSpaceOnUse" x1="262.6416" y1="-181.4116" x2="373.54" y2="-181.4116" gradientTransform="matrix(1 0 0 -1 -235.1348 -132.3848)">
			<stop  offset="0" style="stop-color:#63D4D6"/>
			<stop  offset="0.0392" style="stop-color:#62D2D6"/>
			<stop  offset="0.9913" style="stop-color:#45A2C9"/>
		</linearGradient>
		<path fill="url(#SVGID_2_)" d="M27.507,49.028c0-6.033,1.146-11.919,3.404-17.493c2.342-5.77,5.778-10.946,10.213-15.383
			c4.435-4.436,9.61-7.872,15.385-10.212C62.08,3.681,67.965,2.536,74,2.536c6.033,0,11.917,1.145,17.49,3.404
			c5.77,2.34,10.947,5.776,15.383,10.212c0,0,17.354,17.388,20.922,21.189l0.049,0.052l10.096,9.82
			c1.679,1.636-1.592,4.845-3.271,3.209l-8.277-8.052l-1.339,0.969l10.511,12.268c1.678,1.956-2.244,5.158-3.92,3.197l-10.705-12.49
			l-1.166,0.845l9.113,14.452c1.372,2.171-2.986,4.777-4.357,2.608l-8.877-14.081l-0.655,0.477l4.756,12.371
			c0.915,2.386-4.084,4.189-4.798,1.734c-1.553-5.341-2.954-9.355-6.237-17.605c-0.685,2.557-1.72,5.167-2.854,7.974
			c-1.189,2.934-6.668,0.493-5.829-1.906c1.672-4.783,4.06-8.48,4.187-13.421L93.67,29.217c-2.652-2.635-5.731-4.675-9.159-6.065
			c-3.345-1.358-6.882-2.043-10.512-2.043s-7.167,0.686-10.512,2.043c-3.456,1.399-6.561,3.464-9.23,6.131
			c-2.667,2.669-4.731,5.777-6.133,9.233c-1.356,3.347-2.043,6.88-2.043,10.512c0,3.63,0.687,7.167,2.043,10.51
			c1.401,3.458,3.465,6.564,6.133,9.233c2.669,2.669,5.774,4.728,9.23,6.131c3.346,1.355,6.882,2.043,10.512,2.043
			c5.128,0,9.286,4.158,9.286,9.287s-4.157,9.285-9.286,9.285c-6.035,0-11.92-1.144-17.489-3.402
			c-5.775-2.348-10.95-5.776-15.385-10.213s-7.871-9.613-10.213-15.387C28.653,60.945,27.507,55.06,27.507,49.028z"/>
	</g>
	<g>
		<g>
			<g>
				<path fill="#FFFFFF" d="M75.735,134.818v-0.069c0-6.875,5.185-12.509,12.612-12.509c3.629,0,6.081,0.969,8.085,2.453
					c0.554,0.416,1.036,1.176,1.036,2.111c0,1.448-1.173,2.588-2.625,2.588c-0.726,0-1.21-0.275-1.59-0.519
					c-1.483-1.108-3.04-1.726-4.938-1.726c-4.079,0-7.015,3.386-7.015,7.529v0.069c0,4.146,2.867,7.604,7.015,7.604
					c2.245,0,3.727-0.691,5.25-1.902c0.415-0.346,0.965-0.588,1.591-0.588c1.346,0,2.485,1.104,2.485,2.455
					c0,0.828-0.414,1.484-0.898,1.899c-2.175,1.899-4.733,3.038-8.602,3.038C81.024,147.256,75.735,141.766,75.735,134.818z"/>
				<path fill="#FFFFFF" d="M102.537,125.109c0-1.485,1.174-2.661,2.658-2.661s2.662,1.176,2.662,2.661v19.281
					c0,1.483-1.178,2.657-2.662,2.657s-2.658-1.174-2.658-2.657V125.109z M103.744,120.064c0-0.311,0.172-0.656,0.346-0.932
					l1.9-2.973c0.447-0.727,1.104-1.176,1.968-1.176c1.278,0,2.937,0.793,2.937,1.588c0,0.484-0.274,0.869-0.687,1.242l-2.146,2.006
					c-1.004,0.935-1.83,1.142-3.008,1.142C104.296,120.963,103.744,120.615,103.744,120.064z"/>
				<path fill="#FFFFFF" d="M120.357,145.116l-7.842-18.763c-0.178-0.414-0.312-0.832-0.312-1.278c0-1.488,1.171-2.627,2.658-2.627
					c1.381,0,2.281,0.794,2.695,1.866l6.045,15.649l6.119-15.823c0.346-0.863,1.277-1.692,2.557-1.692
					c1.449,0,2.623,1.106,2.623,2.559c0,0.412-0.137,0.862-0.275,1.175l-7.909,18.936c-0.555,1.312-1.558,2.105-3.006,2.105h-0.351
					C121.913,147.223,120.91,146.43,120.357,145.116z"/>
				<path fill="#FFFFFF" d="M139.207,125.109c0-1.485,1.177-2.661,2.662-2.661c1.486,0,2.658,1.176,2.658,2.661v19.281
					c0,1.483-1.172,2.657-2.658,2.657c-1.485,0-2.662-1.174-2.662-2.657V125.109z"/>
				<path fill="#FFFFFF" d="M149.499,134.818v-0.069c0-6.875,5.183-12.509,12.612-12.509c3.625,0,6.078,0.969,8.082,2.453
					c0.555,0.416,1.037,1.176,1.037,2.111c0,1.448-1.172,2.588-2.625,2.588c-0.727,0-1.211-0.275-1.592-0.519
					c-1.481-1.108-3.039-1.726-4.938-1.726c-4.078,0-7.013,3.386-7.013,7.529v0.069c0,4.146,2.863,7.604,7.013,7.604
					c2.245,0,3.729-0.691,5.254-1.902c0.413-0.346,0.964-0.588,1.588-0.588c1.349,0,2.485,1.104,2.485,2.455
					c0,0.828-0.414,1.484-0.896,1.899c-2.177,1.899-4.732,3.038-8.604,3.038C154.784,147.256,149.499,141.766,149.499,134.818z"/>
				<path fill="#FFFFFF" d="M174.294,134.818v-0.069c0-6.875,5.425-12.509,12.888-12.509S200,127.805,200,134.68v0.069
					c0,6.875-5.424,12.507-12.889,12.507C179.648,147.256,174.294,141.695,174.294,134.818z M194.438,134.818v-0.069
					c0-4.146-3.041-7.601-7.324-7.601c-4.286,0-7.254,3.387-7.254,7.531v0.068c0,4.145,3.039,7.604,7.322,7.604
					S194.438,138.965,194.438,134.818z"/>
			</g>
		</g>
		<g>
			<g>
				<path fill="#FFFFFF" d="M0.177,145.443l10.06-21.995c0.354-0.777,0.884-1.241,1.771-1.241h0.141c0.85,0,1.415,0.464,1.736,1.241
					l10.059,21.96c0.104,0.244,0.177,0.492,0.177,0.707c0,0.744-0.601,1.349-1.348,1.349c-0.671,0-1.133-0.464-1.381-1.026
					l-2.584-5.705H5.207l-2.585,5.774c-0.248,0.604-0.707,0.957-1.346,0.957c-0.711,0-1.275-0.565-1.275-1.274
					C0,145.973,0.038,145.729,0.177,145.443z M17.708,138.182l-5.701-12.681l-5.704,12.681H17.708z"/>
				<path fill="#FFFFFF" d="M29.452,123.907c0-0.779,0.638-1.412,1.381-1.412h7.899c5.598,0,9.279,2.972,9.279,7.86v0.07
					c0,5.35-4.463,8.108-9.74,8.108H32.25v7.511c0,0.775-0.636,1.418-1.417,1.418c-0.743,0-1.381-0.643-1.381-1.418V123.907z
					 M38.379,135.988c4.109,0,6.803-2.201,6.803-5.453v-0.074c0-3.54-2.659-5.38-6.662-5.38h-6.27v10.907H38.379z"/>
				<path fill="#FFFFFF" d="M53.101,123.907c0-0.779,0.638-1.412,1.38-1.412h7.899c5.595,0,9.277,2.972,9.277,7.86v0.07
					c0,5.35-4.461,8.108-9.741,8.108h-6.021v7.511c0,0.775-0.637,1.418-1.415,1.418c-0.742,0-1.38-0.643-1.38-1.418L53.101,123.907
					L53.101,123.907z M62.024,135.988c4.109,0,6.799-2.201,6.799-5.453v-0.074c0-3.54-2.654-5.38-6.653-5.38h-6.275v10.907H62.024z"
					/>
			</g>
		</g>
	</g>
</g>
</svg>
