<?xml version="1.0" standalone="no"?>
<!DOCTYPE svg PUBLIC "-//W3C//DTD SVG 1.1//EN" "http://www.w3.org/Graphics/SVG/1.1/DTD/svg11.dtd" >
<svg>
<metadata>
Created by FontForge 20090914 at Mon Jul 20 22:50:35 2015
 By www-data
Typeface &#194;&#169; The Monotype Corporation plc. Data &#194;&#169; The Monotype Corporation plc / Type Solutions Inc. 1991 All Rights Reserved.
</metadata>
<defs>
<font id="MonotypeCorsiva" horiz-adv-x="901" >
  <font-face 
    font-family="Monotype Corsiva"
    font-weight="400"
    font-style="italic"
    font-stretch="normal"
    units-per-em="2048"
    panose-1="3 1 1 1 1 2 1 1 1 1"
    ascent="1638"
    descent="-410"
    x-height="840"
    cap-height="1183"
    bbox="-379 -620.002 2180 1869"
    underline-thickness="102"
    underline-position="-195"
    slope="-14.1"
    unicode-range="U+0020-U+F002"
  />
<missing-glyph horiz-adv-x="1536" 
d="M256 0v1280h1024v-1280h-1024zM288 32h960v1216h-960v-1216z" />
    <glyph glyph-name=".notdef" horiz-adv-x="1536" 
d="M256 0v1280h1024v-1280h-1024zM288 32h960v1216h-960v-1216z" />
    <glyph glyph-name="space" unicode=" " horiz-adv-x="450" 
 />
    <glyph glyph-name="exclam" unicode="!" horiz-adv-x="573" 
d="M433 330h-58c43.333 318 74.333 587.333 93 808c0.666992 12.667 3.66699 21.667 9 27c10 9.33301 29 17.666 57 24.999c46 12 78 18 96 18c14 0 21 -7 21 -21c0 -9.33301 -2.66699 -21.666 -8 -36.999c-8.66699 -25.333 -38 -134 -88 -326zM379 216
c26 0 47.833 -9.83301 65.5 -29.5s26.5 -44.5 26.5 -74.5c0 -43.333 -10.333 -77.333 -31 -102s-46.667 -37 -78 -37c-26 0 -47.833 9.16699 -65.5 27.5s-26.5 41.833 -26.5 70.5c0 42 12.333 78.667 37 110c18 23.333 42 35 72 35z" />
    <glyph glyph-name="quotedbl" unicode="&#x22;" horiz-adv-x="451" 
d="M565 683l78 383.999c10.667 53.333 23.334 88.5 38.001 105.5s32 25.5 52 25.5c13.333 0 23.666 -3.66699 30.999 -11s11 -17.666 11 -30.999c0 -8.66699 -6.66699 -32.667 -20 -72l-136 -391c-8 -24 -18.667 -36 -32 -36c-18 0 -25.333 8.66699 -22 26zM306 682.999
l77.002 383.999c11.333 53.333 24.166 88.5 38.499 105.5s31.833 25.5 52.5 25.5c13.333 0 23.666 -3.66699 30.999 -11s11 -17.666 11 -30.999c0 -8.66699 -6.66699 -32.667 -20 -72l-136 -391c-8 -24 -18.667 -36 -32 -36c-18 0 -25.333 8.66699 -22 26z" />
    <glyph glyph-name="numbersign" unicode="#" horiz-adv-x="1393" 
d="M476 27l113 350h-244l36 110h244l78 244h-245l37 110h244l107 336h116l-107 -336h228l107 336h116l-108 -336h245l-36 -110h-244l-78 -244h244l-36 -110h-244l-113 -350h-116l113 350h-228l-113 -350h-116zM741 487h228l78 244h-228z" />
    <glyph glyph-name="dollar" unicode="$" 
d="M768 1332l64.002 -0.000976562l-34 -141h22c52 0 94.833 -12 128.5 -36s50.5 -49.667 50.5 -77c0 -16.667 -6.33301 -31.334 -19 -44.001s-27.334 -19 -44.001 -19c-12.667 0 -23.667 2.33301 -33 7c-6 2.66699 -21.667 15.334 -47 38.001c-22 20 -48.333 33.667 -79 41
l-109 -425c64.667 -57.333 109.667 -109 135 -155s38 -92 38 -138c0 -90.667 -32.167 -174 -96.5 -250s-147.833 -125 -250.5 -147l-66 -255h-64l64 244c-16.667 -1.33301 -32.667 -2 -48 -2c-79.333 0 -133.5 9.16699 -162.5 27.5s-43.5 41.833 -43.5 70.5
c0 18 6.33301 33.667 19 47s27 20 43 20c14 0 40.667 -10.667 80 -32c29.333 -16 48.666 -25.333 57.999 -28c18.667 -5.33301 43.334 -9.33301 74.001 -12l122 482c-61.333 55.333 -102.333 102.5 -123 141.5s-31 82.833 -31 131.5c0 84 29.667 160.333 89 229
s134.666 112.334 225.999 131.001zM713.002 1107c-60.667 -12.667 -107 -38.5 -139 -77.5s-48 -83.167 -48 -132.5c0 -50.667 29.667 -107.667 89 -171zM514.002 69.999c69.333 13.333 123.833 41.832 163.5 85.499s59.5 92.834 59.5 147.501c0 31.333 -6 58.833 -18 82.5
s-43.333 62.5 -94 116.5z" />
    <glyph glyph-name="percent" unicode="%" horiz-adv-x="1393" 
d="M489 -7l146.001 252l366 667l151 286c16 -4.66699 42.667 -9.33398 80 -14.001c-61.333 -99.333 -119.333 -198.666 -174 -297.999l-321 -585c-58.667 -106.667 -113.334 -212 -164.001 -316c-12.667 2.66699 -29.667 4.66699 -51 6c-7.33301 0 -18.333 0.666992 -33 2z
M645.001 1198c55.333 0 100.501 -19.167 135.501 -57.5s52.5 -92.5 52.5 -162.5c0 -116.667 -36 -220 -108 -310c-58 -73.333 -126.333 -110 -205 -110c-54.667 0 -99.834 19.5 -135.501 58.5s-53.5 90.833 -53.5 155.5c0 104 29.833 201 89.5 291s134.5 135 224.5 135z
M631.002 1156c-42 0 -81.167 -41.833 -117.5 -125.5s-54.5 -176.167 -54.5 -277.5c0 -52 8 -90.333 24 -115s34.333 -37 55 -37c37.333 0 71 32.333 101 97c44 94.667 66 196 66 304c0 52 -8.66699 92.667 -26 122c-13.333 21.333 -29.333 32 -48 32zM1206 625
c55.333 0 100.501 -19.167 135.501 -57.5s52.5 -92.5 52.5 -162.5c0 -116.667 -36 -220 -108 -310c-58 -73.333 -126.333 -110 -205 -110c-54.667 0 -99.834 19.5 -135.501 58.5s-53.5 90.833 -53.5 155.5c0 104 29.833 201 89.5 291s134.5 135 224.5 135zM1192 583
c-42 0 -81.167 -41.833 -117.5 -125.5s-54.5 -176.167 -54.5 -277.5c0 -52 8 -90.333 24 -115s34.333 -37 55 -37c37.333 0 71 32.333 101 97c44 94.667 66 196 66 304c0 52 -8.66699 92.667 -26 122c-13.333 21.333 -29.333 32 -48 32z" />
    <glyph glyph-name="ampersand" unicode="&#x26;" horiz-adv-x="1597" 
d="M1509 1138c-19.333 -39.333 -35.166 -77.6631 -47.499 -114.996s-31.833 -111.666 -58.5 -222.999c-45.333 -190.667 -83.666 -320 -114.999 -388c-43.333 -92.667 -107 -178.334 -191 -257.001c84.667 -92.667 150.667 -152.334 198 -179.001s94.333 -40 141 -40
c52 0 96 14.5 132 43.5s54 60.5 54 94.5c0 12.667 -4 29.334 -12 50.001c-8.66699 23.333 -13 40.666 -13 51.999c0 18.667 5.66699 33.834 17 45.501s25.666 17.5 42.999 17.5c18.667 0 34 -6.83301 46 -20.5s18 -33.167 18 -58.5c0 -78.667 -32.167 -148.167 -96.5 -208.5
s-140.166 -90.5 -227.499 -90.5c-38.667 0 -77.167 7.16699 -115.5 21.5s-74.833 35.5 -109.5 63.5c-23.333 19.333 -70 69.666 -140 150.999c-106 -84 -219.333 -126 -340 -126c-132.667 0 -242.334 42 -329.001 126s-130 188.333 -130 313c0 120.667 42 223 126 307
s184 126 300 126c63.333 0 111.166 -12.333 143.499 -37s48.5 -53.667 48.5 -87c0 -76 -69.333 -130.333 -208 -163c59.333 -22.667 115 -55.334 167 -98.001c68 -54.667 148.333 -137 241 -247c28.667 34 52.334 66.833 71.001 98.5s37 72.834 55 123.501
c12 31.333 31 99 57 203c24 96.667 41 159.334 51 188.001c22 63.333 44.167 119.166 66.5 167.499s48.5 97.166 78.5 146.499c-119.333 0.666992 -203.333 -10.333 -252 -33c-69.333 -32 -104 -77.333 -104 -136c0 -17.333 4.66699 -48.333 14 -93
c3.33301 -16.667 5 -30.334 5 -41.001c0 -16 -5.16699 -29.333 -15.5 -40s-23.5 -16 -39.5 -16c-18.667 0 -34.334 8 -47.001 24s-19 39 -19 69c0 62 19.5 122.5 58.5 181.5s90.167 102.333 153.5 130s153.333 41.5 270 41.5c18.667 0 36 -0.333008 52 -1
c58 -3.33301 90.333 -5 97 -5c26 0 45.667 5.5 59 16.5s20 25.167 20 42.5c0 6.66699 -2 18.667 -6 36c-4 16 -6 27.333 -6 34c0 17.333 5.33301 31.666 16 42.999s24 17 40 17c16.667 0 31 -7 43 -21s18 -33 18 -57c0 -48.667 -23.333 -91.667 -70 -129
s-116 -58.333 -208 -63zM471 596.003c93.333 -2 156.999 6.66797 190.999 26.001s51 45 51 77c0 23.333 -8.33301 42.5 -25 57.5s-39 22.5 -67 22.5c-66 0 -126 -28.833 -180 -86.5s-81 -124.834 -81 -201.501c0 -60 20 -121.667 60 -185s93 -114 159 -152s134 -57 204 -57
c68 0 137 20 207 60c-111.333 134 -176.666 210.333 -195.999 229c-38 36.667 -82 70.667 -132 102s-113.667 62 -191 92v16z" />
    <glyph glyph-name="quotesingle" unicode="'" horiz-adv-x="328" 
d="M374 683l77.002 383.999c11.333 53.333 24.166 88.5 38.499 105.5s31.833 25.5 52.5 25.5c13.333 0 23.666 -3.66699 30.999 -11s11 -17.666 11 -30.999c0 -8.66699 -6.66699 -32.667 -20 -72l-136 -391c-8 -24 -18.667 -36 -32 -36c-18 0 -25.333 8.66699 -22 26z" />
    <glyph glyph-name="parenleft" unicode="(" horiz-adv-x="532" 
d="M971 1389c0 -10.667 -12 -21.001 -36 -31.001c-40.667 -17.333 -107.5 -71.5 -200.5 -162.5s-171.5 -192.667 -235.5 -305s-115.667 -239 -155 -380s-59 -277.5 -59 -409.5c0 -80.667 5.33301 -153.667 16 -219s26.334 -125.333 47.001 -180
c32 -85.333 57.667 -144.333 77 -177c6.66699 -11.333 10 -19.666 10 -24.999c0 -14 -5.66699 -21 -17 -21c-8.66699 0 -19.334 8.33301 -32.001 25c-54.667 70.667 -101.667 169.5 -141 296.5s-59 252.5 -59 376.5c0 163.333 28.5 317 85.5 461s131 278 222 402
s202.167 227.667 333.5 311c63.333 40 104.333 60 123 60c14 0 21 -7.33301 21 -22z" />
    <glyph glyph-name="parenright" unicode=")" horiz-adv-x="451" 
d="M-145 -499c0 11.333 12 22.001 36 32.001c40.667 17.333 107.5 71.5 200.5 162.5s171.5 192.667 235.5 305s115.667 239 155 380s59 277.5 59 409.5c0 80.667 -5.33301 153.667 -16 219s-26.334 125.333 -47.001 180c-32 85.333 -57.667 144.333 -77 177
c-6.66699 11.333 -10 19.666 -10 24.999c0 14 5.66699 21 17 21c8.66699 0 19.334 -8.33301 32.001 -25c54.667 -70.667 101.667 -169.5 141 -296.5s59 -252.5 59 -376.5c0 -164 -28.5 -317.833 -85.5 -461.5s-131 -277.667 -222 -402s-202.167 -227.833 -333.5 -310.5
c-63.333 -40.667 -104.333 -61 -123 -61c-14 0 -21 7.33301 -21 22z" />
    <glyph glyph-name="asterisk" unicode="*" horiz-adv-x="860" 
d="M658 1412c13.333 -78.667 34.6631 -158.667 63.9961 -240c22 -3.33301 39.667 -5 53 -5c42 0 107 5.66699 195 17c6.66699 -16 12.334 -32.333 17.001 -49c-78 -42.667 -149 -89.667 -213 -141c20 -68 51.667 -142.333 95 -223c-12.667 -10 -26 -19.667 -40 -29
c-69.333 57.333 -135.333 108 -198 152c-59.333 -35.333 -124.666 -86 -195.999 -152c-16.667 9.33301 -31.667 20.333 -45 33c42 80.667 74.667 153.667 98 219c-68.667 52 -138 99 -208 141c4.66699 16.667 10.334 33 17.001 49c80.667 -9.33301 141.334 -14 182.001 -14
c13.333 0 34.333 0.666992 63 2c29.333 86.667 49.333 166.667 60 240l28 1c6 0 15.333 -0.333008 28 -1zM633.997 1152c-28.667 0 -53.167 -10.167 -73.5 -30.5s-30.5 -44.833 -30.5 -73.5s10.167 -53.334 30.5 -74.001s44.833 -31 73.5 -31
c29.333 0 54.166 10.333 74.499 31s30.5 45.334 30.5 74.001s-10.167 53.167 -30.5 73.5s-45.166 30.5 -74.499 30.5z" />
    <glyph glyph-name="plus" unicode="+" horiz-adv-x="1065" 
d="M661 643v385h111v-385h387v-111h-387v-391h-111v391h-387v111h387z" />
    <glyph glyph-name="comma" unicode="," horiz-adv-x="451" 
d="M56 -311l-19.002 64.999c60.667 46.667 107.334 92.667 140.001 138c21.333 30 32 54.667 32 74s-8 44 -24 74c-16 30.667 -24 56 -24 76c0 25.333 9 47.333 27 66s39.333 28 64 28c27.333 0 50.833 -11.167 70.5 -33.5s29.5 -49.166 29.5 -80.499
c0 -36 -10 -76.833 -30 -122.5s-50.333 -90.167 -91 -133.5c-55.333 -60 -113.666 -110.333 -174.999 -151z" />
    <glyph glyph-name="hyphen" unicode="-" horiz-adv-x="573" 
d="M194 460h463l-24 -99h-465z" />
    <glyph glyph-name="hyphen" unicode="&#xad;" horiz-adv-x="573" 
d="M194 460h463l-24 -99h-465z" />
    <glyph glyph-name="period" unicode="." horiz-adv-x="451" 
d="M258 216c26 0 47.833 -9.83301 65.5 -29.5s26.5 -44.5 26.5 -74.5c0 -43.333 -10.333 -77.333 -31 -102s-46.667 -37 -78 -37c-26 0 -47.833 9.16699 -65.5 27.5s-26.5 41.833 -26.5 70.5c0 42 12.333 78.667 37 110c18 23.333 42 35 72 35z" />
    <glyph glyph-name="slash" unicode="/" horiz-adv-x="696" 
d="M-23 -384l991 1769h104l-991 -1769h-104z" />
    <glyph glyph-name="zero" unicode="0" 
d="M703 1198c95.333 0 171.833 -35 229.5 -105s86.5 -174.667 86.5 -314c0 -198 -49.833 -382.167 -149.5 -552.5s-220.5 -255.5 -362.5 -255.5c-83.333 0 -153.833 36.333 -211.5 109s-86.5 171.667 -86.5 297c0 147.333 28.667 291.5 86 432.5s122 241 194 300
s143.333 88.5 214 88.5zM685 1139c-41.333 0 -83.499 -27.5 -126.499 -82.5s-82.667 -155.667 -119 -302s-54.5 -285.833 -54.5 -418.5c0 -106.667 15.5 -184.334 46.5 -233.001s66.5 -73 106.5 -73c35.333 0 70.333 17.667 105 53
c51.333 52.667 97.666 151.834 138.999 297.501s62 292.167 62 439.5c0 114 -17.333 199.333 -52 256c-26 42 -61.667 63 -107 63z" />
    <glyph glyph-name="one" unicode="1" 
d="M856 1209l32 0.000976562l-138 -540l-115 -501c-11.333 -42 -17 -70.333 -17 -85c0 -11.333 5.66699 -20.5 17 -27.5s37 -12.5 77 -16.5c30 -2.66699 59.333 -6.66699 88 -12l-20 -50c-143.333 15.333 -243.333 23 -300 23c-82.667 0 -172.334 -7.66699 -269.001 -23
l17 50c34.667 9.33301 74.334 18.666 119.001 27.999c44 8.66699 74 22 90 40c22 23.333 45 79.333 69 168l108 413c35.333 157.333 53 246.333 53 267c0 23.333 -9.66699 35 -29 35c-14.667 0 -81.667 -26.667 -201 -80l-20 50c173.333 82.667 279.333 137.5 318 164.5
s79 59.167 121 96.5z" />
    <glyph glyph-name="two" unicode="2" 
d="M403 898l-51.002 25c52.667 104.667 107.167 177.167 163.5 217.5s119.5 60.5 189.5 60.5c84 0 151 -26.667 201 -80s75 -115.666 75 -186.999c0 -44 -9 -88.667 -27 -134s-47.667 -92.666 -89 -141.999c-26.667 -32.667 -100 -100.334 -220 -203.001
c-161.333 -140 -274.666 -253 -339.999 -339c87.333 4 177.333 6 270 6c30 0 56 -0.333008 78 -1c48.667 -2 82 2.66699 100 14s47.667 49.333 89 114h69c-54 -74.667 -101 -166.334 -141 -275.001c-47.333 8.66699 -97.333 15.167 -150 19.5s-108 6.5 -166 6.5
c-68.667 0 -169.667 -4.33301 -303 -13l20 63c60.667 90 151.334 191.667 272.001 305c119.333 112 196.333 190.333 231 235c50 64.667 86.333 125.667 109 183c17.333 42.667 26 84 26 124c0 60 -16.333 108 -49 144s-73 54 -121 54c-40 0 -79.167 -14.333 -117.5 -43
s-77.833 -80 -118.5 -154z" />
    <glyph glyph-name="three" unicode="3" 
d="M426 964l-40.999 29.001c68 77.333 118 126.333 150 147c58 37.333 117 56 177 56c61.333 0 109.666 -15.667 144.999 -47s53 -71.666 53 -120.999c0 -104 -78.667 -214.333 -236 -331c54 -2.66699 95 -12.334 123 -29.001s50.833 -42.167 68.5 -76.5
s26.5 -75.166 26.5 -122.499c0 -128.667 -65 -248.334 -195 -359.001c-111.333 -94.667 -225.666 -142 -342.999 -142c-52.667 0 -100.167 12 -142.5 36s-63.5 53.667 -63.5 89c0 14.667 5.5 27.5 16.5 38.5s23.833 16.5 38.5 16.5c20 0 43 -12.333 69 -37
c34 -32.667 59.333 -53 76 -61c23.333 -11.333 44 -17 62 -17c52 0 110 30.667 174 92c94.667 89.333 142 188 142 296c0 54 -14.833 97.167 -44.5 129.5s-67.834 48.5 -114.501 48.5c-34 0 -72.667 -7.66699 -116 -23l7 62c85.333 30 162 83 230 159
c48 53.333 72 107.333 72 162c0 41.333 -10.5 73.666 -31.5 96.999s-49.5 35 -85.5 35c-76 0 -148.333 -42.333 -217 -127z" />
    <glyph glyph-name="four" unicode="4" 
d="M932 408l-21 -104.999h-155l-72 -333h-141l72 333c-216.667 1.33301 -354.667 0.333008 -414 -3c-8 -0.666992 -14.333 -1 -19 -1c-19.333 0 -29 7 -29 21c0 5.33301 8 21.666 24 48.999c76 129.333 184.833 269.833 326.5 421.5s290.167 289.5 445.5 413.5h28l-42 -161
l-88 -350l-67 -285h152zM637 408.001c6 33.333 19.333 91.332 40 173.999l97 391c-130 -123.333 -225.167 -219.166 -285.5 -287.499s-131.833 -160.833 -214.5 -277.5h363z" />
    <glyph glyph-name="five" unicode="5" 
d="M1019 1225l55.002 0.000976562l-71 -148c-6.66699 -10 -17.167 -17.833 -31.5 -23.5s-45.5 -8.5 -93.5 -8.5c-142.667 0 -239.334 -3.66699 -290.001 -11c-11.333 -28.667 -20 -52.667 -26 -72s-9 -34 -9 -44c0 -25.333 19.667 -46.333 59 -63
c70.667 -29.333 120.667 -57.666 150 -84.999s52.666 -62 69.999 -104s26 -90.667 26 -146c0 -142 -56 -268.5 -168 -379.5s-236.667 -166.5 -374 -166.5c-64 0 -113 10.333 -147 31c-24 15.333 -36 36.333 -36 63c0 17.333 5.33301 31.666 16 42.999s23.334 17 38.001 17
c9.33301 0 16.666 -1 21.999 -3s18.666 -10 39.999 -24c27.333 -18.667 49.5 -30.667 66.5 -36s37.833 -8 62.5 -8c92 0 174.5 38.667 247.5 116s109.5 163.333 109.5 258c0 63.333 -18 120.333 -54 171s-87.667 89.667 -155 117c-28 12 -46.667 23.667 -56 35
s-14 25.666 -14 42.999c0 19.333 11 63.333 33 132l68 212c25.333 12.667 59.666 20.667 102.999 24l214 4c48.667 2 81.334 6.83301 98.001 14.5s32.334 21.5 47.001 41.5z" />
    <glyph glyph-name="six" unicode="6" 
d="M1093 1200l-12.002 -60.002c-110.667 -4.66699 -204.667 -25.167 -282 -61.5s-143.166 -87.666 -197.499 -153.999s-98.166 -154.5 -131.499 -264.5c37.333 30.667 75 53.5 113 68.5s76.333 22.5 115 22.5c76 0 137.333 -26.667 184 -80s70 -130 70 -230
c0 -137.333 -40.333 -252.666 -121 -345.999c-70 -81.333 -159.333 -122 -268 -122c-92 0 -167.5 35 -226.5 105s-88.5 167.333 -88.5 292c0 148 38.333 288 115 420s177.5 233.5 302.5 304.5s267.5 106.167 427.5 105.5zM450.998 581.998
c-18 -104 -27.001 -189.668 -27.001 -257.001c0 -105.333 16 -181.166 48 -227.499s72 -69.5 120 -69.5c52 0 93.333 25 124 75c40.667 64.667 61 159.667 61 285c0 103.333 -14 176.5 -42 219.5s-62.333 64.5 -103 64.5c-25.333 0 -53.166 -7.5 -83.499 -22.5
s-62.833 -37.5 -97.5 -67.5z" />
    <glyph glyph-name="seven" unicode="7" 
d="M429 922l-50.998 0.000976562c2.66699 9.33301 10.667 34.666 24 75.999c25.333 80.667 43 143.334 53 188.001c71.333 -11.333 188 -17 350 -17c110 0 217 1.33301 321 4c-222.667 -283.333 -362.334 -467.333 -419.001 -552
c-98.667 -146.667 -165.334 -260.334 -200.001 -341.001c-16.667 -38.667 -29.667 -92.667 -39 -162c-9.33301 -70 -21.333 -114.667 -36 -134s-33.667 -29 -57 -29c-20.667 0 -38.667 8.66699 -54 26s-23 38.666 -23 63.999c0 62.667 23.333 136.334 70 221.001
c66.667 122 217.667 327.667 453 617l130 161h-376c-44.667 0 -74.5 -5.83301 -89.5 -17.5s-33.833 -46.5 -56.5 -104.5z" />
    <glyph glyph-name="eight" unicode="8" 
d="M741 671c113.333 -113.333 170 -219.998 170 -319.998c0 -96.667 -40.833 -183.834 -122.5 -261.501s-181.167 -116.5 -298.5 -116.5c-96 0 -168.833 26.167 -218.5 78.5s-74.5 109.5 -74.5 171.5c0 41.333 10.333 83.5 31 126.5s53 84.833 97 125.5
c34 32 112 85.333 234 160c-71.333 80.667 -107 163.334 -107 248.001c0 86 33 160.167 99 222.5s147 93.5 243 93.5c70.667 0 128.167 -19.333 172.5 -58s66.5 -84.334 66.5 -137.001s-20.333 -104.334 -61 -155.001c-53.333 -66.667 -130.333 -126 -231 -178zM696 724.002
c93.333 64.667 154.167 116.501 182.5 155.501s42.5 75.5 42.5 109.5c0 39.333 -14.5 73.166 -43.5 101.499s-65.167 42.5 -108.5 42.5c-51.333 0 -95 -18 -131 -54s-54 -79.333 -54 -130c0 -70 37.333 -145 112 -225zM602.001 590.003
c-106.667 -74.667 -178.167 -139.332 -214.5 -193.999s-54.5 -110.667 -54.5 -168c0 -54.667 19 -100.834 57 -138.501s85 -56.5 141 -56.5c40.667 0 80 11.167 118 33.5s68.5 54 91.5 95s34.5 82.167 34.5 123.5c0 38 -11.167 79.167 -33.5 123.5
s-68.833 104.833 -139.5 181.5z" />
    <glyph glyph-name="nine" unicode="9" 
d="M147 -26l12.002 58.998c110.667 4.66699 204.667 25.334 282 62.001s143.166 88 197.499 154s98.166 154.333 131.499 265c-36.667 -30.667 -74 -53.667 -112 -69s-76.667 -23 -116 -23c-76 0 -137.333 26.833 -184 80.5s-70 130.5 -70 230.5
c0 136.667 40.333 251.667 121 345c70 81.333 159.333 122 268 122c92 0 167.5 -35 226.5 -105s88.5 -167.333 88.5 -292c0 -147.333 -38.333 -287.166 -115 -419.499s-177.5 -234 -302.5 -305s-267.5 -105.833 -427.5 -104.5zM789.002 590.998
c18 104 27 189.666 27 256.999c0 106 -16 182 -48 228s-72 69 -120 69c-52 0 -93.333 -24.667 -124 -74c-40.667 -65.333 -61 -160.666 -61 -285.999c0 -103.333 14 -176.333 42 -219s62.333 -64 103 -64c26 0 54 7.5 84 22.5s62.333 37.167 97 66.5z" />
    <glyph glyph-name="colon" unicode=":" horiz-adv-x="532" 
d="M401 832c26 0 47.833 -9.66602 65.5 -28.999s26.5 -44 26.5 -74c0 -44 -10.333 -78.167 -31 -102.5s-46.667 -36.5 -78 -36.5c-26 0 -47.833 9.16699 -65.5 27.5s-26.5 41.833 -26.5 70.5c0 41.333 12.333 77.666 37 108.999c18 23.333 42 35 72 35zM258 216.001
c26 0 47.833 -9.83301 65.5 -29.5s26.5 -44.5 26.5 -74.5c0 -43.333 -10.333 -77.333 -31 -102s-46.667 -37 -78 -37c-26 0 -47.833 9.16699 -65.5 27.5s-26.5 41.833 -26.5 70.5c0 42 12.333 78.667 37 110c18 23.333 42 35 72 35z" />
    <glyph glyph-name="semicolon" unicode=";" horiz-adv-x="491" 
d="M413 832c25.333 0 47 -9.66602 65 -28.999s27 -44 27 -74c0 -44 -10.333 -78.167 -31 -102.5s-46.667 -36.5 -78 -36.5c-26 0 -47.833 9.16699 -65.5 27.5s-26.5 41.833 -26.5 70.5c0 41.333 12.333 77.666 37 108.999c18 23.333 42 35 72 35zM54 -310.999
l-19.002 64.999c60.667 46.667 107.334 92.667 140.001 138c21.333 30 32 54.667 32 74s-8 44 -24 74c-16 30.667 -24 56 -24 76c0 25.333 9 47.333 27 66s39.333 28 64 28c27.333 0 50.833 -11.167 70.5 -33.5s29.5 -49.166 29.5 -80.499c0 -36 -10 -76.833 -30 -122.5
s-50.333 -90.167 -91 -133.5c-55.333 -60 -113.666 -110.333 -174.999 -151z" />
    <glyph glyph-name="less" unicode="&#x3c;" horiz-adv-x="1065" 
d="M1115 231v-108l-893 410v95l893 409v-107l-751 -351z" />
    <glyph glyph-name="equal" unicode="=" horiz-adv-x="1065" 
d="M1159 815v-113h-885v113h885zM1159 473v-113h-885v113h885z" />
    <glyph glyph-name="greater" unicode="&#x3e;" horiz-adv-x="1065" 
d="M331 231l751 348l-751 351v107l893 -409v-95l-893 -410v108z" />
    <glyph glyph-name="question" unicode="?" horiz-adv-x="778" 
d="M340 329h-64.001c12 132 27.333 216.333 46 253c12.667 26 41.667 46.333 87 61c134 44 224.667 91 272 141c46.667 49.333 70 104 70 164c0 48 -12.667 86 -38 114s-56.666 42 -93.999 42c-32 0 -72.333 -18.333 -121 -55c-20.667 -15.333 -33.667 -24.333 -39 -27
c-8.66699 -3.33301 -18 -5 -28 -5c-16.667 0 -31.167 6.16699 -43.5 18.5s-18.5 26.833 -18.5 43.5c0 29.333 17 56.666 51 81.999s76.667 38 128 38c80 0 148 -29.5 204 -88.5s84 -133.5 84 -223.5c0 -91.333 -31.667 -172 -95 -242
c-40 -45.333 -114.333 -88.333 -223 -129c-82.667 -31.333 -130.5 -54.166 -143.5 -68.499s-24.5 -53.833 -34.5 -118.5zM287.999 216c26 0 47.833 -9.83301 65.5 -29.5s26.5 -44.5 26.5 -74.5c0 -43.333 -10.333 -77.333 -31 -102s-46.667 -37 -78 -37
c-26 0 -47.833 9.16699 -65.5 27.5s-26.5 41.833 -26.5 70.5c0 42 12.333 78.667 37 110c18 23.333 42 35 72 35z" />
    <glyph glyph-name="at" unicode="@" horiz-adv-x="1434" 
d="M1131 1010l57.002 12.9971c-28 -96.667 -55.333 -197.167 -82 -301.5s-47 -196.833 -61 -277.5c-4.66699 -23.333 -7 -40 -7 -50c0 -14 3.16699 -24.833 9.5 -32.5s14.5 -11.5 24.5 -11.5c25.333 0 58.333 17 99 51c57.333 48 102.166 105.667 134.499 173
s48.5 135.333 48.5 204c0 104.667 -33.833 190.667 -101.5 258s-155.5 101 -263.5 101c-104 0 -200.333 -28.167 -289 -84.5s-162.834 -142.333 -222.501 -258s-89.5 -232.834 -89.5 -351.501c0 -78 18 -153 54 -225c27.333 -54 70.666 -98.167 129.999 -132.5
s124 -51.5 194 -51.5c150.667 0 309 67 475 201l34 -40c-170 -151.333 -354.333 -227 -553 -227c-145.333 0 -258.833 39.667 -340.5 119s-122.5 187.333 -122.5 324c0 138.667 35 269.834 105 393.501s164.833 221.834 284.5 294.501s241.167 109 364.5 109
c88 0 169.333 -18.667 244 -56s131.834 -85.666 171.501 -144.999s59.5 -120 59.5 -182c0 -97.333 -32.667 -194.166 -98 -290.499s-152 -172.5 -260 -228.5c-77.333 -40 -138 -60 -182 -60c-15.333 0 -27.166 4.16699 -35.499 12.5s-12.5 19.5 -12.5 33.5
c0 18.667 13 68.334 39 149.001c-58.667 -65.333 -113 -114.333 -163 -147s-95.667 -49 -137 -49c-26.667 0 -50.834 14.833 -72.501 44.5s-32.5 68.5 -32.5 116.5c0 84.667 28.167 176.667 84.5 276s121.5 173.666 195.5 222.999s154 74 240 74c14 0 34 -1 60 -3z
M1028 878.997c-28 6 -51 9.00098 -69 9.00098c-50.667 0 -97.167 -15 -139.5 -45s-79.166 -81.333 -110.499 -154s-47 -146.334 -47 -221.001c0 -36 6.66699 -62.5 20 -79.5s31.666 -25.5 54.999 -25.5c24 0 47.333 6.66699 70 20c32 18.667 60.5 44.5 85.5 77.5
s41.5 62.167 49.5 87.5l34 134z" />
    <glyph glyph-name="A" unicode="A" horiz-adv-x="1270" 
d="M1299 44l-9.99805 -57c-24 -2 -45 -3 -63 -3c-26 0 -57.333 2 -94 6c-62.667 6.66699 -102.334 10 -119.001 10c-28 0 -71 -4.33301 -129 -13c20.667 52 38 106.667 52 164c10 40.667 20.667 110.667 32 210c-78 0.666992 -199 -1 -363 -5
c-169.333 -258.667 -293.5 -421.167 -372.5 -487.5s-154.167 -99.5 -225.5 -99.5c-37.333 0 -65.166 7.16699 -83.499 21.5s-27.5 32.833 -27.5 55.5c0 17.333 5.33301 31.666 16 42.999s24 17 40 17c9.33301 0 22 -1.66699 38 -5c40 -9.33301 66.667 -14 80 -14
c44.667 0 94 25.333 148 76c88 82.667 218 256 390 520c194.667 298.667 352.334 516 473.001 652c-164.667 -14.667 -267.334 -28.667 -308.001 -42c-56 -18 -98 -44.667 -126 -80s-42 -71.333 -42 -108c0 -12 4.33301 -29 13 -51c9.33301 -24.667 14 -42.667 14 -54
c0 -14.667 -5.66699 -27.667 -17 -39s-25 -17 -41 -17c-22.667 0 -40.834 8.5 -54.501 25.5s-20.5 42.5 -20.5 76.5c0 48 12.5 94.5 37.5 139.5s60.833 82.667 107.5 113s105 53.5 175 69.5c36 8.66699 99.333 16.334 190 23.001c78.667 6.66699 128 13 148 19
c31.333 8.66699 61.333 25.667 90 51c-20 -82 -34.333 -153.667 -43 -215l-78 -578l-45 -414c49.333 -12.667 93.666 -19 132.999 -19c26 0 54.333 3 85 9zM977.002 435c32 270.667 64 468.333 96 593c-84.667 -112 -137 -182.667 -157 -212l-257 -381
c55.333 -2 134.333 -3 237 -3c25.333 0 52.333 1 81 3z" />
    <glyph glyph-name="B" unicode="B" horiz-adv-x="1229" 
d="M642 959l11.999 47.9971c76 5.33301 158 18.666 246 39.999c-23.333 -68.667 -40.333 -124 -51 -166l-54 -223c118 0 206.833 29.5 266.5 88.5s89.5 129.167 89.5 210.5c0 56.667 -21.5 102.334 -64.5 137.001s-107.167 52 -192.5 52
c-120.667 0 -235.667 -28.667 -345 -86s-194.5 -132.166 -255.5 -224.499s-91.5 -184.833 -91.5 -277.5c0 -25.333 3.5 -48.833 10.5 -70.5s17.167 -41.5 30.5 -59.5c8 -10.667 25.667 -25.334 53 -44.001c30.667 -21.333 49.667 -37.166 57 -47.499s11 -22.5 11 -36.5
s-5.16699 -26.167 -15.5 -36.5s-22.833 -15.5 -37.5 -15.5c-38 0 -76.5 27.667 -115.5 83s-58.5 123.666 -58.5 204.999c0 112 33.5 220.5 100.5 325.5s161.833 189.167 284.5 252.5s257.667 95 405 95c120 0 211.167 -23.667 273.5 -71s93.5 -105 93.5 -173
c0 -64.667 -21 -123.5 -63 -176.5s-105.667 -93.833 -191 -122.5c58.667 -9.33301 105 -25.166 139 -47.499s60.167 -50.5 78.5 -84.5s27.5 -73 27.5 -117c0 -72 -21.167 -140.167 -63.5 -204.5s-104.666 -117.666 -186.999 -159.999s-168.166 -63.5 -257.499 -63.5
c-26 0 -81.667 2.66699 -167 8c-40.667 2 -83.334 3 -128.001 3c-68 0 -128.333 -5.33301 -181 -16l15 55c70 4 119.833 20.833 149.5 50.5s57.5 95.167 83.5 196.5l148 581c6 24.667 9 43.334 9 56.001c0 10 -4.16699 18.833 -12.5 26.5s-18.833 11.5 -31.5 11.5
c-5.33301 0 -12 -0.666992 -20 -2zM778.999 597.997l-51.002 -201.002c-26 -104 -51 -184 -75 -240c-14 -33.333 -32 -61.666 -54 -84.999c60 -14.667 111.667 -22 155 -22c116.667 0 204.834 36 264.501 108s89.5 152.333 89.5 241c0 44 -11.167 81.833 -33.5 113.5
s-51.666 53.834 -87.999 66.501s-105.5 19 -207.5 19z" />
    <glyph glyph-name="C" unicode="C" horiz-adv-x="1065" 
d="M1192 764l-54.0059 -0.00292969c3.33301 52 5 93.667 5 125c0 94 -19.5 159.5 -58.5 196.5s-88.167 55.5 -147.5 55.5c-79.333 0 -161.666 -32.167 -246.999 -96.5s-158.666 -164.666 -219.999 -300.999s-92 -276.5 -92 -420.5c0 -139.333 28.5 -246.166 85.5 -320.499
s128.5 -111.5 214.5 -111.5c116.667 0 223.667 70 321 210c10 14 20.333 21 31 21c8.66699 0 16 -2.83301 22 -8.5s9 -12.167 9 -19.5c0 -18 -22.167 -53.333 -66.5 -106s-100.166 -96.5 -167.499 -131.5s-133.666 -52.5 -198.999 -52.5c-78.667 0 -151.667 20.5 -219 61.5
s-119.666 99.5 -156.999 175.5s-56 166.333 -56 271c0 146 38.167 291.333 114.5 436s171.833 256.334 286.5 335.001s226.667 118 336 118c39.333 0 78.333 -4.33301 117 -13c16.667 -4 85.334 -27 206.001 -69c-38 -114.667 -59.333 -233 -64 -355z" />
    <glyph glyph-name="D" unicode="D" horiz-adv-x="1434" 
d="M650 962l9.99805 43.001c72.667 6 158.334 20.667 257.001 44c-28.667 -74 -54 -158 -76 -252l-66 -279c-47.333 -201.333 -100.666 -353.333 -159.999 -456c57.333 -11.333 108 -17 152 -17c116.667 0 218.334 24.5 305.001 73.5s155.5 120.5 206.5 214.5
s76.5 197.667 76.5 311c0 148.667 -43.333 268.167 -130 358.5s-200 135.5 -340 135.5c-118 0 -229.333 -28 -334 -84s-187.5 -130.167 -248.5 -222.5s-91.5 -182.166 -91.5 -269.499c0 -85.333 37.333 -148 112 -188c21.333 -12 35.166 -22.333 41.499 -31
s9.5 -19.334 9.5 -32.001c0 -16 -6.16699 -30.167 -18.5 -42.5s-26.5 -18.5 -42.5 -18.5c-35.333 0 -69.666 23.333 -102.999 70c-45.333 65.333 -68 132.333 -68 201c0 114.667 34.167 225.5 102.5 332.5s163.5 192.167 285.5 255.5s257.667 95 407 95
c184 0 330.5 -49.167 439.5 -147.5s163.5 -221.833 163.5 -370.5c0 -138 -38 -264.833 -114 -380.5s-167.833 -198 -275.5 -247s-215.167 -73.5 -322.5 -73.5c-34.667 0 -94.667 3.33301 -180 10c-72 5.33301 -140.333 8 -205 8c-30 0 -75.667 -1 -137 -3l23 49
c61.333 3.33301 99.5 8.66602 114.5 15.999s27.833 19.666 38.5 36.999c19.333 30.667 45.666 97.334 78.999 200.001l69 261l80 326c4 16 6 29.667 6 41c0 10.667 -3.33301 19.167 -10 25.5s-16 9.5 -28 9.5c-4.66699 0 -14 -1 -28 -3z" />
    <glyph glyph-name="E" unicode="E" horiz-adv-x="1270" 
d="M1312 959l-53.001 0.00195312c5.33301 34 8 61 8 81c0 26.667 -11.167 44.167 -33.5 52.5s-106.5 12.5 -252.5 12.5l-146 -1l-111 -442h207c65.333 0 105.5 4.83301 120.5 14.5s25.833 33.834 32.5 72.501h57c-21.333 -80.667 -40.333 -169.334 -57 -266.001h-51
c3.33301 31.333 5 55.666 5 72.999c0 7.33301 -4.66699 16.333 -14 27c-4.66699 5.33301 -13.334 9 -26.001 11c-18 3.33301 -46 5 -84 5h-205c-59.333 -226.667 -121 -404.334 -185 -533.001c62 19.333 117 29 165 29c80 0 178 -12.667 294 -38c61.333 -14 103 -21 125 -21
c29.333 0 53 7.33301 71 22s27 31.334 27 50.001c0 10.667 -4.33301 28 -13 52c-5.33301 16.667 -8 32.334 -8 47.001c0 15.333 6.16699 29 18.5 41s27.166 18 44.499 18c20.667 0 37.834 -8 51.501 -24s20.5 -37.333 20.5 -64c0 -56.667 -24.833 -106.334 -74.5 -149.001
s-115.167 -64 -196.5 -64c-42.667 0 -96.667 3.66699 -162 11c-143.333 16 -252.666 24 -327.999 24c-98.667 0 -214 -8 -346 -24l16 55c78.667 22 125 38.167 139 48.5s25.667 25.5 35 45.5c32 63.333 73.5 190.333 124.5 381l155.5 604c-80 0 -155.667 -19 -227 -57
s-127 -87.5 -167 -148.5s-60 -125.167 -60 -192.5c0 -28.667 2.83301 -53.667 8.5 -75s18.5 -51.333 38.5 -90c12.667 -23.333 19 -42.333 19 -57s-6.16699 -27.667 -18.5 -39s-27.5 -17 -45.5 -17c-26 0 -46.667 13 -62 39c-22.667 38 -34 89.667 -34 155
c0 140 53 265.667 159 377s260.333 167 463 167h343c118.667 0 206.334 7.66699 263.001 23c-26.667 -110.667 -43.667 -189.334 -51 -236.001z" />
    <glyph glyph-name="F" unicode="F" horiz-adv-x="1187" 
d="M1363 932h-54.001c11.333 56 17 92 17 108c0 22 -7.66699 38.333 -23 49s-44.333 16 -87 16l-64 -1l-21 1h-200l-32 -117c-36 -129.333 -63.333 -235.333 -82 -318h195c47.333 0 78 4.66699 92 14s25.667 33 35 71h54c-20.667 -84 -38.667 -171.667 -54 -263h-55
c4.66699 38 7 60.333 7 67c0 16 -8 28 -24 36c-9.33301 4.66699 -34.666 7.66699 -75.999 9h-191c-19.333 -92.667 -44.666 -192.667 -75.999 -300s-58.333 -190.333 -81 -249c53.333 -8.66699 101 -13 143 -13c27.333 0 54.333 2.33301 81 7l-17 -57
c-19.333 -2.66699 -37.333 -4 -54 -4c-14.667 0 -60.667 2.33301 -138 7c-46 3.33301 -85 5 -117 5c-64.667 0 -133.667 -6 -207 -18l12 55c59.333 12.667 98.5 26 117.5 40s33.5 31 43.5 51c20.667 40.667 59.334 166.667 116.001 378l153 599
c-89.333 -2.66699 -167.5 -22.667 -234.5 -60s-120.333 -87.5 -160 -150.5s-59.5 -126.833 -59.5 -191.5c0 -26 3.33301 -52.667 10 -80c3.33301 -15.333 12.666 -37.333 27.999 -66c19.333 -35.333 29 -60 29 -74s-5.66699 -26.167 -17 -36.5s-26 -15.5 -44 -15.5
c-26.667 0 -48.334 14 -65.001 42c-22.667 37.333 -34 90.333 -34 159c0 134 52.333 257.333 157 370c104.667 112 242.667 168 414 168h384c42.667 0 89.667 2.66699 141 8c15.333 1.33301 48.333 8.33301 99 21c-34 -139.333 -54.333 -228.333 -61 -267z" />
    <glyph glyph-name="G" unicode="G" horiz-adv-x="1270" 
d="M1331 796l-54.001 -0.00488281c3.33301 31.333 5 59 5 83c0 90 -23.167 155.667 -69.5 197s-103.5 62 -171.5 62c-94 0 -188.333 -31.833 -283 -95.5s-172.167 -152.5 -232.5 -266.5s-90.5 -233 -90.5 -357c0 -126 29.833 -218.667 89.5 -278s126.5 -89 200.5 -89
c44 0 86.167 5.83301 126.5 17.5s78.833 28.834 115.5 51.501c30.667 104.667 46 174.334 46 209.001c0 16.667 -6.16699 29.834 -18.5 39.501s-34.166 14.5 -65.499 14.5c-10.667 0 -36.334 -1.66699 -77.001 -5l9 49c29.333 5.33301 59 8 89 8
c24 0 53.667 -0.666992 89 -2c27.333 -0.666992 47.666 -1 60.999 -1c24 0 60.667 2 110 6c26 2 48.333 3.33301 67 4l-11 -51c-33.333 0.666992 -57 -6.5 -71 -21.5s-28.667 -54.167 -44 -117.5c-54.667 -227.333 -108.667 -391.833 -162 -493.5s-114 -174.667 -182 -219
s-141.333 -66.5 -220 -66.5c-66.667 0 -120.5 15.167 -161.5 45.5s-61.5 62.166 -61.5 95.499c0 18 6.5 33.333 19.5 46s27.833 19 44.5 19c22.667 0 48.334 -16 77.001 -48c32.667 -36 58.167 -59.333 76.5 -70s37.833 -16 58.5 -16c42 0 79 16.333 111 49
c65.333 64.667 129.666 214.334 192.999 449.001c-44 -24 -88.667 -42.167 -134 -54.5s-91.666 -18.5 -138.999 -18.5c-117.333 0 -209.666 31 -276.999 93c-90 82.667 -135 198 -135 346c0 134.667 34.167 261.334 102.5 380.001s163.333 216.334 285 293.001
s237.167 115 346.5 115c59.333 0 129 -9.33301 209 -28c80.667 -18 142 -27.333 184 -28c-36.667 -126.667 -55 -242 -55 -346z" />
    <glyph glyph-name="H" unicode="H" horiz-adv-x="1393" 
d="M1380 45l-13 -56.999c-34 -4 -60 -6 -78 -6c-28.667 0 -66.667 2.33301 -114 7c-50.667 4.66699 -94 7 -130 7c-28.667 0 -58.334 -4.66699 -89.001 -14c27.333 76.667 58.333 183.334 93 320.001l77 300l-270 -10c-47.333 -2.66699 -96 -6.33398 -146 -11.001
c-45.333 -178 -92 -309.667 -140 -395s-102.833 -148.166 -164.5 -188.499s-120.834 -60.5 -177.501 -60.5c-55.333 0 -102.666 13.333 -141.999 40c-28.667 18.667 -43 42 -43 70c0 16.667 5.66699 30.834 17 42.501s25 17.5 41 17.5c26 0 52.667 -18.333 80 -55
c16.667 -22 30.167 -36.167 40.5 -42.5s21.833 -9.5 34.5 -9.5c52 0 100.833 42 146.5 126s112.5 291.667 200.5 623l98 366c-133.333 0 -233.5 -22 -300.5 -66s-100.5 -93.667 -100.5 -149c0 -18.667 9 -42.334 27 -71.001c16 -26.667 24 -48.334 24 -65.001
c0 -19.333 -6.16699 -35.166 -18.5 -47.499s-27.833 -18.5 -46.5 -18.5c-23.333 0 -43.333 11.167 -60 33.5s-25 54.833 -25 97.5c0 77.333 28 145.666 84 204.999s137.333 101.333 244 126c61.333 14 183.666 21 366.999 21c-49.333 -97.333 -104.333 -269.333 -165 -516
c176 0 314.667 6.33301 416 19c58 193.333 109 328.166 153 404.499s93.5 131.5 148.5 165.5s116.5 51 184.5 51c58.667 0 103.834 -11.167 135.501 -33.5s47.5 -47.833 47.5 -76.5c0 -16.667 -5.66699 -30.334 -17 -41.001s-26 -16 -44 -16
c-23.333 0 -49.666 16.667 -78.999 50c-30 33.333 -56.667 50 -80 50c-50 0 -99.333 -46.333 -148 -139c-86.667 -165.333 -187 -514.333 -301 -1047c11.333 -1.33301 27.333 -3.66602 48 -6.99902c38 -6.66699 68.667 -10 92 -10c27.333 0 58.333 3.33301 93 10z" />
    <glyph glyph-name="I" unicode="I" horiz-adv-x="778" 
d="M970 1183l-16.9971 -54.001c-75.333 -4.66699 -125.333 -14 -150 -28c-16 -9.33301 -29.333 -23.333 -40 -42c-12.667 -24 -49.667 -151.333 -111 -382c-20 -76 -71 -283.667 -153 -623c46.667 -15.333 105.667 -22 177 -20l-16 -48c-21.333 -0.666992 -64 2 -128 8
c-46 4 -99.667 6 -161 6c-84.667 0 -162.334 -6.33301 -233.001 -19l12 53c73.333 11.333 129 26 167 44c9.33301 4.66699 16.666 10.334 21.999 17.001c10 12 20.833 36.167 32.5 72.5s51.5 184.833 119.5 445.5c20 75.333 60.667 240 122 494
c-46 1.33301 -102.333 -5 -169 -19l19 55c28 7.33301 56.667 12.5 86 15.5s95.666 5.83301 198.999 8.5c96.667 2.66699 170.667 8 222 16z" />
    <glyph glyph-name="J" unicode="J" horiz-adv-x="819" 
d="M1004 1180c-48.667 -108 -100.332 -258.334 -154.999 -451.001l-149 -521c-47.333 -166.667 -113.333 -288.667 -198 -366c-85.333 -78 -178.333 -117 -279 -117c-66.667 0 -120.334 15 -161.001 45s-61 63 -61 99c0 16.667 6 31.334 18 44.001s25.667 19 41 19
c22.667 0 47 -13.667 73 -41c35.333 -36.667 63 -60 83 -70c28 -14 53.333 -21 76 -21c24 0 44.667 5.33301 62 16c28.667 17.333 53.667 44.5 75 81.5s65.333 160.167 132 369.5c56 174.667 110.333 356 163 544l87 304l-48 2c-106 0 -193.667 -25.5 -263 -76.5
s-104 -104.833 -104 -161.5c0 -20 8.66699 -43 26 -69c16 -24 24 -43 24 -57c0 -17.333 -6.5 -32.5 -19.5 -45.5s-28.5 -19.5 -46.5 -19.5c-23.333 0 -42.5 10.333 -57.5 31s-22.5 51 -22.5 91c0 74.667 26.5 143.167 79.5 205.5s124.5 107.833 214.5 136.5
c60 19.333 151 29 273 29c17.333 0 63 -0.333008 137 -1z" />
    <glyph glyph-name="K" unicode="K" horiz-adv-x="1352" 
d="M1551 1180l-5.99902 -24.999c-54 -13.333 -98.667 -30 -134 -50s-83 -56.333 -143 -109c-159.333 -139.333 -298 -246.333 -416 -321c34 -42 63 -89 87 -141s65.667 -171.667 125 -359c53.333 -167.333 107.666 -280.333 162.999 -339s111.666 -88 168.999 -88
c55.333 0 93 29.333 113 88c12 34.667 22.333 56 31 64c12 10.667 25.333 16 40 16c16 0 29.667 -5.5 41 -16.5s17 -24.167 17 -39.5c0 -40 -23.667 -78.667 -71 -116s-107.333 -56 -180 -56c-62.667 0 -122.167 16 -178.5 48s-107.833 82.333 -154.5 151
s-94.334 175 -143.001 319c-45.333 136 -80.333 229.167 -105 279.5s-59 103.5 -103 159.5l-106 -405c-21.333 -82 -34.666 -140.667 -39.999 -176c45.333 -19.333 86 -29 122 -29c8.66699 0 21 0.666992 37 2l-13 -50c-13.333 -0.666992 -21.666 -1 -24.999 -1
c-22 0 -53.333 2.33301 -94 7c-42.667 4.66699 -77.667 7 -105 7c-55.333 0 -143 -10.667 -263 -32l6 48c64 12.667 109 30.167 135 52.5s46.667 57.5 62 105.5c35.333 108 81.333 270.333 138 487l122 463c-132 -8 -236.333 -38 -313 -90
c-59.333 -39.333 -89 -83.333 -89 -132c0 -17.333 8.33301 -39.333 25 -66c15.333 -24 23 -43.333 23 -58c0 -18 -6.66699 -33.833 -20 -47.5s-29 -20.5 -47 -20.5c-20.667 0 -39.167 10.333 -55.5 31s-24.5 48 -24.5 82c0 92.667 46.167 176.167 138.5 250.5
s252.833 111.5 481.5 111.5h65c-36.667 -95.333 -60.667 -164.333 -72 -207l-80 -303c49.333 18.667 106.833 50.5 172.5 95.5s128.834 92.833 189.501 143.5c111.333 93.333 174.666 150 189.999 170c4.66699 6.66699 7 12.334 7 17.001
c0 5.33301 -6.83301 10.166 -20.5 14.499s-52.167 7.16602 -115.5 8.49902l13 56c85.333 -8 155.333 -12 210 -12c56 0 120.667 4 194 12z" />
    <glyph glyph-name="L" unicode="L" horiz-adv-x="1188" 
d="M98 -17l12.0029 54.002c70 13.333 116.833 28.666 140.5 45.999s45 48.166 64 92.499s44.833 135.833 77.5 274.5c43.333 183.333 82.666 315.333 117.999 396c54 121.333 121.167 211.333 201.5 270s161.5 88 243.5 88c52.667 0 97 -13.333 133 -40
s54 -54.334 54 -83.001c0 -16 -5.5 -29.667 -16.5 -41s-24.167 -17 -39.5 -17c-20 0 -44.333 13 -73 39c-32 28 -56.833 46.333 -74.5 55s-34.834 13 -51.501 13c-19.333 0 -38.333 -5.33301 -57 -16c-26 -14.667 -53.833 -42.5 -83.5 -83.5s-60.5 -101.833 -92.5 -182.5
c-20.667 -54.667 -47 -144.667 -79 -270c-50 -199.333 -88 -331.666 -114 -396.999c-18.667 -46.667 -41.334 -85.334 -68.001 -116.001c95.333 21.333 171.333 32 228 32c35.333 0 68 -2.16699 98 -6.5s82.333 -15.166 157 -32.499c64.667 -15.333 110 -23 136 -23
c25.333 0 46.833 7.83301 64.5 23.5s26.5 33.5 26.5 53.5c0 12.667 -4.66699 30.334 -14 53.001c-8.66699 21.333 -13 38.333 -13 51c0 18 5.33301 32.167 16 42.5s24.667 15.5 42 15.5c20 0 37 -8.83301 51 -26.5s21 -41.834 21 -72.501c0 -58 -24 -108 -72 -150
s-113 -63 -195 -63c-40.667 0 -93 3 -157 9c-216 19.333 -357.333 29 -424 29c-98 -0 -184.667 -5.66699 -260 -17z" />
    <glyph glyph-name="M" unicode="M" horiz-adv-x="1720" 
d="M944 -42l-79.999 1076c-17.333 -181.333 -49.333 -350.5 -96 -507.5s-99.667 -278.333 -159 -364s-120 -145.834 -182 -180.501s-123.333 -52 -184 -52c-36.667 0 -64.834 7.5 -84.501 22.5s-29.5 33.167 -29.5 54.5c0 18 7.16699 33.667 21.5 47s32.5 20 54.5 20
c16 0 39 -3.66699 69 -11c27.333 -7.33301 50 -11 68 -11c31.333 0 64 11.667 98 35c51.333 34.667 102.166 96.834 152.499 186.501s95.333 214.667 135 375s64.5 316.833 74.5 469.5c-151.333 0 -274.333 -37.667 -369 -113c-75.333 -60 -113 -127 -113 -201
c0 -32.667 18 -72 54 -118c19.333 -24.667 29 -44.667 29 -60c0 -17.333 -5.5 -31.666 -16.5 -42.999s-24.167 -17 -39.5 -17c-26 0 -49 14.667 -69 44c-27.333 39.333 -41 86 -41 140c0 76 25.5 148.833 76.5 218.5s121.667 122.667 212 159s196.166 54.833 317.499 55.5
c65.333 0 117.666 6 156.999 18c-2 -60 -3 -92.333 -3 -97c0 -6 1 -19.667 3 -41l59 -760c160.667 280.667 317.667 511.667 471 693c108.667 128.667 203.334 215.667 284.001 261c-46 -126.667 -95.333 -293.667 -148 -501l-122 -480
c-6.66699 -26.667 -15.667 -65.667 -27 -117l-24 -107c50.667 -12 97 -18 139 -18c34 0 70.333 4 109 12l-13 -58c-34 -6 -60.333 -9 -79 -9c-27.333 0 -66.666 3 -117.999 9c-42 5.33301 -79.333 8 -112 8c-34.667 0 -74 -6.66699 -118 -20c36.667 96 75 225 115 387
l77 306c32.667 132 61 222.667 85 272c-53.333 -60.667 -135.666 -172 -246.999 -334c-89.333 -130.667 -189.333 -296 -300 -496z" />
    <glyph glyph-name="N" unicode="N" horiz-adv-x="1434" 
d="M915 1204l27.9971 -117.001c26 -106.667 51.667 -200 77 -280s90.333 -265 195 -555c10 36.667 30 118 60 244c38.667 164 64.334 267 77.001 309c37.333 123.333 73.333 214 108 272s73.334 99.667 116.001 125s91 38 145 38c43.333 0 76.5 -8.33301 99.5 -25
s34.5 -36.667 34.5 -60c0 -16.667 -6.16699 -31.334 -18.5 -44.001s-26.833 -19 -43.5 -19c-12 0 -26 3.33301 -42 10c-33.333 13.333 -53.333 21 -60 23c-12 2.66699 -25 4 -39 4c-32.667 0 -60.667 -11 -84 -33c-41.333 -38.667 -86.833 -135.667 -136.5 -291
s-112.834 -403.666 -189.501 -744.999l-34 -149c-76 167.333 -127.333 286 -154 356c-36 94 -77 212.667 -123 356l-110 346c-13.333 -80 -44.5 -214.833 -93.5 -404.5s-78.167 -298.834 -87.5 -327.501c-30.667 -90 -63.5 -159 -98.5 -207s-73.333 -83 -115 -105
s-87.5 -33 -137.5 -33c-62.667 0 -114 14 -154 42c-30.667 20.667 -46 47 -46 79c0 14 5.66699 26.5 17 37.5s25 16.5 41 16.5c20.667 0 43 -11 67 -33c42.667 -39.333 81.667 -59 117 -59c38 0 75.333 17 112 51c54.667 52 107.334 161 158.001 327
c61.333 200.667 120.333 455.334 177 764.001c-23.333 0 -68 -6.66699 -134 -20s-121.167 -32.166 -165.5 -56.499s-78.333 -56 -102 -95s-35.5 -79.833 -35.5 -122.5c0 -21.333 3 -43 9 -65c4 -14.667 12.667 -32.667 26 -54c15.333 -24.667 23 -43.334 23 -56.001
c0 -16 -5.83301 -29.667 -17.5 -41s-26.167 -17 -43.5 -17c-25.333 0 -47 13.167 -65 39.5s-27 66.5 -27 120.5c0 89.333 22.5 165.333 67.5 228s105.167 110 180.5 142c48 20 140.667 39.333 278 58c50.667 6.66699 98.334 15.334 143.001 26.001z" />
    <glyph glyph-name="O" unicode="O" horiz-adv-x="1229" 
d="M899 1197c84 0 159.832 -19.499 227.499 -58.499s120.167 -94.667 157.5 -167s56 -156.5 56 -252.5c0 -125.333 -33.667 -249.666 -101 -372.999s-149.666 -216.333 -246.999 -279s-205.333 -94 -324 -94c-136.667 0 -247.167 42.667 -331.5 128
s-126.5 197.666 -126.5 336.999c0 133.333 33.667 262.166 101 386.499s150 217.5 248 279.5s211.333 93 340 93zM825.999 1125c-77.333 0 -148.5 -22.832 -213.5 -68.499s-118.167 -117 -159.5 -214s-62 -209.5 -62 -337.5c0 -146.667 32.333 -259.834 97 -339.501
s145.334 -119.5 242.001 -119.5c72 0 140.167 23.667 204.5 71s117.333 121.833 159 223.5s62.5 218.5 62.5 350.5c0 136.667 -31.833 243.167 -95.5 319.5s-141.834 114.5 -234.501 114.5z" />
    <glyph glyph-name="P" unicode="P" horiz-adv-x="1106" 
d="M627 957l12.0029 45.0029c96.667 9.33301 179.334 22.666 248.001 39.999c-16.667 -46.667 -34.667 -107.667 -54 -183l-74 -281l92 -6c42.667 -2 89.167 8.66699 139.5 32s95.333 64.333 135 123s59.5 122 59.5 190c0 67.333 -24.167 120.666 -72.5 159.999
s-122.166 59 -221.499 59c-113.333 0 -224.333 -28.167 -333 -84.5s-192.5 -128.333 -251.5 -216s-88.5 -174.167 -88.5 -259.5c0 -42 7.66699 -78.5 23 -109.5s42.666 -61.5 81.999 -91.5c32.667 -24 49 -47.333 49 -70c0 -14.667 -5.33301 -27 -16 -37
s-23.334 -15 -38.001 -15c-39.333 0 -77.333 27 -114 81s-55 122.333 -55 205c0 151.333 58 289.333 174 414c152 164 356 246 612 246c97.333 0 177.166 -12.667 239.499 -38s109 -60 140 -104s46.5 -91.667 46.5 -143c0 -65.333 -21.833 -129.5 -65.5 -192.5
s-108 -113.833 -193 -152.5s-179.5 -58 -283.5 -58c-16 0 -41 1 -75 3l-79 -311c-13.333 -52.667 -28.333 -104.667 -45 -156c52 -12.667 97.333 -19 136 -19c48.667 0 101 9.33301 157 28l-12 -56c-52 -14 -96 -21 -132 -21c-34.667 0 -85.334 3.66699 -152.001 11
c-53.333 6.66699 -96.666 10 -129.999 10c-64.667 0 -131 -7.66699 -199 -23l12 53c69.333 11.333 116.666 27.666 141.999 48.999c36 30 65.333 90.333 88 181l151 599c6.66699 28 10 47.667 10 59c0 10.667 -4.33301 20.167 -13 28.5s-19 12.5 -31 12.5
c-4.66699 0 -11.334 -0.666992 -20.001 -2z" />
    <glyph glyph-name="Q" unicode="Q" horiz-adv-x="1229" 
d="M781 -17l167.002 -161.999c92.667 -93.333 157.334 -153.666 194.001 -180.999c52 -38.667 97 -65.167 135 -79.5s72.667 -21.5 104 -21.5c26.667 0 50.667 4 72 12s40.666 20 57.999 36c10 9.33301 23 29.666 39 60.999c17.333 34 39.333 51 66 51
c13.333 0 25 -5.16699 35 -15.5s15 -22.5 15 -36.5c0 -36 -27 -70.667 -81 -104c-75.333 -46.667 -161.333 -70 -258 -70c-64.667 0 -117.334 6.66699 -158.001 20c-56 18.667 -109.167 45.667 -159.5 81s-117.5 96.666 -201.5 183.999
c-76.667 78.667 -126.834 128.5 -150.501 149.5s-47.167 38.5 -70.5 52.5c-12.667 8 -43 21.333 -91 40c-93.333 37.333 -164.333 93.333 -213 168s-73 164.667 -73 270c0 181.333 62.333 353.333 187 516s285.667 244 483 244c94 0 174.667 -18.833 242 -56.5
s120.5 -93.167 159.5 -166.5s58.5 -156 58.5 -248c0 -163.333 -52.833 -321 -158.5 -473s-239.167 -242.333 -400.5 -271zM826.002 1125c-77.333 0 -148.5 -22.832 -213.5 -68.499s-118.167 -117 -159.5 -214s-62 -209.5 -62 -337.5c0 -146.667 32.333 -259.834 97 -339.501
s145.334 -119.5 242.001 -119.5c72 0 140.167 23.667 204.5 71s117.333 121.833 159 223.5s62.5 218.5 62.5 350.5c0 136.667 -31.833 243.167 -95.5 319.5s-141.834 114.5 -234.501 114.5z" />
    <glyph glyph-name="R" unicode="R" horiz-adv-x="1229" 
d="M737 572l-134.001 -531.004c32 -4.66699 57.667 -7 77 -7c29.333 0 65.666 5 108.999 15l-10 -49c-44.667 -9.33301 -79.334 -14 -104.001 -14c-26 0 -64.333 2.33301 -115 7c-44.667 4.66699 -81.667 7 -111 7c-53.333 0 -115 -7.66699 -185 -23l15 56
c73.333 18.667 121 37 143 55c33.333 28.667 59 79 77 151l140 559c17.333 71.333 26 113.333 26 126c0 12 -4.16699 21 -12.5 27s-24.833 8.66699 -49.5 8l13 48c67.333 0.666992 148 13 242 37c-8 -25.333 -18.333 -62.666 -31 -111.999l-75 -295
c32 -6.66699 59 -10 81 -10c83.333 0 154.666 29.167 213.999 87.5s89 127.5 89 207.5c0 62 -23.833 113 -71.5 153s-112.5 60 -194.5 60c-104.667 0 -207 -25.333 -307 -76s-175 -113.5 -225 -188.5s-75 -153.5 -75 -235.5c0 -62 25.667 -115.333 77 -160
c26 -22 42 -38 48 -48s9 -20.667 9 -32c0 -14 -5.16699 -26.167 -15.5 -36.5s-22.833 -15.5 -37.5 -15.5c-36 0 -68 21 -96 63c-36 54.667 -54 122 -54 202c0 102.667 28.333 198.334 85 287.001s142.5 162 257.5 220s236.167 87 363.5 87
c118.667 0 216.334 -22.333 293.001 -67s115 -110.667 115 -198c0 -82 -35.167 -158.333 -105.5 -229s-167.166 -116 -290.499 -136c30.667 -61.333 50.334 -102.666 59.001 -123.999c14 -36 35.333 -96.667 64 -182c67.333 -200.667 137 -342 209 -424
c53.333 -60 111 -90 173 -90c64 0 105 29 123 87c10.667 36.667 20.667 59.334 30 68.001c12.667 12 27 18 43 18s29.5 -5.66699 40.5 -17s16.5 -25 16.5 -41c0 -41.333 -22.667 -80.666 -68 -117.999s-103.666 -56 -174.999 -56c-64.667 0 -126.5 15.667 -185.5 47
s-116.333 82.666 -172 153.999s-104.167 157 -145.5 257c-20.667 50 -51 141.667 -91 275c-24 81.333 -39 130 -45 146l-25 2c-6 0 -14.667 -0.666992 -26 -2z" />
    <glyph glyph-name="S" unicode="S" horiz-adv-x="942" 
d="M1029 811l-51.999 0.000976562c7.33301 70 11 123 11 159c0 51.333 -13.833 91.833 -41.5 121.5s-65.167 44.5 -112.5 44.5c-73.333 0 -137.333 -26.5 -192 -79.5s-82 -112.5 -82 -178.5c0 -35.333 7.5 -67.333 22.5 -96s48.167 -68.667 99.5 -120
c94 -92 155.667 -164 185 -216s44 -102.667 44 -152c0 -72.667 -22.167 -142.667 -66.5 -210s-109.666 -122.833 -195.999 -166.5s-177.5 -65.5 -273.5 -65.5c-94.667 0 -174.5 24.667 -239.5 74s-97.5 101.333 -97.5 156c0 29.333 8.5 53.666 25.5 72.999s36.5 29 58.5 29
c22.667 0 41.334 -9 56.001 -27c9.33301 -10.667 18.666 -34.667 27.999 -72c10.667 -45.333 23.667 -78.166 39 -98.499s36.5 -37 63.5 -50s56.5 -19.5 88.5 -19.5c95.333 0 178.666 32.167 249.999 96.5s107 135.5 107 213.5c0 26.667 -4.5 53.167 -13.5 79.5
s-25.5 56.166 -49.5 89.499c-16.667 22.667 -53.667 62.667 -111 120c-56.667 56 -92.334 94.333 -107.001 115c-20.667 30 -36 60.167 -46 90.5s-15 60.5 -15 90.5c0 60.667 20.333 121.667 61 183s93.5 110.166 158.5 146.499s138.833 54.5 221.5 54.5
c41.333 0 92.333 -6.33301 153 -19c34.667 -6.66699 64.667 -11.667 90 -15c-14.667 -43.333 -26 -84.166 -34 -122.499s-19 -114.5 -33 -228.5z" />
    <glyph glyph-name="T" unicode="T" horiz-adv-x="1024" 
d="M991 57l-14.002 -56.9951c-46 -10 -83.667 -15 -113 -15c-28 0 -74.333 3 -139 9c-48.667 4 -92.334 6 -131.001 6c-66.667 0 -135.334 -6 -206.001 -18l14 55c67.333 6.66699 116.333 20.667 147 42c22 15.333 40.833 41.5 56.5 78.5s51.167 166.167 106.5 387.5
l128 530l7 25c-39.333 1.33301 -69 2 -89 2c-123.333 0 -221.166 -13.333 -293.499 -40s-126.666 -65.334 -162.999 -116.001s-54.5 -105.334 -54.5 -164.001c0 -20.667 3.66699 -39.667 11 -57c5.33301 -12 20 -31.333 44 -58c22.667 -24.667 34 -47.334 34 -68.001
c0 -18 -6.66699 -33.333 -20 -46s-29.333 -19 -48 -19c-28 0 -50.667 13.333 -68 40c-25.333 39.333 -38 89.333 -38 150c0 81.333 25.167 160.333 75.5 237s119.5 136 207.5 178s195 63 321 63c60 0 155.667 -8.66699 287 -26c93.333 -12 161 -18 203 -18s71.667 7 89 21
s26 32.667 26 56c0 4.66699 -1 14 -3 28c-2 12.667 -3 21 -3 25c0 18 6 33 18 45s26.333 18 43 18c20 0 36.5 -7.33301 49.5 -22s19.5 -34.334 19.5 -59.001c0 -50.667 -27 -94.334 -81 -131.001s-144.333 -55 -271 -55c-45.333 0 -93.666 2 -144.999 6
c-6.66699 -24 -27.667 -105.333 -63 -244l-87 -346l-53 -211l-55 -241c44.667 -5.33301 81.667 -8 111 -8c44.667 0 91.334 5.66699 140.001 17z" />
    <glyph glyph-name="U" unicode="U" horiz-adv-x="1515" 
d="M928 1195c-67.333 -118.667 -133.669 -269.669 -199.002 -453.002c-46 -130 -69 -238.667 -69 -326c0 -97.333 23.5 -173 70.5 -227s105.833 -81 176.5 -81c66.667 0 129.334 16.667 188.001 50c78 44 150.167 111 216.5 201s120.5 197.833 162.5 323.5
s63 243.167 63 352.5c0 76 -16.333 148 -49 216c-17.333 34.667 -27 55.334 -29 62.001c-2.66699 9.33301 -4 19.333 -4 30c0 20 6.16699 36.333 18.5 49s27.5 19 45.5 19c31.333 0 56 -16.667 74 -50c26 -45.333 39 -115.666 39 -210.999c0 -204 -44.667 -407 -134 -609
s-192.5 -346.333 -309.5 -433s-239.833 -130 -368.5 -130c-104.667 0 -185 34.833 -241 104.5s-84 155.5 -84 257.5c0 84 13 170 39 258c34 115.333 104.333 287.666 211 516.999c-83.333 2 -158 -8.16699 -224 -30.5s-113.5 -50.833 -142.5 -85.5s-43.5 -69 -43.5 -103
c0 -14 7.66699 -33 23 -57c16 -27.333 24 -48.666 24 -63.999c0 -19.333 -6 -35.333 -18 -48s-27 -19 -45 -19c-22 0 -41.167 10 -57.5 30s-24.5 46 -24.5 78c0 51.333 15 102.833 45 154.5s68.833 93.167 116.5 124.5s106.5 54.333 176.5 69
c34.667 7.33301 106.667 14 216 20c74.667 4 120.334 7.66699 137.001 11z" />
    <glyph glyph-name="V" unicode="V" horiz-adv-x="1311" 
d="M643 -41l-35.998 483.999c-7.33301 98.667 -11 163.667 -11 195c0 90 12.833 172.833 38.5 248.5s71.167 156.834 136.5 243.501c-78 0 -157.5 -18.667 -238.5 -56s-140.333 -80.333 -178 -129s-56.5 -97.667 -56.5 -147c0 -22.667 7 -46.667 21 -72
c18 -32 27 -56.333 27 -73c0 -15.333 -4.66699 -27.666 -14 -36.999s-21.333 -14 -36 -14c-21.333 0 -40 11 -56 33c-20 29.333 -30 65.666 -30 108.999c0 81.333 30.667 159.666 92 234.999s145.333 131 252 167c68.667 23.333 168.667 39.333 300 48
c35.333 2.66699 71.333 6 108 10c-90 -132 -148.667 -242.167 -176 -330.5s-41 -208.166 -41 -359.499c0 -116 6 -222 18 -318l192 205l164 168c165.333 170 276.666 304 333.999 402c43.333 74 65 141.333 65 202c0 33.333 -7.66699 70 -23 110
c-10 25.333 -15 44.666 -15 57.999c0 18 6.83301 33.667 20.5 47s29.834 20 48.501 20c25.333 0 46.666 -13 63.999 -39s26 -66.667 26 -122c0 -54 -11.333 -111.167 -34 -171.5s-70.334 -137.166 -143.001 -230.499s-185 -217 -337 -371
c-159.333 -161.333 -320 -333 -482 -515z" />
    <glyph glyph-name="W" unicode="W" horiz-adv-x="1802" 
d="M1228 -88l19.999 643.998c4.66699 142.667 18 276.667 40 402c-38.667 -47.333 -87.334 -118 -146.001 -212c-175.333 -282 -364.333 -546.667 -567 -794c-14.667 88.667 -26.5 192.334 -35.5 311.001s-13.5 222.667 -13.5 312c0 126 11.833 226.5 35.5 301.5
s68.5 157.167 134.5 246.5c-125.333 -14 -224.833 -53.667 -298.5 -119s-110.5 -132.333 -110.5 -201c0 -25.333 7 -51 21 -77c16.667 -31.333 25 -52.333 25 -63c0 -17.333 -5.5 -31.666 -16.5 -42.999s-24.5 -17 -40.5 -17c-21.333 0 -38.666 9.66699 -51.999 29
c-18 25.333 -27 58 -27 98c0 60.667 17.5 122.667 52.5 186s81.5 115.5 139.5 156.5s124 70.833 198 89.5c40.667 10 109 20.333 205 31c32.667 4 65 8.33301 97 13c-144.667 -202.667 -217 -407.334 -217 -614.001c0 -64.667 5 -193.667 15 -387
c39.333 47.333 75 93 107 137c22 30.667 79.333 115.667 172 255c149.333 226.667 261 386.334 335 479.001c52 64 110.667 123.667 176 179c-64 -251.333 -96 -612.333 -96 -1083l251 311c67.333 84 135.5 181.833 204.5 293.5s114.5 200.834 136.5 267.501
c14 43.333 21 84.333 21 123c0 38 -8.66699 78 -26 120c-10.667 26.667 -16 46 -16 58c0 18 6.5 33.167 19.5 45.5s29.5 18.5 49.5 18.5c25.333 0 45.333 -11.333 60 -34c21.333 -30.667 32 -71.334 32 -122.001c0 -67.333 -23.167 -156 -69.5 -266
s-149.166 -270.667 -308.499 -482c-205.333 -270 -374.333 -467.667 -507 -593z" />
    <glyph glyph-name="X" unicode="X" horiz-adv-x="1147" 
d="M440 1100l12.002 59.0029c23.333 5.33301 51.333 8 84 8c65.333 0 105 0.666992 119 2c26.667 1.33301 63.667 5.33301 111 12c0 -124 19.667 -262 59 -414c96.667 132.667 196.334 253.334 299.001 362.001c63.333 68 122.666 115.667 177.999 143
c39.333 19.333 81 29 125 29c32 0 55.667 -5.83301 71 -17.5s23 -26.834 23 -45.501s-7 -33.334 -21 -44.001s-43.667 -18 -89 -22c-63.333 -6.66699 -114.666 -19.834 -153.999 -39.501s-85.333 -57.834 -138 -114.501c-86.667 -94 -177.334 -205 -272.001 -333
c32.667 -96 57 -189.667 73 -281s24 -180.333 24 -267c0 -26 -0.666992 -54 -2 -84c29.333 -7.33301 58.333 -11 87 -11c26.667 0 62.667 2 108 6l-12 -57c-26.667 -2 -44 -3 -52 -3c-18 0 -46.667 2 -86 6c-33.333 4 -61 6 -83 6c-21.333 0 -60 -3 -116 -9
c8 46 12 86.667 12 122c0 79.333 -5 154.833 -15 226.5s-25 139.5 -45 203.5l-162 -227c-140 -194 -246.333 -318.333 -319 -373s-140 -82 -202 -82c-22.667 0 -40.5 6 -53.5 18s-19.5 26.333 -19.5 43c0 17.333 6.66699 31.833 20 43.5s38.666 19.834 75.999 24.501
c71.333 9.33301 132.666 33.666 183.999 72.999c68 52 155 151 261 297l191 264c-64.667 204 -97 367.333 -97 490c-28 1.33301 -48.333 2 -61 2c-34.667 0 -74 -5.33301 -118 -16z" />
    <glyph glyph-name="Y" unicode="Y" horiz-adv-x="1147" 
d="M1090 59l-21.001 -59.001c-41.333 -10.667 -76.666 -16 -105.999 -16c-31.333 0 -72.666 2.66699 -123.999 8c-48.667 5.33301 -87.334 8 -116.001 8c-40.667 0 -103 -4.66699 -187 -14l17 51c62.667 16 102 33.333 118 52s42.667 98.5 80 239.5s56 233.833 56 278.5
c0 89.333 -17.333 181 -52 275s-78 170 -130 228c-98 -36 -168.167 -69.833 -210.5 -101.5s-76.333 -70.5 -102 -116.5s-38.5 -86.333 -38.5 -121c0 -34 15.333 -65.667 46 -95c26 -25.333 39 -47.666 39 -66.999c0 -17.333 -5.16699 -31.666 -15.5 -42.999
s-23.166 -17 -38.499 -17c-27.333 0 -50.333 13.333 -69 40c-25.333 36.667 -38 80.667 -38 132c0 74 20.667 143.667 62 209s99 120 173 164c43.333 26 114.666 53.667 213.999 83c36.667 10.667 69.667 21.667 99 33c56 -67.333 101 -146.5 135 -237.5
s57.333 -203.833 70 -338.5c124 260 242.167 442.833 354.5 548.5s203.833 158.5 274.5 158.5c22 0 40 -6.33301 54 -19s21 -28.334 21 -47.001c0 -19.333 -8.16699 -35 -24.5 -47s-48.166 -19.667 -95.499 -23c-46.667 -3.33301 -82.667 -12.666 -108 -27.999
c-50 -30.667 -108.833 -87.334 -176.5 -170.001s-134.5 -186 -200.5 -310s-116.333 -253.167 -151 -387.5s-53.334 -221.833 -56.001 -262.5c31.333 -5.33301 62.333 -8 93 -8c46.667 0 98 6.66699 154 20z" />
    <glyph glyph-name="Z" unicode="Z" horiz-adv-x="1270" 
d="M1127 1047c-43.333 -10 -88 -15.001 -134 -15.001c-74 0 -161.333 14.333 -262 43c-62 17.333 -101.333 26 -118 26c-28.667 0 -50.5 -5.83301 -65.5 -17.5s-22.5 -25.834 -22.5 -42.501c0 -18.667 10.667 -36 32 -52c22 -17.333 35.833 -30.666 41.5 -39.999
s8.5 -20.666 8.5 -33.999c0 -16.667 -6 -31 -18 -43s-26.333 -18 -43 -18c-26.667 0 -49.667 12.333 -69 37s-29 58 -29 100c0 58.667 22 108.667 66 150s98.333 62 163 62c41.333 0 90.666 -4.33301 147.999 -13c130.667 -20 228 -30 292 -30
c65.333 0 127.666 15 186.999 45c16.667 8 28.334 12 35.001 12c8.66699 0 16.5 -3 23.5 -9s10.5 -12 10.5 -18c0 -20.667 -31 -58.667 -93 -114c-64.667 -57.333 -125.334 -115.666 -182.001 -174.999l-500 -518l-286 -309c144 41.333 252.667 62 326 62
c105.333 0 218.333 -22 339 -66c66.667 -24 113.334 -36 140.001 -36c30.667 0 53.5 6.66699 68.5 20s22.5 32.666 22.5 57.999c0 13.333 -3.33301 28.666 -10 45.999c-8 20.667 -12 35.667 -12 45c0 18.667 6.66699 35 20 49s29 21 47 21c20 0 37.167 -8.16699 51.5 -24.5
s21.5 -38.166 21.5 -65.499c0 -64.667 -25.667 -118 -77 -160s-109.666 -63 -174.999 -63c-39.333 0 -108 6.33301 -206 19c-112 14 -232.333 21 -361 21c-148.667 0 -248 -10.333 -298 -31c-20 -8 -35 -12 -45 -12c-7.33301 0 -14.333 3 -21 9
c-4.66699 5.33301 -7 12 -7 20c0 19.333 12.667 41 38 65c27.333 26 78 77.667 152 155l282 288l300 306c73.333 74.667 146.333 157 219 247z" />
    <glyph glyph-name="bracketleft" unicode="[" horiz-adv-x="491" 
d="M523 1377h302l-15 -63h-191l-363 -1596h187l-14 -62h-300z" />
    <glyph glyph-name="backslash" unicode="\" horiz-adv-x="983" 
d="M962 -384h-104l-430 1769h104z" />
    <glyph glyph-name="bracketright" unicode="]" horiz-adv-x="655" 
d="M368 -344h-302l14 62h192l363 1596h-188l15 63h300z" />
    <glyph glyph-name="asciicircum" unicode="^" horiz-adv-x="1065" 
d="M616 841h-112l200 328h107l199 -328h-112l-141 200z" />
    <glyph glyph-name="underscore" unicode="_" horiz-adv-x="1024" 
d="M-12 -154h1048v-102h-1048v102z" />
    <glyph glyph-name="grave" unicode="`" horiz-adv-x="451" 
d="M311 1252h167l110 -290h-60z" />
    <glyph glyph-name="a" unicode="a" horiz-adv-x="860" 
d="M856 858l66.002 13.9971l-75 -253c-30 -100.667 -58.333 -216.667 -85 -348c-14.667 -71.333 -22 -117.333 -22 -138s8.33301 -31 25 -31c10.667 0 27.667 7 51 21c41.333 24.667 81 55.334 119 92.001l32 -39c-76 -69.333 -124.667 -111.333 -146 -126
c-42.667 -29.333 -83.334 -51 -122.001 -65c-25.333 -9.33301 -50 -14 -74 -14c-17.333 0 -30.333 4 -39 12s-13 19.667 -13 35c0 10 2.66699 23.667 8 41l40 136c-57.333 -68.667 -125.666 -127.667 -204.999 -177c-48.667 -30.667 -93.334 -46 -134.001 -46
c-38.667 0 -68.334 13.667 -89.001 41c-28 36.667 -42 84.667 -42 144c0 70.667 18.833 149.334 56.5 236.001s88.167 165.334 151.5 236.001s130 122.667 200 156c54 25.333 123.333 38 208 38c21.333 0 43 -1.33301 65 -4zM732.002 704.997
c-36 7.33301 -66.334 11 -91.001 11c-60 0 -112.333 -16.5 -157 -49.5s-86.167 -92.333 -124.5 -178s-57.5 -171.167 -57.5 -256.5c0 -45.333 7.66699 -78 23 -98s35.333 -30 60 -30c46 0 95.333 24.833 148 74.5s91.334 121.167 116.001 214.5z" />
    <glyph glyph-name="b" unicode="b" horiz-adv-x="860" 
d="M478 666c54 59.333 107.167 102.833 159.5 130.5s98.5 41.5 138.5 41.5c46.667 0 84 -18.667 112 -56s42 -93.666 42 -168.999c0 -109.333 -25.667 -216.333 -77 -321s-114.833 -184.334 -190.5 -239.001s-149.5 -82 -221.5 -82c-61.333 0 -110.333 18 -147 54
s-55 82.667 -55 140c0 46 9 110 27 192l118 529c28.667 129.333 64.667 227.833 108 295.5s100.333 121.667 171 162s137.667 60.5 201 60.5c38 0 65.833 -6.5 83.5 -19.5s26.5 -30.5 26.5 -52.5c0 -20 -8 -36.667 -24 -50s-38.667 -20 -68 -20c-22 0 -60 5 -114 15
c-24 4.66699 -45.333 7 -64 7c-33.333 0 -60.333 -18 -81 -54c-15.333 -28 -36.333 -99 -63 -213zM675 727c-32.667 0 -71.5 -19.667 -116.5 -59s-87.5 -108.833 -127.5 -208.5s-60 -197.5 -60 -293.5c0 -36 11.5 -66.167 34.5 -90.5s49.833 -36.5 80.5 -36.5
c74 0 140 58.5 198 175.5s87 233.5 87 349.5c0 52.667 -11 95.667 -33 129c-15.333 22.667 -36.333 34 -63 34z" />
    <glyph glyph-name="c" unicode="c" horiz-adv-x="696" 
d="M723 217l20.999 -57.9961c-158.667 -124.667 -292.667 -187 -402 -187c-58 0 -100.167 20.667 -126.5 62s-39.5 93.666 -39.5 156.999c0 105.333 28 213.666 84 324.999s124 196.666 204 255.999c62.667 46 133.334 69 212.001 69c49.333 0 86.666 -9.33301 111.999 -28
s38 -41.334 38 -68.001c0 -20.667 -6.66699 -37.5 -20 -50.5s-32 -19.5 -56 -19.5c-23.333 0 -53.333 10.667 -90 32c-38 22.667 -69.667 34 -95 34c-32.667 0 -65.167 -14.833 -97.5 -44.5s-63.166 -87.167 -92.499 -172.5s-44 -171 -44 -257
c0 -63.333 12.333 -112.333 37 -147c18 -26.667 43.333 -40 76 -40c78 0 171 45.667 279 137z" />
    <glyph glyph-name="d" unicode="d" 
d="M944 207l28 -38.0029c-89.333 -75.333 -155.666 -125.333 -198.999 -150c-60 -34 -107.333 -51 -142 -51c-16 0 -29 4.5 -39 13.5s-15 19.167 -15 30.5s3.66699 30 11 56l35 122c-80 -86 -146.667 -144.333 -200 -175s-101.333 -46 -144 -46c-35.333 0 -65 15.5 -89 46.5
s-36 76.5 -36 136.5c0 94.667 32.5 203.5 97.5 326.5s137.333 214 217 273s152.5 88.5 218.5 88.5c14.667 0 36.667 -2.33301 66 -7c31.333 130 61.333 224.833 90 284.5s65.667 111.167 111 154.5s97.166 76.833 155.499 100.5s112.833 35.5 163.5 35.5
c26.667 0 48 -7 64 -21s24 -31.667 24 -53c0 -20.667 -7.33301 -37.5 -22 -50.5s-34.667 -19.5 -60 -19.5c-16.667 0 -47.667 3.33301 -93 10s-76.333 10 -93 10c-23.333 0 -43.833 -7.16699 -61.5 -21.5s-34.5 -45.166 -50.5 -92.499c-10.667 -30 -35 -125.667 -73 -287
l-142 -604c-16.667 -71.333 -25 -118.666 -25 -141.999c0 -25.333 9.66699 -38 29 -38c12 0 26 4.33301 42 13c22.667 12.667 66.667 44.334 132 95.001zM732 722.997c-53.333 12 -90.9971 18 -112.997 18c-44.667 0 -88.334 -17.5 -131.001 -52.5
s-83.834 -102.833 -123.501 -203.5s-59.5 -188.334 -59.5 -263.001c0 -34 9.16699 -61.833 27.5 -83.5s39.166 -32.5 62.499 -32.5c28 0 60 12.333 96 37c51.333 36.667 92 81.334 122 134.001c18 33.333 42.333 115 73 245z" />
    <glyph glyph-name="e" unicode="e" horiz-adv-x="696" 
d="M698 251l33.002 -44c-163.333 -155.333 -303.333 -233 -420 -233c-47.333 0 -83.5 16 -108.5 48s-37.5 83.333 -37.5 154c0 142.667 43.333 284.667 130 426c97.333 160.667 213.666 241 348.999 241c47.333 0 83.5 -11.833 108.5 -35.5s37.5 -56.167 37.5 -97.5
c0 -43.333 -15 -86 -45 -128s-83.667 -85.667 -161 -131c-38.667 -22 -121.334 -61.667 -248.001 -119c-6 -36 -9 -70.333 -9 -103c0 -47.333 7.5 -80.333 22.5 -99s36.833 -28 65.5 -28c27.333 0 57.333 7.66699 90 23c44 20.667 108.333 62.667 193 126zM348.002 396
c107.333 48 188 99.667 242 155c36.667 38.667 55 77 55 115c0 28.667 -7.5 51.5 -22.5 68.5s-34.5 25.5 -58.5 25.5c-24.667 0 -48.667 -9.33301 -72 -28c-31.333 -24.667 -57.666 -62 -78.999 -112c-30.667 -73.333 -52.334 -148 -65.001 -224z" />
    <glyph glyph-name="f" unicode="f" horiz-adv-x="655" 
d="M208 776h238.997c39.333 166.667 84.333 290.667 135 372s116.667 145.5 198 192.5s158 70.5 230 70.5c40.667 0 71.334 -8 92.001 -24s31 -35 31 -57c0 -20 -7 -36.667 -21 -50s-32.333 -20 -55 -20c-23.333 0 -67.333 7 -132 21c-32 6.66699 -57 10 -75 10
c-44 0 -83.667 -27.167 -119 -81.5s-63.666 -127.833 -84.999 -220.5l-50 -213h264l-16 -71h-267l-158 -638c-48.667 -194 -126.5 -341 -233.5 -441s-223.167 -150 -348.5 -150c-42 0 -73.833 8.16699 -95.5 24.5s-32.5 36.5 -32.5 60.5c0 20.667 7.5 37.167 22.5 49.5
s36.5 18.5 64.5 18.5c14 0 34.667 -1.66699 62 -5c46.667 -6 91.334 -9 134.001 -9c66 0 114 15.5 144 46.5s60 106.833 90 227.5l203 816h-239z" />
    <glyph glyph-name="g" unicode="g" horiz-adv-x="819" 
d="M847 848l81.001 17.999c-48.667 -156 -93.334 -312.333 -134.001 -469c-29.333 -112 -49.666 -205.333 -60.999 -280c-6 -37.333 -9.33301 -84.666 -10 -141.999c-1.33301 -96 -12 -173.333 -32 -232c-28 -82 -80.167 -148 -156.5 -198s-166.833 -75 -271.5 -75
c-90 0 -160.833 21.167 -212.5 63.5s-77.5 90.833 -77.5 145.5c0 54 20.667 104.333 62 151c30.667 35.333 94.667 78 192 128c49.333 26 95.666 52.667 138.999 80c-49.333 -25.333 -87.666 -38 -114.999 -38c-24.667 0 -46.5 11.5 -65.5 34.5s-28.5 53.5 -28.5 91.5
c0 122.667 36.5 244.5 109.5 365.5s160.833 211.833 263.5 272.5c63.333 37.333 142.666 56 237.999 56c18.667 0 41.667 -0.666992 69 -2zM735.001 699.999c-32 6 -60.334 8.99707 -85.001 8.99707c-63.333 0 -117.666 -16.667 -162.999 -50s-84 -89.333 -116 -168
c-44.667 -111.333 -67 -205 -67 -281c0 -31.333 8.83301 -57.666 26.5 -78.999s37.5 -32 59.5 -32c26.667 0 59.667 12.833 99 38.5s71.5 57.834 96.5 96.501s50.5 105.334 76.5 200.001zM599 154.996c-45.333 -40.667 -132.668 -105.664 -262.001 -194.997
c-114 -77.333 -184 -133 -210 -167c-26 -34.667 -39 -71.334 -39 -110.001c0 -38 16.833 -72.167 50.5 -102.5s74.5 -45.5 122.5 -45.5c45.333 0 89.333 11.167 132 33.5s79.834 54.666 111.501 96.999s53.5 90.166 65.5 143.499s18.333 124 19 212
c0.666992 19.333 4 64 10 134z" />
    <glyph glyph-name="h" unicode="h" 
d="M977 212l25.998 -36.998c-61.333 -68 -124.333 -122 -189 -162c-44 -27.333 -80.333 -41 -109 -41c-23.333 0 -42.166 9.33301 -56.499 28s-21.5 47.667 -21.5 87c0 26.667 5.5 65.5 16.5 116.5s42.167 160.5 93.5 328.5c22.667 82.667 34 131 34 145
c0 22.667 -11.333 34 -34 34c-28 0 -63 -14 -105 -42c-58.667 -38.667 -110.667 -88 -156 -148c-28.667 -38.667 -51.667 -96 -69 -172l-80 -348h-149c32 116.667 56.667 212 74 286l147 642c26.667 118 61.834 208.833 105.501 272.5s100.667 114.5 171 152.5
s139.833 57 208.5 57c28.667 0 51.334 -7 68.001 -21s25 -31.667 25 -53c0 -18 -8.16699 -33.833 -24.5 -47.5s-38.5 -20.5 -66.5 -20.5c-16 0 -36.667 1.66699 -62 5c-57.333 8 -97 12 -119 12c-30.667 0 -55.667 -12.333 -75 -37s-39.333 -82.667 -60 -174l-112 -494
c79.333 83.333 165.666 153.666 258.999 210.999c54.667 34 98.667 51 132 51c26 0 46.333 -7.83301 61 -23.5s22 -37.5 22 -65.5c0 -22.667 -2.66699 -45.334 -8 -68.001c-8.66699 -39.333 -29 -110.666 -61 -213.999c-43.333 -142.667 -68.833 -231.334 -76.5 -266.001
s-11.5 -65.667 -11.5 -93c0 -10.667 1.83301 -18.667 5.5 -24s9.16699 -8 16.5 -8c16 0 46 19 90 57z" />
    <glyph glyph-name="i" unicode="i" horiz-adv-x="491" 
d="M600 1271c20.667 0 37.666 -6.83398 50.999 -20.501s20 -31.167 20 -52.5c0 -29.333 -10.167 -55.166 -30.5 -77.499s-43.166 -33.5 -68.499 -33.5c-20 0 -36.667 7 -50 21s-20 32.333 -20 55c0 30 9.66699 55.5 29 76.5s42.333 31.5 69 31.5zM205.999 608.999
l-43.999 34c66.667 73.333 127.5 125.5 182.5 156.5s101.833 46.5 140.5 46.5c21.333 0 37.666 -4.66699 48.999 -14s17 -22 17 -38c0 -19.333 -21.667 -101.333 -65 -246c-70.667 -236.667 -106 -379.334 -106 -428.001c0 -9.33301 2.33301 -17.166 7 -23.499
s9.66699 -9.5 15 -9.5c21.333 0 76 41.333 164 124l39 -38c-91.333 -86 -158 -141 -200 -165s-76.333 -36 -103 -36c-23.333 0 -41.833 7.33301 -55.5 22s-20.5 35 -20.5 61c0 83.333 50 287 150 611c4.66699 15.333 7 29 7 41c0 13.333 -6 20 -18 20
c-13.333 0 -28.5 -5.33301 -45.5 -16s-54.833 -44.667 -113.5 -102z" />
    <glyph glyph-name="j" unicode="j" horiz-adv-x="451" 
d="M611 1271c20.667 0 37.667 -6.83398 51 -20.501s20 -31.167 20 -52.5c0 -29.333 -10.167 -55.166 -30.5 -77.499s-42.833 -33.5 -67.5 -33.5c-20.667 0 -37.667 7 -51 21s-20 32.333 -20 55c0 30 9.83301 55.5 29.5 76.5s42.5 31.5 68.5 31.5zM213 600.999
l-38.0029 42.999c56.667 61.333 117.834 110.333 183.501 147s116.167 55 151.5 55c14.667 0 26.834 -4.5 36.501 -13.5s14.5 -20.5 14.5 -34.5c0 -17.333 -10.667 -64.666 -32 -141.999l-173 -631c-58 -214.667 -122 -359.834 -192 -435.501s-152 -113.5 -246 -113.5
c-46.667 0 -82.5 8.83301 -107.5 26.5s-37.5 37.834 -37.5 60.501c0 16 5.83301 29.667 17.5 41s25.834 17 42.501 17c18.667 0 45.334 -8.66699 80.001 -26c40 -20 70.667 -30 92 -30c36 0 65 16.667 87 50c22 32.667 55 138 99 316c45.333 182 83.666 330 114.999 444
l70 252c13.333 40.667 20 66 20 76c0 5.33301 -2.16699 10 -6.5 14s-8.83301 6 -13.5 6c-26 0 -80.333 -40.667 -163 -122z" />
    <glyph glyph-name="k" unicode="k" 
d="M329 0h-149.006l131 545c63.333 270 104.833 436.333 124.5 499s43.334 114.334 71.001 155.001s62.334 77 104.001 109s86.667 56.5 135 73.5s90.833 25.5 127.5 25.5c34.667 0 60.5 -6.66699 77.5 -20s25.5 -31 25.5 -53c0 -18.667 -7.66699 -34.667 -23 -48
s-34.666 -20 -57.999 -20c-29.333 0 -73.666 5 -132.999 15c-19.333 4 -36.333 6 -51 6c-20.667 0 -40.167 -7.33301 -58.5 -22s-34.666 -40.834 -48.999 -78.501s-34.5 -115.834 -60.5 -234.501l-71 -320c64 72.667 130.333 128.667 199 168c52 29.333 101.667 44 149 44
c33.333 0 61.5 -12.5 84.5 -37.5s34.5 -56.5 34.5 -94.5c0 -71.333 -37 -135 -111 -191s-187 -86 -339 -90c51.333 -22.667 92.333 -47.5 123 -74.5s60.834 -64.333 90.501 -112s67.834 -127.5 114.501 -239.5c55.333 -133.333 106.666 -222 153.999 -266
c46.667 -44 98 -66 154 -66c32.667 0 59.667 7.16699 81 21.5s32 28.833 32 43.5c0 9.33301 -3.33301 22 -10 38c-7.33301 17.333 -11 32 -11 44c0 15.333 6 29 18 41s26 18 42 18c18.667 0 34.667 -7.5 48 -22.5s20 -34.833 20 -59.5c0 -48 -22 -90.667 -66 -128
s-101.333 -56 -172 -56c-72.667 0 -137.667 18.333 -195 55s-111 95.334 -161 176.001c-28.667 46.667 -78.667 153 -150 319c-33.333 78.667 -63.333 137.667 -90 177c-20.667 30.667 -49 61 -85 91zM433.994 473c90 -0.666992 162.832 8.00098 218.499 26.001
s95.334 42 119.001 72s35.5 62.667 35.5 98c0 25.333 -6.83301 45.666 -20.5 60.999s-30.167 23 -49.5 23c-62.667 0 -158.667 -70 -288 -210z" />
    <glyph glyph-name="l" unicode="l" horiz-adv-x="491" 
d="M590 241l34.001 -36.001c-52 -58.667 -113.5 -112.167 -184.5 -160.5s-129.5 -72.5 -175.5 -72.5c-20.667 0 -37.667 7.83301 -51 23.5s-20 37.167 -20 64.5c0 53.333 20.667 164 62 332l108 439c39.333 158.667 72.333 265 99 319c41.333 82 99.833 145.667 175.5 191
s155.5 68 239.5 68c28.667 0 51.167 -6.83301 67.5 -20.5s24.5 -30.167 24.5 -49.5c0 -21.333 -8 -38.833 -24 -52.5s-39.333 -20.5 -70 -20.5c-20 0 -48.333 3.33301 -85 10c-32 5.33301 -61.667 8 -89 8s-48 -5.66699 -62 -17c-19.333 -16 -36.833 -49.667 -52.5 -101
s-41.167 -152.666 -76.5 -303.999l-99 -419c-49.333 -210 -74 -319.667 -74 -329c0 -21.333 7.66699 -32 23 -32c14.667 0 36 8.66699 64 26c55.333 34.667 110.666 79 165.999 133z" />
    <glyph glyph-name="m" unicode="m" horiz-adv-x="1270" 
d="M201 611l-29.9971 39.9951c66 66 128.667 114.667 188 146s106 47 140 47c14 0 24.5 -3 31.5 -9s10.5 -14.333 10.5 -25c0 -13.333 -5.33301 -39 -16 -77c-15.333 -56 -26 -100.333 -32 -133c160 162.667 282.333 244 367 244c22 0 38.667 -6 50 -18s17 -31 17 -57
c0 -28 -10 -75.667 -30 -143c76 79.333 142 135.5 198 168.5s99.667 49.5 131 49.5c28 0 49.667 -8 65 -24s23 -40.667 23 -74c0 -20 -3.33301 -43.667 -10 -71s-31 -110.666 -73 -249.999c-52.667 -172.667 -79 -275.667 -79 -309c0 -22.667 9.33301 -34 28 -34
c12.667 0 25 4 37 12c39.333 28 79.666 62.667 120.999 104l33 -36c-14 -11.333 -40.333 -34.666 -79 -69.999c-53.333 -48 -90 -78 -110 -90c-38.667 -22.667 -71.334 -34 -98.001 -34c-20 0 -37.667 9.83301 -53 29.5s-23 46.834 -23 81.501c0 32 4.66699 69.5 14 112.5
s36.666 139.5 81.999 289.5c34 112.667 51 181 51 205c0 22.667 -10 34 -30 34c-16.667 0 -39 -8.33301 -67 -25c-57.333 -34.667 -105.333 -77 -144 -127c-26.667 -34.667 -50 -89.667 -70 -165c-44.667 -164.667 -78 -299 -100 -403h-142l149 611
c10.667 44 16 69.333 16 76c0 10.667 -2.66699 18.834 -8 24.501s-13 8.5 -23 8.5c-18 0 -46 -14 -84 -42c-66 -47.333 -113.5 -93.166 -142.5 -137.499s-53.833 -111.833 -74.5 -202.5l-77 -338h-143l113 477c33.333 138 50 213 50 225c0 15.333 -6 23 -18 23
c-26 0 -79 -38 -159 -114z" />
    <glyph glyph-name="n" unicode="n" horiz-adv-x="942" 
d="M204 607l-33.998 34.999c85.333 81.333 153.333 135.333 204 162s94 40 130 40c14 0 25 -3 33 -9s12 -13 12 -21c0 -6 -1.66699 -16.667 -5 -32l-45 -201c68 75.333 153.333 145.666 256 210.999c54.667 34 99.667 51 135 51c26 0 46.333 -8.33301 61 -25
s22 -40.667 22 -72c0 -20.667 -3 -44 -9 -70c-10.667 -43.333 -38.667 -137.666 -84 -282.999c-42.667 -136 -64 -226.333 -64 -271c0 -13.333 2 -23.333 6 -30s9.66699 -10 17 -10c19.333 0 49.666 18.667 90.999 56c29.333 26.667 58.666 51.334 87.999 74.001l25 -36
c-61.333 -68 -125 -122.667 -191 -164c-42 -26.667 -76.667 -40 -104 -40c-25.333 0 -45 9.16699 -59 27.5s-21 48.166 -21 89.499c0 59.333 37 207 111 443c22.667 84 34 133 34 147c0 20.667 -12.333 31 -37 31c-26.667 0 -61 -14 -103 -42
c-62.667 -41.333 -115 -90 -157 -146c-26.667 -36 -49 -93.333 -67 -172l-81 -349h-149c28 100 52.333 195.667 73 287l89 380c3.33301 15.333 5 26.333 5 33c0 18 -6.66699 27 -20 27c-10.667 0 -26 -7 -46 -21c-41.333 -27.333 -80 -60.666 -116 -99.999z" />
    <glyph glyph-name="o" unicode="o" horiz-adv-x="819" 
d="M670 841c65.333 0 119.667 -26.001 163 -78.001s65 -124.333 65 -217c0 -148 -52 -280.833 -156 -398.5s-214 -176.5 -330 -176.5c-71.333 0 -128.833 23.333 -172.5 70s-65.5 110.334 -65.5 191.001c0 140 40 269.333 120 388c100.667 147.333 226 221 376 221z
M585.001 765.999c-56.667 0 -111.5 -40.5 -164.5 -121.5s-79.5 -192.833 -79.5 -335.5c0 -86.667 16.333 -155 49 -205c24 -36.667 56 -55 96 -55c56 0 107 34.667 153 104c58.667 90 88 201.667 88 335c0 100 -13.5 171.333 -40.5 214s-60.833 64 -101.5 64z" />
    <glyph glyph-name="p" unicode="p" 
d="M189 593l-39.002 39.999c60.667 72.667 121 126.334 181 161.001s112 52 156 52c16.667 0 29.834 -4.16699 39.501 -12.5s14.5 -20.5 14.5 -36.5c0 -19.333 -2.16699 -39.166 -6.5 -59.499s-17.833 -68.5 -40.5 -144.5c102 102 171.667 165 209 189
c62.667 40.667 120 61 172 61c34 0 62.667 -16 86 -48s35 -80.333 35 -145c0 -161.333 -50.333 -314.666 -151 -459.999s-212 -218 -334 -218c-48 0 -96 13 -144 39l-85 -330c-5.33301 -20 -8 -36.333 -8 -49c0 -24.667 9.33301 -42.334 28 -53.001
c28.667 -16.667 89 -30.334 181 -41.001l-13 -50c-107.333 8.66699 -191.666 13 -252.999 13c-63.333 0 -145.333 -4.33301 -246 -13l13 50c50.667 5.33301 87.5 19.333 110.5 42s41.5 63 55.5 121l181 759c34 141.333 51 220 51 236c0 17.333 -8.33301 26 -25 26
c-29.333 0 -85.333 -43 -168 -129zM390.998 120.999c52.667 -52.667 106.667 -79.001 162 -79.001c80 0 150.167 62.333 210.5 187s90.5 246.334 90.5 365.001c0 38 -8.5 66.833 -25.5 86.5s-39.833 29.5 -68.5 29.5c-32 0 -68 -15.667 -108 -47
c-62 -48.667 -109.333 -97 -142 -145c-23.333 -34.667 -45.333 -94.667 -66 -180z" />
    <glyph glyph-name="q" unicode="q" horiz-adv-x="819" 
d="M892 879h68.998c-35.333 -104.667 -81.666 -274 -138.999 -508l-173 -724c-2.66699 -14.667 -4 -28.334 -4 -41.001c0 -18 6.83301 -31.833 20.5 -41.5s51.834 -19.167 114.501 -28.5l-17 -55c-68.667 13.333 -139 20 -211 20c-66 0 -156.333 -6.66699 -271 -20l13 55
c62.667 4.66699 106.834 13.667 132.501 27s46.5 34 62.5 62s34.333 84.333 55 169l97 412c-66 -76.667 -137.333 -137.667 -214 -183c-58 -34.667 -108 -52 -150 -52c-33.333 0 -61.833 15.833 -85.5 47.5s-35.5 77.834 -35.5 138.501c0 149.333 60.667 301.5 182 456.5
s256.666 232.5 405.999 232.5c31.333 0 69 -4.66699 113 -14zM762.998 711c-48 13.333 -89.998 20 -125.998 20c-58.667 0 -110.834 -17.333 -156.501 -52s-86.834 -97.5 -123.501 -188.5s-55 -180.167 -55 -267.5c0 -38.667 8.66699 -68.667 26 -90s39 -32 65 -32
c23.333 0 53 12.667 89 38c66.667 46.667 117 95 151 145c24 34.667 48 101 72 199z" />
    <glyph glyph-name="r" unicode="r" horiz-adv-x="614" 
d="M359 0l-149 0.00195312l70 269c34 132 63.667 257.333 89 376c6 29.333 9 47.666 9 54.999c0 16 -7.33301 24 -22 24c-10 0 -25.333 -6.83301 -46 -20.5s-58 -47.5 -112 -101.5l-31 35c64 68.667 127.833 120.167 191.5 154.5s112.5 51.5 146.5 51.5
c12 0 21.5 -2.83301 28.5 -8.5s10.5 -12.834 10.5 -21.501s-4.33301 -31.667 -13 -69l-43 -179c67.333 106 143.333 196.667 228 272c40.667 36 74.667 54 102 54c20 0 36.667 -6.5 50 -19.5s20 -28.167 20 -45.5c0 -18 -6.5 -33.333 -19.5 -46s-45.5 -27.667 -97.5 -45
c-49.333 -16.667 -89.5 -36.667 -120.5 -60s-65 -59 -102 -107s-62.833 -89.833 -77.5 -125.5s-37 -118.5 -67 -248.5z" />
    <glyph glyph-name="s" unicode="s" horiz-adv-x="655" 
d="M613 842c59.333 0 105.167 -11.4961 137.5 -34.4961s48.5 -49.5 48.5 -79.5c0 -18 -6.83301 -33.667 -20.5 -47s-30.167 -20 -49.5 -20c-12.667 0 -23.667 2.83301 -33 8.5s-22.666 19.834 -39.999 42.501c-32.667 43.333 -65 65 -97 65
c-27.333 0 -51.5 -10.5 -72.5 -31.5s-31.5 -47.167 -31.5 -78.5c0 -27.333 6.66699 -53.833 20 -79.5s47 -67.167 101 -124.5c74 -78.667 111 -153.334 111 -224.001s-30 -132.5 -90 -185.5s-137.333 -79.5 -232 -79.5c-79.333 0 -138.333 16.167 -177 48.5
s-58 72.166 -58 119.499c0 23.333 7.33301 42.666 22 57.999s32.667 23 54 23c18.667 0 34.667 -6.16699 48 -18.5s20 -26.833 20 -43.5c0 -6.66699 -0.666992 -15.334 -2 -26.001c-0.666992 -8.66699 -1 -16 -1 -22c0 -22 9.33301 -40.667 28 -56
c18 -15.333 42.667 -23 74 -23c36 0 67.667 6.16699 95 18.5s48.666 31 63.999 56s23 49.833 23 74.5c0 24 -7.16699 48 -21.5 72s-46.5 63.667 -96.5 119c-69.333 77.333 -104 151.666 -104 222.999c0 65.333 26.333 122.5 79 171.5s119.667 73.5 201 73.5z" />
    <glyph glyph-name="t" unicode="t" horiz-adv-x="655" 
d="M454 995l158.999 61l-72 -280h207l-16 -71h-207l-88 -335c-27.333 -100.667 -41 -170.667 -41 -210c0 -18 3.83301 -31 11.5 -39s18.167 -12 31.5 -12c20.667 0 52.334 12.333 95.001 37c56 32.667 109.333 69.667 160 111l38 -46c-146 -110 -243.667 -177.333 -293 -202
s-89 -37 -119 -37c-24.667 0 -44.167 9 -58.5 27s-21.5 47.333 -21.5 88c0 48 12.667 121.333 38 220l103 398h-162l18 71h161z" />
    <glyph glyph-name="u" unicode="u" horiz-adv-x="942" 
d="M850 814l141.999 0.000976562l-94 -349c-55.333 -202.667 -83 -318 -83 -346c0 -12.667 3 -22.334 9 -29.001s12.667 -10 20 -10c11.333 0 24.666 5 39.999 15c22 15.333 63.667 54 125 116l33 -37c-134 -139.333 -232.667 -209 -296 -209
c-21.333 0 -39.5 8.16699 -54.5 24.5s-22.5 39.5 -22.5 69.5c0 34.667 7.33301 81 22 139c-59.333 -68 -132.666 -127.667 -219.999 -179c-58 -34 -108.333 -51 -151 -51c-23.333 0 -41.666 7.66699 -54.999 23s-20 39.666 -20 72.999c0 26 3 54 9 84
c8.66699 42 30.667 126.333 66 253c44.667 160.667 67 257 67 289c0 18.667 -6.66699 28 -20 28c-12 0 -28.333 -6.16699 -49 -18.5s-56 -42.166 -106 -89.499l-44 35c89.333 80 157.5 132.5 204.5 157.5s84.833 37.5 113.5 37.5c16 0 29 -5.83301 39 -17.5
s15 -29.834 15 -54.501c0 -46 -24 -159 -72 -339c-42.667 -162 -64 -254.333 -64 -277c0 -14 4.5 -26 13.5 -36s18.833 -15 29.5 -15c37.333 0 90.333 30.833 159 92.5s113.667 131.834 135 210.501z" />
    <glyph glyph-name="v" unicode="v" 
d="M635 746c-51.333 -82 -86.833 -154.336 -106.5 -217.003s-29.5 -125 -29.5 -187c0 -57.333 12.667 -147 38 -269c147.333 112 251.666 216.833 312.999 314.5s92 181.834 92 252.501c0 20.667 -7.66699 46.667 -23 78c-16.667 33.333 -25 58 -25 74
c0 17.333 6 32.5 18 45.5s26.333 19.5 43 19.5c22 0 39.667 -9.5 53 -28.5s20 -51.167 20 -96.5c0 -142 -50.333 -280.333 -151 -415c-123.333 -165.333 -279.666 -292.666 -468.999 -381.999c-4.66699 31.333 -14 81.333 -28 150c-27.333 138 -41 234 -41 288
c0 71.333 16.667 140.5 50 207.5s82.666 125.167 147.999 174.5c-117.333 -2 -201.333 -15 -252 -39c-36 -17.333 -54 -37.666 -54 -60.999c0 -9.33301 4.66699 -25 14 -47c6 -15.333 9 -28.333 9 -39s-4.5 -20.167 -13.5 -28.5s-20.167 -12.5 -33.5 -12.5
c-17.333 0 -32 7.33301 -44 22s-18 34.334 -18 59.001c0 39.333 13 74.833 39 106.5s71 56.5 135 74.5s148.667 26.333 254 25c42.667 18.667 69.667 28 81 28c10.667 0 20.334 -4.33301 29.001 -13s13 -18 13 -28c0 -20.667 -20.333 -39.334 -61 -56.001z" />
    <glyph glyph-name="w" unicode="w" horiz-adv-x="1393" 
d="M587 813c30.667 21.333 53.999 32 69.999 32c12.667 0 23 -4.16699 31 -12.5s12 -18.5 12 -30.5c0 -26 -19.667 -44 -59 -54l-77 -151c-19.333 -42 -33.833 -84 -43.5 -126s-14.5 -85 -14.5 -129c0 -55.333 13.333 -144 40 -266c102.667 68 198.334 159 287.001 273
c-0.666992 28.667 -1 49.667 -1 63c0 146.667 21.667 262.334 65 347.001c28.667 56 60.334 84 95.001 84c20.667 0 37.834 -8.83301 51.501 -26.5s20.5 -43.834 20.5 -78.501c0 -28 -5.33301 -60.333 -16 -97c-18 -60 -39.333 -115 -64 -165
c0 -168 12.667 -301.333 38 -400c80 54.667 157.667 123.334 233 206.001c55.333 60.667 97.333 123.834 126 189.501s43 119.5 43 161.5c0 20.667 -7.33301 47.334 -22 80.001c-16.667 38 -25 65.667 -25 83s6.33301 32.166 19 44.499s28 18.5 46 18.5
c22 0 39.5 -10.5 52.5 -31.5s19.5 -58.5 19.5 -112.5c0 -137.333 -59.667 -281.333 -179 -432s-265 -267 -437 -349c-21.333 72.667 -41 180.667 -59 324c-90.667 -90.667 -147 -145 -169 -163c-44 -36.667 -86.5 -67.834 -127.5 -93.501s-84.833 -48.167 -131.5 -67.5
c-4.66699 38 -15.334 99.333 -32.001 184c-23.333 119.333 -35 204.666 -35 255.999c0 69.333 16.833 137.5 50.5 204.5s84.167 125.833 151.5 176.5c-120.667 -3.33301 -206.667 -17.333 -258 -42c-34.667 -16.667 -52 -36.667 -52 -60c0 -8.66699 4 -22.667 12 -42
c7.33301 -18 11 -31.333 11 -40c0 -12 -4.33301 -22.333 -13 -31s-19.667 -13 -33 -13c-17.333 0 -32 7.66699 -44 23s-18 37 -18 65c0 53.333 24 96.666 72 129.999c69.333 48.667 190.666 71.334 363.999 68.001z" />
    <glyph glyph-name="x" unicode="x" horiz-adv-x="860" 
d="M268 639l-29 40c70.667 60 132.334 104 185.001 132c35.333 19.333 61.666 29 78.999 29c25.333 0 45.666 -12.667 60.999 -38c22 -36 43.667 -114.667 65 -236c82.667 121.333 155.667 205 219 251s116.333 69 159 69c22 0 39.667 -6.33301 53 -19
s20 -28.334 20 -47.001c0 -20.667 -9.33301 -37.667 -28 -51c-13.333 -9.33301 -49.666 -16 -108.999 -20c-48.667 -2.66699 -91.334 -19 -128.001 -49c-58.667 -48.667 -115.334 -119.667 -170.001 -213l64 -299c27.333 -131.333 56 -228.666 86 -291.999
s66.667 -112 110 -146c24.667 -19.333 52 -29 82 -29c42.667 0 73.667 26 93 78c12.667 34 33 51 61 51c13.333 0 25 -5.5 35 -16.5s15 -24.833 15 -41.5c0 -32.667 -18.5 -62.667 -55.5 -90s-84.5 -41 -142.5 -41c-64 0 -125.167 20.167 -183.5 60.5
s-108.666 105 -150.999 194s-81.5 230.5 -117.5 424.5l-64 -90c-84 -118.667 -149 -195 -195 -229s-90 -51 -132 -51c-29.333 0 -53.666 8.16699 -72.999 24.5s-29 35.833 -29 58.5c0 18.667 6.33301 34.834 19 48.501s27.334 20.5 44.001 20.5c17.333 0 35 -11.333 53 -34
c15.333 -20 30 -30 44 -30c9.33301 0 19.666 3 30.999 9c16.667 9.33301 39 29.333 67 60c40 43.333 70.667 80.666 92 111.999l124 183l-41 187c-10.667 50.667 -21.5 83.167 -32.5 97.5s-23.167 21.5 -36.5 21.5c-10 0 -24 -5.33301 -42 -16
c-38.667 -22 -72.667 -46.333 -102 -73z" />
    <glyph glyph-name="y" unicode="y" horiz-adv-x="819" 
d="M171 638l-31.998 46.999l74 50c72 49.333 122.667 81 152 95c16.667 8 32 12 46 12s27.333 -8 40 -24c58.667 -74 108 -173.833 148 -299.5s60 -247.5 60 -365.5c0 -15.333 -0.666992 -38.666 -2 -69.999c112.667 207.333 169 372 169 494c0 25.333 -5.66699 59 -17 101
c-12 46.667 -18 80 -18 100c0 19.333 6.16699 35.333 18.5 48s27.833 19 46.5 19c23.333 0 42.166 -9 56.499 -27s21.5 -43.667 21.5 -77c0 -86 -19.667 -193.167 -59 -321.5s-101.166 -266.333 -185.499 -414s-161.333 -257.334 -231 -329.001s-137 -123 -202 -154
s-126.5 -46.5 -184.5 -46.5c-44 0 -77.167 8.16699 -99.5 24.5s-33.5 35.833 -33.5 58.5c0 20 8.66699 37.167 26 51.5s40.666 21.5 69.999 21.5c22.667 0 53.667 -4.33301 93 -13c42 -9.33301 70.667 -14 86 -14c40.667 0 83.667 17 129 51
c62 46.667 111.167 102.334 147.5 167.001s54.5 130 54.5 196c0 92.667 -13.5 204 -40.5 334s-65.167 229.333 -114.5 298c-24.667 35.333 -51 53 -79 53c-32.667 0 -79.334 -22 -140.001 -66z" />
    <glyph glyph-name="z" unicode="z" 
d="M806 737c-60.667 -16.667 -116.334 -24.999 -167.001 -24.999c-28 0 -59 1.66699 -93 5c-47.333 5.33301 -79 8 -95 8c-20 0 -35.333 -4.66699 -46 -14s-16 -21.333 -16 -36c0 -22.667 12 -35 36 -37c30 -3.33301 45 -17 45 -41c0 -11.333 -4.66699 -21.5 -14 -30.5
s-20 -13.5 -32 -13.5c-24 0 -46.167 11.833 -66.5 35.5s-30.5 53.167 -30.5 88.5c0 45.333 19 84.333 57 117s85 49 141 49c29.333 0 69 -4 119 -12c80.667 -12.667 138.667 -19 174 -19c36 0 69.667 12 101 36c14.667 10.667 26.667 16 36 16c8 0 14.833 -2.5 20.5 -7.5
s8.5 -9.83301 8.5 -14.5c0 -6.66699 -3.66699 -14 -11 -22c-22.667 -28 -74.334 -80.667 -155.001 -158l-310 -297l-226 -210c38 4 67.667 6 89 6c30 0 57.333 -2.5 82 -7.5s64.334 -16.5 119.001 -34.5c71.333 -24.667 129.333 -37 174 -37c28 0 49.5 6.5 64.5 19.5
s22.5 29.5 22.5 49.5c0 11.333 -5.33301 27.333 -16 48c-9.33301 20 -14 35.333 -14 46c0 16 5.33301 29.667 16 41s24 17 40 17c19.333 0 35.5 -7.83301 48.5 -23.5s19.5 -35.834 19.5 -60.501c0 -37.333 -13.667 -76.5 -41 -117.5s-61.666 -72.5 -102.999 -94.5
s-92.333 -33 -153 -33c-50 0 -123 14.333 -219 43c-80 23.333 -138.667 35 -176 35c-22.667 0 -49 -12 -79 -36c-17.333 -14.667 -32.333 -22 -45 -22c-24.667 0 -37 6 -37 18c0 11.333 7 25 21 41c37.333 44 132 135 284 273l270 255z" />
    <glyph glyph-name="braceleft" unicode="{" horiz-adv-x="491" 
d="M862 1378l-7.99609 -34.002c-86.667 -7.33301 -147 -32 -181 -74c-44.667 -56.667 -86.334 -174.667 -125.001 -354c-32 -152.667 -52.333 -240.667 -61 -264c-16 -44.667 -36 -79 -60 -103c-18 -18 -43.667 -31.667 -77 -41c46 -28 69 -65.333 69 -112
c0 -19.333 -2.66699 -42 -8 -68c-2.66699 -17.333 -19.334 -84.333 -50.001 -201c-33.333 -126.667 -52.833 -206.167 -58.5 -238.5s-8.5 -61.166 -8.5 -86.499c0 -34.667 13.667 -63.334 41 -86.001s68.333 -35 123 -37l-8 -38c-103.333 2 -174.5 17.167 -213.5 45.5
s-58.5 67.833 -58.5 118.5c0 55.333 24.667 175 74 359c34.667 132.667 52 211.334 52 236.001c0 29.333 -6.83301 52.5 -20.5 69.5s-38.834 29.833 -75.501 38.5c39.333 4.66699 71.5 16.667 96.5 36s42.833 42 53.5 68c7.33301 18.667 28.333 101.667 63 249
c41.333 174.667 69.666 282.334 84.999 323.001c24 64.667 61.5 112.667 112.5 144s132.167 48 243.5 50z" />
    <glyph glyph-name="bar" unicode="|" horiz-adv-x="1065" 
d="M667 -499v1907h111v-1907h-111z" />
    <glyph glyph-name="braceright" unicode="}" horiz-adv-x="491" 
d="M-78 -359l6.99902 34.001c87.333 7.33301 147.666 32 180.999 74c45.333 56 87 174 125 354c32.667 152.667 53.334 240.667 62.001 264c16 44.667 36 79 60 103c18 17.333 43.667 31 77 41c-46 27.333 -69 64.666 -69 111.999c0 19.333 2.33301 42 7 68
c3.33301 17.333 20.333 84 51 200c32.667 126.667 52 206.334 58 239.001s9 61.334 9 86.001c0 35.333 -13.667 64.166 -41 86.499s-68.333 34.833 -123 37.5l8 38c103.333 -2.66699 174.5 -18 213.5 -46s58.5 -67.333 58.5 -118c0 -55.333 -24.667 -175 -74 -359
c-35.333 -132.667 -53 -211.334 -53 -236.001c0 -29.333 7 -52.5 21 -69.5s39 -29.833 75 -38.5c-38.667 -4.66699 -70.667 -16.667 -96 -36s-43 -42 -53 -68c-7.33301 -18.667 -28.333 -101.667 -63 -249c-41.333 -174.667 -69.666 -282.667 -84.999 -324
c-24 -64 -61.5 -111.667 -112.5 -143s-132.167 -48 -243.5 -50z" />
    <glyph glyph-name="asciitilde" unicode="~" horiz-adv-x="1065" 
d="M1104 734l62.002 -68.998c-40.667 -70.667 -81.5 -120.334 -122.5 -149.001s-82.5 -43 -124.5 -43c-18 0 -38.5 3.16699 -61.5 9.5s-81.5 28.166 -175.5 65.499c-73.333 29.333 -124 44 -152 44c-33.333 0 -63.833 -10.667 -91.5 -32s-59.5 -63.333 -95.5 -126l-62 72
c47.333 80.667 89.666 134.667 126.999 162s78.333 41 123 41c41.333 0 113.333 -21.333 216 -64c90 -36.667 147.667 -55 173 -55c65.333 0 126.666 48 183.999 144z" />
    <glyph glyph-name="nonbreakingspace" unicode="&#xa0;" horiz-adv-x="450" 
 />
    <glyph glyph-name="exclamdown" unicode="&#xa1;" horiz-adv-x="573" 
d="M465 596c-25.333 0 -47 9.66699 -65 29s-27 44 -27 74c0 44 10.333 78.167 31 102.5s46.667 36.5 78 36.5c26 0 47.833 -9.16699 65.5 -27.5s26.5 -41.5 26.5 -69.5c0 -42 -12.333 -78.667 -37 -110c-18 -23.333 -42 -35 -72 -35zM411 482l59 0.000976562
c-44 -318.667 -75.333 -588 -94 -808c-0.666992 -13.333 -3.66699 -22.333 -9 -27c-10 -10 -29 -18.333 -57 -25c-45.333 -12 -77 -18 -95 -18c-14.667 0 -22 7 -22 21c0 9.33301 2.66699 21.666 8 36.999c8.66699 25.333 38 134 88 326z" />
    <glyph glyph-name="cent" unicode="&#xa2;" 
d="M856 827c41.333 -17.333 62.001 -44.668 62.001 -82.001c0 -21.333 -7.16699 -38.333 -21.5 -51s-34.5 -19 -60.5 -19c-16.667 0 -36.334 6 -59.001 18l-327 -555c13.333 -39.333 43.333 -59 90 -59c18 0 41.333 4.33301 70 13s57.667 21.667 87 39s68 45.333 116 84
l23 -58l-92 -61c-64 -43.333 -115.667 -73.333 -155 -90c-58 -23.333 -110.667 -35 -158 -35c-22.667 0 -46 5.33301 -70 16l-174 -296h-64l194 330c-34 42 -51 101.333 -51 178c0 100.667 28.5 206.834 85.5 318.501s125.5 196.5 205.5 254.5c62 46 132.667 69 212 69
c10 0 19.333 -0.666992 28 -2l127 216h66zM427.001 208.998l300 510.999c-27.333 14 -51 21 -71 21c-32.667 0 -64.167 -13.667 -94.5 -41s-61.333 -87.166 -93 -179.499s-47.5 -175.833 -47.5 -250.5c0 -16.667 2 -37 6 -61z" />
    <glyph glyph-name="sterling" unicode="&#xa3;" horiz-adv-x="983" 
d="M797 552l-22.999 -62.998h-232c-42.667 -162.667 -93.667 -288.334 -153 -377.001c37.333 7.33301 68.333 11 93 11c35.333 0 91.333 -6.33301 168 -19c72.667 -12 123.334 -18 152.001 -18c38.667 0 70.167 13 94.5 39s41.833 70.667 52.5 134h55
c-8.66699 -104.667 -31.667 -178.167 -69 -220.5s-91.666 -63.5 -162.999 -63.5c-35.333 0 -79 2.66699 -131 8c-137.333 15.333 -227.333 23 -270 23c-68.667 0 -157.334 -11.333 -266.001 -34l6 56c66.667 17.333 110.834 33.5 132.501 48.5s39.5 36.167 53.5 63.5
s30.667 86.666 50 177.999c6.66699 32 20.667 89 42 171h-171l18 63h170c69.333 245.333 162.666 430 279.999 554c87.333 92.667 189.666 139 306.999 139c56 0 95 -6.83301 117 -20.5s33 -31.5 33 -53.5c0 -17.333 -5.83301 -31.5 -17.5 -42.5
s-25.834 -16.5 -42.501 -16.5c-8.66699 0 -21 2 -37 6c-73.333 18 -130 27 -170 27c-66 0 -119 -39 -159 -117c-58 -113.333 -111 -272 -159 -476h239z" />
    <glyph glyph-name="currency" unicode="&#xa4;" horiz-adv-x="1229" 
d="M363 225l99.002 97.001c-34 46.667 -57.667 90.167 -71 130.5s-20 84.166 -20 131.499c0 52 7.66699 101.667 23 149c11.333 35.333 34 75 68 119l-99 98l75 77l99 -99c41.333 31.333 84.666 54.833 129.999 70.5s92.666 23.5 141.999 23.5c45.333 0 89.333 -7 132 -21
s87 -38.333 133 -73l98 99l74 -77l-97 -98c34.667 -45.333 59.167 -88.833 73.5 -130.5s21.5 -87.167 21.5 -136.5s-7.16699 -94.5 -21.5 -135.5s-38.833 -83.5 -73.5 -127.5l97 -97l-74 -77l-98 98c-44.667 -35.333 -88.5 -60.5 -131.5 -75.5s-87.833 -22.5 -134.5 -22.5
c-49.333 0 -95.333 7.33301 -138 22s-87 40 -133 76l-99 -98zM807.002 905.001c-88 0 -163.167 -31.167 -225.5 -93.5s-93.5 -137.833 -93.5 -226.5s31.167 -164.334 93.5 -227.001s137.5 -94 225.5 -94c88.667 0 164.167 31.333 226.5 94s93.5 138.334 93.5 227.001
s-31.167 164.167 -93.5 226.5s-137.833 93.5 -226.5 93.5z" />
    <glyph glyph-name="yen" unicode="&#xa5;" horiz-adv-x="1475" 
d="M971 621c-4 94.667 -22.8369 186.168 -56.5039 274.501s-75.5 159.833 -125.5 214.5c-98 -36 -168.167 -69.833 -210.5 -101.5s-76.333 -70.5 -102 -116.5s-38.5 -86.333 -38.5 -121c0 -34 15.333 -65.667 46 -95c26 -25.333 39 -47.666 39 -66.999
c0 -17.333 -5.16699 -31.666 -15.5 -42.999s-23.166 -17 -38.499 -17c-27.333 0 -50.333 13.333 -69 40c-25.333 36.667 -38 80.667 -38 132c0 74 20.667 143.667 62 209s99 120 173 164c43.333 26 114.666 53.667 213.999 83c36.667 10.667 69.667 21.667 99 33
c56 -67.333 101 -146.5 135 -237.5s57.333 -203.833 70 -338.5c124 260 242.167 442.833 354.5 548.5s203.833 158.5 274.5 158.5c22 0 40 -6.33301 54 -19s21 -28.334 21 -47.001c0 -19.333 -8.16699 -35 -24.5 -47s-48.166 -19.667 -95.499 -23
c-49.333 -3.33301 -90 -15.666 -122 -36.999c-56 -36.667 -120.667 -103.834 -194 -201.501s-142.666 -212.834 -207.999 -345.501h292l-16 -58h-303c-9.33301 -20.667 -22.333 -55.334 -39 -104.001h316l-15 -61h-323c-41.333 -138 -68 -255 -80 -351
c31.333 -5.33301 62.333 -8 93 -8c46.667 0 98 6.66699 154 20l-21 -59c-41.333 -10.667 -76.666 -16 -105.999 -16c-31.333 0 -72.666 2.66699 -123.999 8c-48.667 5.33301 -87.334 8 -116.001 8c-40.667 -0 -103 -4.66699 -187 -14l17 51c62.667 16 100.667 32 114 48
c18.667 21.333 39.667 75.666 63 162.999l40 150h-314l16 61h313c10.667 42.667 17.334 77.334 20.001 104.001h-307l14 58h295z" />
    <glyph glyph-name="brokenbar" unicode="&#xa6;" horiz-adv-x="1065" 
d="M667 516v892h111v-837zM667 -499v837l111 55v-892h-111z" />
    <glyph glyph-name="section" unicode="&#xa7;" horiz-adv-x="860" 
d="M913 1411c74 0 131.502 -15.332 172.502 -45.999s61.5 -65 61.5 -103c0 -16.667 -6.16699 -30.834 -18.5 -42.501s-27.5 -17.5 -45.5 -17.5c-13.333 0 -24.833 3 -34.5 9s-22.5 19.333 -38.5 40c-46.667 62.667 -96.667 94 -150 94c-44 0 -80.333 -17.333 -109 -52
s-43 -87 -43 -157c0 -42.667 3.33301 -86.334 10 -131.001s22 -118.667 46 -222c36.667 -161.333 55 -292.666 55 -393.999c0 -238 -76.333 -432 -229 -582c-119.333 -116.667 -250.333 -175 -393 -175c-79.333 0 -146 17 -200 51c-38 24 -57 52.667 -57 86
c0 18 5.66699 33 17 45s24.333 18 39 18c11.333 0 21.5 -2.16699 30.5 -6.5s29.167 -18.833 60.5 -43.5c68.667 -53.333 127 -80 175 -80c55.333 0 100.833 25 136.5 75s53.5 128 53.5 234c0 50 -2 93.333 -6 130c-2 16 -15.333 85.667 -40 209
c-28 143.333 -44.333 232.666 -49 267.999c-6 48 -9 93 -9 135c0 114 28.167 224.833 84.5 332.5s126.166 188.834 209.499 243.501s173.666 82 270.999 82zM664.002 1276c-77.333 -76 -132.667 -154.998 -166 -236.998s-50 -173.333 -50 -274
c0 -39.333 2.5 -79.833 7.5 -121.5s18.5 -120.834 40.5 -237.501c20.667 -108 32.667 -177.333 36 -208c5.33301 -49.333 8 -98 8 -146c0 -82.667 -19.333 -172.334 -58 -269.001c85.333 80 146 163.833 182 251.5s54 193.167 54 316.5
c0 58.667 -2.33301 110.334 -7 155.001c-2 20 -14 84 -36 192c-25.333 122 -40 200.667 -44 236c-6 51.333 -9 102 -9 152c0 63.333 14 126.666 42 189.999z" />
    <glyph glyph-name="dieresis" unicode="&#xa8;" horiz-adv-x="737" 
d="M532 1147c25.333 0 47.166 -9 65.499 -27s27.5 -40 27.5 -66c0 -25.333 -9.16699 -47.166 -27.5 -65.499s-40.166 -27.5 -65.499 -27.5s-47.166 9.16699 -65.499 27.5s-27.5 40.166 -27.5 65.499c0 26 9.16699 48 27.5 66s40.166 27 65.499 27zM821 1146
c26 0 48 -9 66 -27s27 -39.667 27 -65c0 -26 -9 -48 -27 -66s-40 -27 -66 -27c-25.333 0 -47 9 -65 27s-27 40 -27 66c0 25.333 9 47 27 65s39.667 27 65 27z" />
    <glyph glyph-name="copyright" unicode="&#xa9;" horiz-adv-x="1515" 
d="M920 1411c131.333 0 253.666 -32.667 366.999 -98s202.833 -154.666 268.5 -267.999s98.5 -235.666 98.5 -366.999s-32.833 -253.666 -98.5 -366.999s-155.167 -202.666 -268.5 -267.999s-235.666 -98 -366.999 -98c-130.667 0 -252.667 32.667 -366 98
s-202.833 154.666 -268.5 267.999s-98.5 235.666 -98.5 366.999s32.833 253.666 98.5 366.999s155.167 202.666 268.5 267.999s235.333 98 366 98zM920 1338c-117.333 0 -227.166 -29.5 -329.499 -88.5s-182.833 -139.5 -241.5 -241.5s-88 -212 -88 -330
s29.333 -228 88 -330s139.167 -182.5 241.5 -241.5s212.166 -88.5 329.499 -88.5c118 0 228.167 29.5 330.5 88.5s182.833 139.5 241.5 241.5s88 212 88 330s-29.333 228 -88 330s-139.167 182.5 -241.5 241.5s-212.5 88.5 -330.5 88.5zM1271 1134l20 -280h-39
c-24 78.667 -62 137.667 -114 177s-115 59 -189 59c-62.667 0 -118.5 -15.5 -167.5 -46.5s-86.833 -75.167 -113.5 -132.5s-40 -127.333 -40 -210c0 -139.333 29.833 -243 89.5 -311s140.167 -102 241.5 -102c130 0 234 54 312 162l37 -19
c-92.667 -135.333 -220.334 -203 -383.001 -203c-132.667 0 -243 43 -331 129s-132 191 -132 315c0 129.333 47 238.833 141 328.5s213 134.5 357 134.5c30.667 0 56.167 -2 76.5 -6s56.5 -14.667 108.5 -32c16.667 -5.33301 29.334 -8 38.001 -8c20 0 36 15 48 45h40z" />
    <glyph glyph-name="ordfeminine" unicode="&#xaa;" horiz-adv-x="532" 
d="M661 1206l67.999 12.998l-53 -165c-18.667 -57.333 -37 -126.666 -55 -207.999c-9.33301 -42 -14 -69.667 -14 -83c0 -6 2.33301 -9 7 -9s12.667 3.66699 24 11c32 20 60.333 41 85 63l32 -36c-96 -86.667 -174.333 -130 -235 -130
c-15.333 0 -26.666 3.16699 -33.999 9.5s-11 14.833 -11 25.5c0 6 1.66699 15.333 5 28l13 40c-79.333 -68 -145.333 -102 -198 -102c-28.667 0 -51.667 10.333 -69 31s-26 50.334 -26 89.001c0 62 25.5 131 76.5 207s110.167 130.667 177.5 164c43.333 21.333 96 32 158 32
c12 0 23.667 -0.333008 35 -1zM576.999 1105c-17.333 2.66699 -33 4 -47 4c-54 0 -98.333 -22.667 -133 -68c-50 -66 -75 -138 -75 -216c0 -24.667 4 -42.5 12 -53.5s18 -16.5 30 -16.5c28 0 57.833 14.5 89.5 43.5s55.5 71.167 71.5 126.5z" />
    <glyph glyph-name="guillemotleft" unicode="&#xab;" horiz-adv-x="696" 
d="M556 411c18.667 -25.333 48.002 -74.3311 88.002 -146.998c27.333 -50 47.333 -93.667 60 -131c8 -24.667 12 -41.667 12 -51c0 -19.333 -9.66699 -29 -29 -29c-16 0 -30 13.333 -42 40c-26.667 60 -101.667 167.667 -225 323l194 175
c59.333 56.667 96.166 92.5 110.499 107.5s25.166 27.5 32.499 37.5c19.333 25.333 35.666 38 48.999 38c7.33301 0 13.666 -2.83301 18.999 -8.5s8 -11.834 8 -18.501s-1.66699 -13.667 -5 -21c-7.33301 -14 -41.666 -58.333 -102.999 -133
c-41.333 -50.667 -97.666 -111.334 -168.999 -182.001zM298.002 411.002c18.667 -25.333 48.002 -74.3311 88.002 -146.998c27.333 -50 47 -93.667 59 -131c8 -24.667 12 -41.667 12 -51c0 -19.333 -9.66699 -29 -29 -29c-15.333 0 -29 13.333 -41 40
c-26.667 60 -101.667 167.667 -225 323l194 175c59.333 56.667 96.166 92.5 110.499 107.5s25.166 27.5 32.499 37.5c19.333 25.333 35.666 38 48.999 38c7.33301 0 13.666 -2.83301 18.999 -8.5s8 -11.834 8 -18.501s-1.66699 -13.667 -5 -21
c-7.33301 -14 -41.666 -58.333 -102.999 -133c-41.333 -50.667 -97.666 -111.334 -168.999 -182.001z" />
    <glyph glyph-name="logicalnot" unicode="&#xac;" horiz-adv-x="1229" 
d="M1241 815v-455h-113v342h-772v113h885z" />
    <glyph glyph-name="registered" unicode="&#xae;" horiz-adv-x="1515" 
d="M920 1411c131.333 0 253.666 -32.667 366.999 -98s202.833 -154.666 268.5 -267.999s98.5 -235.666 98.5 -366.999s-32.833 -253.666 -98.5 -366.999s-155.167 -202.666 -268.5 -267.999s-235.666 -98 -366.999 -98c-130.667 0 -252.667 32.667 -366 98
s-202.833 154.666 -268.5 267.999s-98.5 235.666 -98.5 366.999s32.833 253.666 98.5 366.999s155.167 202.666 268.5 267.999s235.333 98 366 98zM920 1338c-117.333 0 -227.166 -29.5 -329.499 -88.5s-182.833 -139.5 -241.5 -241.5s-88 -212 -88 -330
s29.333 -228 88 -330s139.167 -182.5 241.5 -241.5s212.166 -88.5 329.499 -88.5c118 0 228.167 29.5 330.5 88.5s182.833 139.5 241.5 241.5s88 212 88 330s-29.333 228 -88 330s-139.167 182.5 -241.5 241.5s-212.5 88.5 -330.5 88.5zM528 1114l386.001 0.000976562
c94.667 0 168 -21.333 220 -64s78 -96 78 -160c0 -54.667 -18.5 -100.5 -55.5 -137.5s-92.833 -65.167 -167.5 -84.5l209 -298c24 -34 46 -57.667 66 -71c13.333 -9.33301 31.666 -15 54.999 -17v-33h-183l-295 405h-76v-309c4.66699 -22.667 14.667 -38.834 30 -48.501
s44.666 -14.5 87.999 -14.5v-33h-367v33c32 0 54.833 3.83301 68.5 11.5s23.834 19.834 30.501 36.501c3.33301 9.33301 5 39.333 5 90v523c0 51.333 -1.66699 81.666 -5 90.999c-4.66699 14 -13.167 24.833 -25.5 32.5s-32.833 11.5 -61.5 11.5v36zM765.001 697.001h30.002
c87.333 0 151.666 17 192.999 51s62 77.667 62 131c0 54 -18.833 99.333 -56.5 136s-85.834 55 -144.501 55c-25.333 0 -53.333 -5.33301 -84 -16v-357z" />
    <glyph glyph-name="degree" unicode="&#xb0;" horiz-adv-x="819" 
d="M684 1197c73.333 0 136.167 -26 188.5 -78s78.5 -115.333 78.5 -190c0 -76 -26.167 -140 -78.5 -192s-115.833 -78 -190.5 -78s-138 26 -190 78s-78 116.333 -78 193c0 74 26.5 137 79.5 189s116.5 78 190.5 78zM682.001 1101c-46.667 0 -86.999 -17 -120.999 -51
s-51 -74.667 -51 -122c0 -46.667 17.167 -87.167 51.5 -121.5s75.166 -51.5 122.499 -51.5c46.667 0 86.667 16.833 120 50.5s50 74.5 50 122.5c0 48.667 -16.5 89.667 -49.5 123s-73.833 50 -122.5 50z" />
    <glyph glyph-name="plusminus" unicode="&#xb1;" horiz-adv-x="1124" 
d="M633 696v385h111v-385h387v-110h-387v-391h-111v391h-387v110h387zM1131 113v-113h-885v113h885z" />
    <glyph glyph-name="twosuperior" unicode="&#xb2;" horiz-adv-x="541" 
d="M350 1030l-49.001 21c32.667 56 66.5 95 101.5 117s75.5 33 121.5 33c50.667 0 92.334 -14.167 125.001 -42.5s49 -61.5 49 -99.5c0 -22.667 -5.16699 -45.5 -15.5 -68.5s-28.833 -48.167 -55.5 -75.5c-15.333 -16.667 -60.333 -52.667 -135 -108
c-90 -68 -152 -121 -186 -159c66 1.33301 116 2 150 2h51c20 0 33.833 2.5 41.5 7.5s23.5 24.167 47.5 57.5h66c-37.333 -44 -68 -95.667 -92 -155c-61.333 10 -126.333 15 -195 15c-37.333 0 -102 -2.66699 -194 -8l15 41c36.667 47.333 92 101 166 161
c79.333 64 132 113.333 158 148c34.667 45.333 52 86 52 122c0 28.667 -8.33301 51.667 -25 69s-38 26 -64 26c-21.333 0 -42.5 -7.16699 -63.5 -21.5s-44.167 -41.833 -69.5 -82.5z" />
    <glyph glyph-name="threesuperior" unicode="&#xb3;" horiz-adv-x="541" 
d="M373 1061l-40.9961 24.998c69.333 74 138.333 111 207 111c40 0 71.5 -8.83301 94.5 -26.5s34.5 -39.167 34.5 -64.5s-9 -50.333 -27 -75c-24.667 -34 -58.334 -64 -101.001 -90c37.333 -4 66.333 -16.833 87 -38.5s31 -48.834 31 -81.501
c0 -61.333 -34.333 -120.666 -103 -177.999s-144.667 -86 -228 -86c-40.667 0 -74.667 8.66699 -102 26c-20 12.667 -30 27 -30 43c0 10 4 18.5 12 25.5s18.667 10.5 32 10.5c15.333 0 34.666 -9.66699 57.999 -29c24.667 -20 46 -30 64 -30
c35.333 0 73.166 20.833 113.499 62.5s60.5 84.834 60.5 129.501c0 26 -7.16699 46.5 -21.5 61.5s-33.833 22.5 -58.5 22.5c-21.333 0 -49.333 -5.33301 -84 -16l7 46c52.667 16 98.667 43 138 81c26.667 26 40 52.667 40 80c0 18.667 -5.16699 33.334 -15.5 44.001
s-24.5 16 -42.5 16c-40.667 0 -82.334 -23 -125.001 -69z" />
    <glyph glyph-name="acute" unicode="&#xb4;" horiz-adv-x="614" 
d="M672 1253h190l-339 -290h-59z" />
    <glyph glyph-name="mu" unicode="&#xb5;" horiz-adv-x="1180" 
d="M1082 118l-12.002 -46.9971l-205 -84c-5.33301 -2 -10.666 -3 -15.999 -3c-14.667 0 -26 5.66699 -34 17c-10.667 16 -16 37.333 -16 64c0 15.333 2.66699 37.666 8 66.999c-44.667 -43.333 -82 -74.5 -112 -93.5s-65 -34.667 -105 -47s-71 -18.5 -93 -18.5
c-29.333 0 -54.833 8.83301 -76.5 26.5s-42.834 50.5 -63.501 98.5c-10 -50 -15.833 -85.5 -17.5 -106.5s-2.83398 -63.167 -3.50098 -126.5c0 -64.667 -10.167 -110.5 -30.5 -137.5s-46.166 -40.5 -77.499 -40.5c-20 0 -36 5.83301 -48 17.5s-18 27.5 -18 47.5
c0 25.333 13.333 69.333 40 132c58 136.667 99.333 242 124 316c32.667 97.333 64 205.666 94 324.999l66 264h157l-123 -491c-12 -49.333 -18 -84.333 -18 -105c0 -24 10 -44.5 30 -61.5s46.333 -25.5 79 -25.5s64.834 7.16699 96.501 21.5s70.834 42.166 117.501 83.499
l147 578h155l-143 -569c-4.66699 -18.667 -7 -41.334 -7 -68.001c0 -17.333 2.83301 -29.166 8.5 -35.499s16.167 -9.5 31.5 -9.5c18 0 39.667 3.66699 65 11z" />
    <glyph glyph-name="paragraph" unicode="&#xb6;" horiz-adv-x="1024" 
d="M962 1287l83.002 0.000976562l-27 -116h145l-19 -65h-144l-130 -518h202l-19 -69h-203l-111 -434c-74 -287.333 -216.667 -431 -428 -431c-66.667 0 -118.167 13.167 -154.5 39.5s-54.5 56.5 -54.5 90.5c0 17.333 6.33301 32.833 19 46.5s27 20.5 43 20.5
c23.333 0 47.333 -12 72 -36c28 -26.667 49 -43 63 -49c27.333 -10.667 52.666 -16 75.999 -16c34.667 0 70.667 11.833 108 35.5s70.666 61.667 99.999 114s57 128.166 83 227.499l100 392h-38c-116 0 -202.833 25 -260.5 75s-86.5 116.667 -86.5 200
c0 104 42.5 192.833 127.5 266.5s205.5 110.5 361.5 110.5h63zM914.002 1106c-76.667 -4 -132.833 -17.166 -168.5 -39.499s-68.5 -63 -98.5 -122s-45 -118.167 -45 -177.5c0 -52.667 20.667 -98.667 62 -138c24 -22.667 63.667 -36.334 119 -41.001z" />
    <glyph glyph-name="cedilla" unicode="&#xb8;" horiz-adv-x="614" 
d="M357 19l65.001 0.00390625l-61 -113c37.333 -5.33301 64.833 -17.833 82.5 -37.5s26.5 -42.834 26.5 -69.501c0 -46.667 -28.333 -93.834 -85 -141.501s-136.667 -79.834 -240 -96.501l19 60c61.333 12.667 110.666 35 147.999 67c26 22 39 47 39 75
c0 21.333 -8.33301 39.166 -25 53.499s-37 21.5 -61 21.5c-4 0 -9.33301 -0.333008 -16 -1z" />
    <glyph glyph-name="onesuperior" unicode="&#xb9;" horiz-adv-x="541" 
d="M651 1206l-44.999 -155.998c-21.333 -70.667 -36.666 -123.334 -45.999 -158.001l-37 -140c-21.333 -72.667 -32 -114.667 -32 -126c0 -6 2.16699 -10 6.5 -12s38.166 -6.66699 101.499 -14l-17 -37c-88 8 -149.667 12 -185 12c-48 0 -106.333 -4.66699 -175 -14l15 39
c70 12 110 21.667 120 29s20 24.333 30 51c31.333 84 57.333 169.333 78 256l25 97c4 15.333 6 26.666 6 33.999c0 6 -3.33301 9 -10 9c-8.66699 0 -49.334 -15.333 -122.001 -46l-18 39c67.333 24 119 45.5 155 64.5s73.333 43.167 112 72.5h38z" />
    <glyph glyph-name="ordmasculine" unicode="&#xba;" horiz-adv-x="532" 
d="M573 1197c48.667 0 87.667 -16.3311 117 -48.998s44 -76.334 44 -131.001c0 -90.667 -34.5 -172.5 -103.5 -245.5s-144.167 -109.5 -225.5 -109.5c-49.333 0 -89.333 15.167 -120 45.5s-46 69.5 -46 117.5c0 101.333 33.833 188.666 101.5 261.999s145.167 110 232.5 110
zM519 1139c-34 0 -67 -24 -99 -72s-48 -113.333 -48 -196c0 -48.667 9.66699 -87.667 29 -117c13.333 -21.333 31 -32 53 -32c32.667 0 65 23.667 97 71s48 109.333 48 186c0 56.667 -7.83301 97.5 -23.5 122.5s-34.5 37.5 -56.5 37.5z" />
    <glyph glyph-name="guillemotright" unicode="&#xbb;" horiz-adv-x="778" 
d="M396 417c-18.667 24.667 -47.667 73.333 -87 146c-28 50.667 -48 94.667 -60 132c-8 24 -12 40.667 -12 50c0 19.333 9.66699 29 29 29c15.333 0 29 -13.333 41 -40c26.667 -60 101.667 -167.333 225 -322l-194 -175c-59.333 -57.333 -96 -93.333 -110 -108
s-25 -27 -33 -37c-18.667 -26 -35 -39 -49 -39c-7.33301 0 -13.666 2.83301 -18.999 8.5s-8 12.167 -8 19.5c0 6 2 13 6 21c6.66699 14 40.667 58.333 102 133c41.333 50 97.666 110.667 168.999 182zM654 416.999c-18.667 24.667 -47.668 73.333 -87.001 146
c-27.333 50.667 -47.333 94.667 -60 132c-8 24 -12 40.667 -12 50c0 19.333 9.66699 29 29 29c15.333 0 29 -13.333 41 -40c27.333 -60 102.333 -167.333 225 -322l-193 -175c-60 -57.333 -97 -93.333 -111 -108s-24.667 -27 -32 -37c-19.333 -26 -36 -39 -50 -39
c-7.33301 0 -13.666 2.83301 -18.999 8.5s-8 12.167 -8 19.5c0 6 2 13 6 21c6.66699 14 40.667 58.333 102 133c42 50 98.333 110.667 169 182z" />
    <glyph glyph-name="onequarter" unicode="&#xbc;" horiz-adv-x="1352" 
d="M730 1206l-44.999 -155.998c-21.333 -70.667 -36.666 -123.334 -45.999 -158.001l-37 -140c-21.333 -72.667 -32 -114.667 -32 -126c0 -6 2.16699 -10 6.5 -12s38.166 -6.66699 101.499 -14l-17 -37c-88 8 -149.667 12 -185 12c-48 0 -106.333 -4.66699 -175 -14l15 39
c70 12 110 21.667 120 29s20 24.333 30 51c31.333 84 57.333 169.333 78 256l25 97c4 15.333 6 26.666 6 33.999c0 6 -3.33301 9 -10 9c-8.66699 0 -49.334 -15.333 -122.001 -46l-18 39c67.333 24 119 45.5 155 64.5s73.333 43.167 112 72.5h38zM473.001 -6.99805
l146.999 252l365 667l151 286c16.667 -4.66699 43.334 -9.33398 80.001 -14.001c-61.333 -99.333 -119 -198.666 -173 -297.999l-321 -585c-58.667 -106.667 -113.334 -212 -164.001 -316c-27.333 4 -55.666 6.66699 -84.999 8zM1306 218.002l-16.001 -62.999h-91l-43 -170
h-107l43 170c-108 1.33301 -185 0.666016 -231 -2.00098c-25.333 -1.33301 -38 4 -38 16c0 16 26.333 54 79 114c104.667 118 236.334 233 395.001 345h36c-4.66699 -13.333 -24.667 -79.333 -60 -198l-58 -212h91zM1107 221.003c16 61.333 39.667 145.667 71 253
c-94.667 -74 -180 -158.333 -256 -253h185z" />
    <glyph glyph-name="onehalf" unicode="&#xbd;" horiz-adv-x="1352" 
d="M725 1206l-44.999 -155.998c-21.333 -70.667 -36.666 -123.334 -45.999 -158.001l-37 -140c-21.333 -72.667 -32 -114.667 -32 -126c0 -6 2.16699 -10 6.5 -12s38.166 -6.66699 101.499 -14l-17 -37c-88 8 -149.667 12 -185 12c-48 0 -106.333 -4.66699 -175 -14l15 39
c70 12 110 21.667 120 29s20 24.333 30 51c31.333 84 57.333 169.333 78 256l25 97c4 15.333 6 26.666 6 33.999c0 6 -3.33301 9 -10 9c-8.66699 0 -49.334 -15.333 -122.001 -46l-18 39c67.333 24 119 45.5 155 64.5s73.333 43.167 112 72.5h38zM468.001 -6.99805
l146.999 252l365 667l151 286c16.667 -4.66699 43.334 -9.33398 80.001 -14.001c-61.333 -99.333 -119 -198.666 -173 -297.999l-321 -585c-58.667 -106.667 -113.334 -212 -164.001 -316c-27.333 4 -55.666 6.66699 -84.999 8zM985 457.002l-49.001 21
c32.667 56 66.5 95 101.5 117s75.5 33 121.5 33c50.667 0 92.334 -14.167 125.001 -42.5s49 -61.5 49 -99.5c0 -22.667 -5.16699 -45.5 -15.5 -68.5s-28.833 -48.167 -55.5 -75.5c-15.333 -16.667 -60.333 -52.667 -135 -108c-90 -68 -152 -121 -186 -159
c66 1.33301 116 2 150 2h51c20 0 33.833 2.5 41.5 7.5s23.5 24.167 47.5 57.5h66c-37.333 -44 -68 -95.667 -92 -155c-61.333 10 -126.333 15 -195 15c-37.333 0 -102 -2.66699 -194 -8l15 41c36.667 47.333 92 101 166 161c79.333 64 132 113.333 158 148
c34.667 45.333 52 86 52 122c0 28.667 -8.33301 51.667 -25 69s-38 26 -64 26c-21.333 0 -42.5 -7.16699 -63.5 -21.5s-44.167 -41.833 -69.5 -82.5z" />
    <glyph glyph-name="threequarters" unicode="&#xbe;" horiz-adv-x="1352" 
d="M463 1061l-40.9961 24.998c69.333 74 138.333 111 207 111c40 0 71.5 -8.83301 94.5 -26.5s34.5 -39.167 34.5 -64.5s-9 -50.333 -27 -75c-24.667 -34 -58.334 -64 -101.001 -90c37.333 -4 66.333 -16.833 87 -38.5s31 -48.834 31 -81.501
c0 -61.333 -34.333 -120.666 -103 -177.999s-144.667 -86 -228 -86c-40.667 0 -74.667 8.66699 -102 26c-20 12.667 -30 27 -30 43c0 10 4 18.5 12 25.5s18.667 10.5 32 10.5c15.333 0 34.666 -9.66699 57.999 -29c24.667 -20 46 -30 64 -30
c35.333 0 73.166 20.833 113.499 62.5s60.5 84.834 60.5 129.501c0 26 -7.16699 46.5 -21.5 61.5s-33.833 22.5 -58.5 22.5c-21.333 0 -49.333 -5.33301 -84 -16l7 46c52.667 16 98.667 43 138 81c26.667 26 40 52.667 40 80c0 18.667 -5.16699 33.334 -15.5 44.001
s-24.5 16 -42.5 16c-40.667 0 -82.334 -23 -125.001 -69zM484.004 -7.00195l146.999 252l365 667l151 286c16.667 -4.66699 43.334 -9.33398 80.001 -14.001c-61.333 -99.333 -119 -198.666 -173 -297.999l-321 -585c-58.667 -106.667 -113.334 -212 -164.001 -316
c-27.333 4 -55.666 6.66699 -84.999 8zM1318 217.998l-16.001 -62.999h-91l-43 -170h-107l43 170c-108 1.33301 -185 0.666016 -231 -2.00098c-25.333 -1.33301 -38 4 -38 16c0 16 26.333 54 79 114c104.667 118 236.334 233 395.001 345h36
c-4.66699 -13.333 -24.667 -79.333 -60 -198l-58 -212h91zM1119 220.999c16 61.333 39.667 145.667 71 253c-94.667 -74 -180 -158.333 -256 -253h185z" />
    <glyph glyph-name="questiondown" unicode="&#xbf;" horiz-adv-x="819" 
d="M682 599c-26 0 -47.833 9.83301 -65.5 29.5s-26.5 44.167 -26.5 73.5c0 44 10.167 78.167 30.5 102.5s46.5 36.5 78.5 36.5c26 0 47.667 -9.16699 65 -27.5s26 -41.5 26 -69.5c0 -42 -12.333 -78.667 -37 -110c-18 -23.333 -41.667 -35 -71 -35zM629 486
l64.999 0.00195312c-12.667 -132.667 -28 -217 -46 -253c-13.333 -26 -42.666 -46.333 -87.999 -61c-134 -44 -224.333 -91 -271 -141c-47.333 -50 -71 -104.667 -71 -164c0 -48 12.667 -86 38 -114s56.666 -42 93.999 -42c32.667 0 73.334 18.333 122.001 55
c20.667 15.333 33.667 24 39 26c8.66699 4 17.667 6 27 6c16.667 0 31.167 -6.16699 43.5 -18.5s18.5 -26.833 18.5 -43.5c0 -29.333 -17 -56.833 -51 -82.5s-76.667 -38.5 -128 -38.5c-80 0 -148 29.667 -204 89s-84 133.666 -84 222.999c0 91.333 31.667 172.333 95 243
c40.667 44.667 115 87.667 223 129c82.667 31.333 130.5 54.166 143.5 68.499s24.5 53.833 34.5 118.5z" />
    <glyph glyph-name="Agrave" unicode="&#xc0;" horiz-adv-x="1270" 
d="M1299 44l-9.99805 -57c-24 -2 -45 -3 -63 -3c-26 0 -57.333 2 -94 6c-62.667 6.66699 -102.334 10 -119.001 10c-28 0 -71 -4.33301 -129 -13c20.667 52 38 106.667 52 164c10 40.667 20.667 110.667 32 210c-78 0.666992 -199 -1 -363 -5
c-169.333 -258.667 -293.5 -421.167 -372.5 -487.5s-154.167 -99.5 -225.5 -99.5c-37.333 0 -65.166 7.16699 -83.499 21.5s-27.5 32.833 -27.5 55.5c0 17.333 5.33301 31.666 16 42.999s24 17 40 17c9.33301 0 22 -1.66699 38 -5c40 -9.33301 66.667 -14 80 -14
c44.667 0 94 25.333 148 76c88 82.667 218 256 390 520c194.667 298.667 352.334 516 473.001 652c-164.667 -14.667 -267.334 -28.667 -308.001 -42c-56 -18 -98 -44.667 -126 -80s-42 -71.333 -42 -108c0 -12 4.33301 -29 13 -51c9.33301 -24.667 14 -42.667 14 -54
c0 -14.667 -5.66699 -27.667 -17 -39s-25 -17 -41 -17c-22.667 0 -40.834 8.5 -54.501 25.5s-20.5 42.5 -20.5 76.5c0 48 12.5 94.5 37.5 139.5s60.833 82.667 107.5 113s105 53.5 175 69.5c36 8.66699 99.333 16.334 190 23.001c78.667 6.66699 128 13 148 19
c31.333 8.66699 61.333 25.667 90 51c-20 -82 -34.333 -153.667 -43 -215l-78 -578l-45 -414c49.333 -12.667 93.666 -19 132.999 -19c26 0 54.333 3 85 9zM977.002 435c32 270.667 64 468.333 96 593c-84.667 -112 -137 -182.667 -157 -212l-257 -381
c55.333 -2 134.333 -3 237 -3c25.333 0 52.333 1 81 3zM962.002 1615h167l110 -290h-60z" />
    <glyph glyph-name="Aacute" unicode="&#xc1;" horiz-adv-x="1270" 
d="M1299 44l-9.99805 -57c-24 -2 -45 -3 -63 -3c-26 0 -57.333 2 -94 6c-62.667 6.66699 -102.334 10 -119.001 10c-28 0 -71 -4.33301 -129 -13c20.667 52 38 106.667 52 164c10 40.667 20.667 110.667 32 210c-78 0.666992 -199 -1 -363 -5
c-169.333 -258.667 -293.5 -421.167 -372.5 -487.5s-154.167 -99.5 -225.5 -99.5c-37.333 0 -65.166 7.16699 -83.499 21.5s-27.5 32.833 -27.5 55.5c0 17.333 5.33301 31.666 16 42.999s24 17 40 17c9.33301 0 22 -1.66699 38 -5c40 -9.33301 66.667 -14 80 -14
c44.667 0 94 25.333 148 76c88 82.667 218 256 390 520c194.667 298.667 352.334 516 473.001 652c-164.667 -14.667 -267.334 -28.667 -308.001 -42c-56 -18 -98 -44.667 -126 -80s-42 -71.333 -42 -108c0 -12 4.33301 -29 13 -51c9.33301 -24.667 14 -42.667 14 -54
c0 -14.667 -5.66699 -27.667 -17 -39s-25 -17 -41 -17c-22.667 0 -40.834 8.5 -54.501 25.5s-20.5 42.5 -20.5 76.5c0 48 12.5 94.5 37.5 139.5s60.833 82.667 107.5 113s105 53.5 175 69.5c36 8.66699 99.333 16.334 190 23.001c78.667 6.66699 128 13 148 19
c31.333 8.66699 61.333 25.667 90 51c-20 -82 -34.333 -153.667 -43 -215l-78 -578l-45 -414c49.333 -12.667 93.666 -19 132.999 -19c26 0 54.333 3 85 9zM977.002 435c32 270.667 64 468.333 96 593c-84.667 -112 -137 -182.667 -157 -212l-257 -381
c55.333 -2 134.333 -3 237 -3c25.333 0 52.333 1 81 3zM1290 1615h190l-339 -290h-59z" />
    <glyph glyph-name="Acircumflex" unicode="&#xc2;" horiz-adv-x="1270" 
d="M1299 44l-9.99805 -57c-24 -2 -45 -3 -63 -3c-26 0 -57.333 2 -94 6c-62.667 6.66699 -102.334 10 -119.001 10c-28 0 -71 -4.33301 -129 -13c20.667 52 38 106.667 52 164c10 40.667 20.667 110.667 32 210c-78 0.666992 -199 -1 -363 -5
c-169.333 -258.667 -293.5 -421.167 -372.5 -487.5s-154.167 -99.5 -225.5 -99.5c-37.333 0 -65.166 7.16699 -83.499 21.5s-27.5 32.833 -27.5 55.5c0 17.333 5.33301 31.666 16 42.999s24 17 40 17c9.33301 0 22 -1.66699 38 -5c40 -9.33301 66.667 -14 80 -14
c44.667 0 94 25.333 148 76c88 82.667 218 256 390 520c194.667 298.667 352.334 516 473.001 652c-164.667 -14.667 -267.334 -28.667 -308.001 -42c-56 -18 -98 -44.667 -126 -80s-42 -71.333 -42 -108c0 -12 4.33301 -29 13 -51c9.33301 -24.667 14 -42.667 14 -54
c0 -14.667 -5.66699 -27.667 -17 -39s-25 -17 -41 -17c-22.667 0 -40.834 8.5 -54.501 25.5s-20.5 42.5 -20.5 76.5c0 48 12.5 94.5 37.5 139.5s60.833 82.667 107.5 113s105 53.5 175 69.5c36 8.66699 99.333 16.334 190 23.001c78.667 6.66699 128 13 148 19
c31.333 8.66699 61.333 25.667 90 51c-20 -82 -34.333 -153.667 -43 -215l-78 -578l-45 -414c49.333 -12.667 93.666 -19 132.999 -19c26 0 54.333 3 85 9zM977.002 435c32 270.667 64 468.333 96 593c-84.667 -112 -137 -182.667 -157 -212l-257 -381
c55.333 -2 134.333 -3 237 -3c25.333 0 52.333 1 81 3zM1158 1616h151l73 -291h-57l-104 183l-268 -183h-64z" />
    <glyph glyph-name="Atilde" unicode="&#xc3;" horiz-adv-x="1270" 
d="M1299 44l-9.99805 -57c-24 -2 -45 -3 -63 -3c-26 0 -57.333 2 -94 6c-62.667 6.66699 -102.334 10 -119.001 10c-28 0 -71 -4.33301 -129 -13c20.667 52 38 106.667 52 164c10 40.667 20.667 110.667 32 210c-78 0.666992 -199 -1 -363 -5
c-169.333 -258.667 -293.5 -421.167 -372.5 -487.5s-154.167 -99.5 -225.5 -99.5c-37.333 0 -65.166 7.16699 -83.499 21.5s-27.5 32.833 -27.5 55.5c0 17.333 5.33301 31.666 16 42.999s24 17 40 17c9.33301 0 22 -1.66699 38 -5c40 -9.33301 66.667 -14 80 -14
c44.667 0 94 25.333 148 76c88 82.667 218 256 390 520c194.667 298.667 352.334 516 473.001 652c-164.667 -14.667 -267.334 -28.667 -308.001 -42c-56 -18 -98 -44.667 -126 -80s-42 -71.333 -42 -108c0 -12 4.33301 -29 13 -51c9.33301 -24.667 14 -42.667 14 -54
c0 -14.667 -5.66699 -27.667 -17 -39s-25 -17 -41 -17c-22.667 0 -40.834 8.5 -54.501 25.5s-20.5 42.5 -20.5 76.5c0 48 12.5 94.5 37.5 139.5s60.833 82.667 107.5 113s105 53.5 175 69.5c36 8.66699 99.333 16.334 190 23.001c78.667 6.66699 128 13 148 19
c31.333 8.66699 61.333 25.667 90 51c-20 -82 -34.333 -153.667 -43 -215l-78 -578l-45 -414c49.333 -12.667 93.666 -19 132.999 -19c26 0 54.333 3 85 9zM977.002 435c32 270.667 64 468.333 96 593c-84.667 -112 -137 -182.667 -157 -212l-257 -381
c55.333 -2 134.333 -3 237 -3c25.333 0 52.333 1 81 3zM1400 1549l57.0039 0.000976562c-18.667 -61.333 -46.167 -108.333 -82.5 -141s-74.833 -49 -115.5 -49c-20.667 0 -39.334 2 -56.001 6c-8.66699 2 -31 11.667 -67 29c-37.333 17.333 -61 27.666 -71 30.999
c-14.667 4 -29.334 6 -44.001 6c-18 0 -33.333 -5 -46 -15s-26 -29 -40 -57h-55c16 66 40.833 114.167 74.5 144.5s70.167 45.5 109.5 45.5c29.333 0 73.666 -11.667 132.999 -35c56 -22 95.333 -33 118 -33c21.333 0 40.166 6.5 56.499 19.5s25.833 29.167 28.5 48.5z" />
    <glyph glyph-name="Adieresis" unicode="&#xc4;" horiz-adv-x="1270" 
d="M1299 44l-9.99805 -57c-24 -2 -45 -3 -63 -3c-26 0 -57.333 2 -94 6c-62.667 6.66699 -102.334 10 -119.001 10c-28 0 -71 -4.33301 -129 -13c20.667 52 38 106.667 52 164c10 40.667 20.667 110.667 32 210c-78 0.666992 -199 -1 -363 -5
c-169.333 -258.667 -293.5 -421.167 -372.5 -487.5s-154.167 -99.5 -225.5 -99.5c-37.333 0 -65.166 7.16699 -83.499 21.5s-27.5 32.833 -27.5 55.5c0 17.333 5.33301 31.666 16 42.999s24 17 40 17c9.33301 0 22 -1.66699 38 -5c40 -9.33301 66.667 -14 80 -14
c44.667 0 94 25.333 148 76c88 82.667 218 256 390 520c194.667 298.667 352.334 516 473.001 652c-164.667 -14.667 -267.334 -28.667 -308.001 -42c-56 -18 -98 -44.667 -126 -80s-42 -71.333 -42 -108c0 -12 4.33301 -29 13 -51c9.33301 -24.667 14 -42.667 14 -54
c0 -14.667 -5.66699 -27.667 -17 -39s-25 -17 -41 -17c-22.667 0 -40.834 8.5 -54.501 25.5s-20.5 42.5 -20.5 76.5c0 48 12.5 94.5 37.5 139.5s60.833 82.667 107.5 113s105 53.5 175 69.5c36 8.66699 99.333 16.334 190 23.001c78.667 6.66699 128 13 148 19
c31.333 8.66699 61.333 25.667 90 51c-20 -82 -34.333 -153.667 -43 -215l-78 -578l-45 -414c49.333 -12.667 93.666 -19 132.999 -19c26 0 54.333 3 85 9zM977.002 435c32 270.667 64 468.333 96 593c-84.667 -112 -137 -182.667 -157 -212l-257 -381
c55.333 -2 134.333 -3 237 -3c25.333 0 52.333 1 81 3zM1040 1510c25.333 0 47.166 -9 65.499 -27s27.5 -40 27.5 -66c0 -25.333 -9.16699 -47.166 -27.5 -65.499s-40.166 -27.5 -65.499 -27.5s-47.166 9.16699 -65.499 27.5s-27.5 40.166 -27.5 65.499
c0 26 9.16699 48 27.5 66s40.166 27 65.499 27zM1329 1509c26 0 48 -9 66 -27s27 -39.667 27 -65c0 -26 -9 -48 -27 -66s-40 -27 -66 -27c-25.333 0 -47 9 -65 27s-27 40 -27 66c0 25.333 9 47 27 65s39.667 27 65 27z" />
    <glyph glyph-name="Aring" unicode="&#xc5;" horiz-adv-x="1270" 
d="M1104 1199c-27.333 14.667 -49.166 35.833 -65.499 63.5s-24.5 57.5 -24.5 89.5c0 48 17 89.167 51 123.5s75.333 51.5 124 51.5c48 0 89 -17.167 123 -51.5s51 -75.5 51 -123.5c0 -40 -12.333 -75.833 -37 -107.5s-57 -52.5 -97 -62.5
c-13.333 -64.667 -26.666 -146 -39.999 -244l-63 -470l-45 -414c49.333 -12.667 93.666 -19 132.999 -19c26 0 54.333 3 85 9l-10 -57c-24 -2 -45 -3 -63 -3c-26 0 -57.333 2 -94 6c-62.667 6.66699 -102.334 10 -119.001 10c-28 0 -71 -4.33301 -129 -13
c20.667 52 38 106.667 52 164c10 40.667 20.667 110.667 32 210c-78 0.666992 -199 -1 -363 -5c-169.333 -258.667 -293.5 -421.167 -372.5 -487.5s-154.167 -99.5 -225.5 -99.5c-37.333 0 -65.166 7.16699 -83.499 21.5s-27.5 32.833 -27.5 55.5
c0 17.333 5.33301 31.666 16 42.999s24 17 40 17c9.33301 0 22 -1.66699 38 -5c40 -9.33301 66.667 -14 80 -14c44.667 0 94 25.333 148 76c88 82.667 218 256 390 520c194.667 298.667 352.334 516 473.001 652c-164.667 -14.667 -267.334 -28.667 -308.001 -42
c-56 -18 -98 -44.667 -126 -80s-42 -71.333 -42 -108c0 -12 4.33301 -29 13 -51c9.33301 -24.667 14 -42.667 14 -54c0 -14.667 -5.66699 -27.667 -17 -39s-25 -17 -41 -17c-22.667 0 -40.834 8.5 -54.501 25.5s-20.5 42.5 -20.5 76.5c0 50.667 13.667 99.5 41 146.5
s66.833 85.5 118.5 115.5s117.167 52.333 196.5 67c22.667 4.66699 102.667 12.334 240 23.001zM1188 1457c-28.667 0 -53.334 -10.333 -74.001 -31s-31 -45.334 -31 -74.001c0 -29.333 10.333 -54.333 31 -75s45.334 -31 74.001 -31c29.333 0 54.166 10.333 74.499 31
s30.5 45.667 30.5 75c0 28.667 -10.167 53.334 -30.5 74.001s-45.166 31 -74.499 31zM977 434.999c32 270.667 64 468.333 96 593c-84.667 -112 -137 -182.667 -157 -212l-257 -381c55.333 -2 134.333 -3 237 -3c25.333 0 48 0.666992 68 2z" />
    <glyph glyph-name="AE" unicode="&#xc6;" horiz-adv-x="1515" 
d="M1561 938l-50.998 0.00488281c6.66699 45.333 10 77.666 10 96.999c0 32.667 -8.5 54 -25.5 64s-69.5 15 -157.5 15c-68.667 0 -126.334 -2.33301 -173.001 -7l-113 -440h126c74 0 117.333 4.16699 130 12.5s26.334 38.166 41.001 89.499h53
c-36 -109.333 -59 -207 -69 -293h-51c7.33301 39.333 11 66.333 11 81c0 16 -7.66699 28.167 -23 36.5s-50.333 12.5 -105 12.5h-129l-91 -355c-18.667 -74 -34.334 -131.667 -47.001 -173c82.667 13.333 143.334 20 182.001 20c31.333 0 80 -4.66699 146 -14
c84 -12 151 -18 201 -18c32 0 55.333 5.16699 70 15.5s22 23.166 22 38.499c0 10.667 -4.66699 23.667 -14 39c-20.667 35.333 -31 60 -31 74c0 16.667 5.66699 30.334 17 41.001s25.666 16 42.999 16c22 0 40.333 -8.83301 55 -26.5s22 -42.5 22 -74.5
c0 -62.667 -24 -114 -72 -154s-115.333 -60 -202 -60c-48 0 -122.333 5.66699 -223 17c-89.333 10 -159 15 -209 15c-98.667 0 -194.334 -10.333 -287.001 -31l18 56c12 3.33301 21 5.66602 27 6.99902c27.333 6.66699 46.5 14.5 57.5 23.5s22.167 26.833 33.5 53.5
c8 19.333 23.667 72.666 47 159.999c13.333 50 25 91.333 35 124h-306l-208 -331c-56.667 -88 -112 -151 -166 -189c-40 -28 -78.667 -42 -116 -42c-30.667 0 -55 7.66699 -73 23s-27 33 -27 53c0 14.667 5.83301 27.667 17.5 39s25.5 17 41.5 17
c13.333 0 28.666 -3.33301 45.999 -10c31.333 -12.667 50.666 -19 57.999 -19c27.333 0 56.333 16.667 87 50c51.333 57.333 143 200.666 275 429.999c124 215.333 219.667 374 287 476c47.333 70.667 93.333 131.667 138 183c20 22 30 35.667 30 41
c0 9.33301 -11.333 14 -34 14c-39.333 0 -85.333 -7.66699 -138 -23l10 51c44.667 13.333 84.334 20 119.001 20c23.333 0 64.333 -1.66699 123 -5c84 -5.33301 190.667 -8 320 -8c56 0 108.833 2.16699 158.5 6.5s95.834 10.5 138.501 18.5
c-17.333 -44.667 -29.333 -82.167 -36 -112.5s-13 -78.5 -19 -144.5zM854.002 476.005l66.999 273.999l84 369c-153.333 -169.333 -298 -383.666 -434 -642.999c44.667 -4 89.334 -6 134.001 -6c47.333 0 97 2 149 6z" />
    <glyph glyph-name="Ccedilla" unicode="&#xc7;" horiz-adv-x="1065" 
d="M1192 764l-54.0059 -0.00292969c3.33301 52 5 93.667 5 125c0 94 -19.5 159.5 -58.5 196.5s-88.167 55.5 -147.5 55.5c-79.333 0 -161.666 -32.167 -246.999 -96.5s-158.666 -164.666 -219.999 -300.999s-92 -276.5 -92 -420.5c0 -139.333 28.5 -246.166 85.5 -320.499
s128.5 -111.5 214.5 -111.5c116.667 0 223.667 70 321 210c10 14 20.333 21 31 21c8.66699 0 16 -2.83301 22 -8.5s9 -12.167 9 -19.5c0 -18 -22.167 -53.333 -66.5 -106s-100.166 -96.5 -167.499 -131.5s-133.666 -52.5 -198.999 -52.5c-78.667 0 -151.667 20.5 -219 61.5
s-119.666 99.5 -156.999 175.5s-56 166.333 -56 271c0 146 38.167 291.333 114.5 436s171.833 256.334 286.5 335.001s226.667 118 336 118c39.333 0 78.333 -4.33301 117 -13c16.667 -4 85.334 -27 206.001 -69c-38 -114.667 -59.333 -233 -64 -355zM593.994 -162.003
l65.001 0.00390625l-61 -113c37.333 -5.33301 64.833 -17.833 82.5 -37.5s26.5 -42.834 26.5 -69.501c0 -46.667 -28.333 -93.834 -85 -141.501s-136.667 -79.834 -240 -96.501l19 60c61.333 12.667 110.666 35 147.999 67c26 22 39 47 39 75
c0 21.333 -8.33301 39.166 -25 53.499s-37 21.5 -61 21.5c-4 0 -9.33301 -0.333008 -16 -1z" />
    <glyph glyph-name="Egrave" unicode="&#xc8;" horiz-adv-x="1270" 
d="M1312 959l-53.001 0.00195312c5.33301 34 8 61 8 81c0 26.667 -11.167 44.167 -33.5 52.5s-106.5 12.5 -252.5 12.5l-146 -1l-111 -442h207c65.333 0 105.5 4.83301 120.5 14.5s25.833 33.834 32.5 72.501h57c-21.333 -80.667 -40.333 -169.334 -57 -266.001h-51
c3.33301 31.333 5 55.666 5 72.999c0 7.33301 -4.66699 16.333 -14 27c-4.66699 5.33301 -13.334 9 -26.001 11c-18 3.33301 -46 5 -84 5h-205c-59.333 -226.667 -121 -404.334 -185 -533.001c62 19.333 117 29 165 29c80 0 178 -12.667 294 -38c61.333 -14 103 -21 125 -21
c29.333 0 53 7.33301 71 22s27 31.334 27 50.001c0 10.667 -4.33301 28 -13 52c-5.33301 16.667 -8 32.334 -8 47.001c0 15.333 6.16699 29 18.5 41s27.166 18 44.499 18c20.667 0 37.834 -8 51.501 -24s20.5 -37.333 20.5 -64c0 -56.667 -24.833 -106.334 -74.5 -149.001
s-115.167 -64 -196.5 -64c-42.667 0 -96.667 3.66699 -162 11c-143.333 16 -252.666 24 -327.999 24c-98.667 0 -214 -8 -346 -24l16 55c78.667 22 125 38.167 139 48.5s25.667 25.5 35 45.5c32 63.333 73.5 190.333 124.5 381l155.5 604c-80 0 -155.667 -19 -227 -57
s-127 -87.5 -167 -148.5s-60 -125.167 -60 -192.5c0 -28.667 2.83301 -53.667 8.5 -75s18.5 -51.333 38.5 -90c12.667 -23.333 19 -42.333 19 -57s-6.16699 -27.667 -18.5 -39s-27.5 -17 -45.5 -17c-26 0 -46.667 13 -62 39c-22.667 38 -34 89.667 -34 155
c0 140 53 265.667 159 377s260.333 167 463 167h343c118.667 0 206.334 7.66699 263.001 23c-26.667 -110.667 -43.667 -189.334 -51 -236.001zM840.999 1615h167l110 -290h-60z" />
    <glyph glyph-name="Eacute" unicode="&#xc9;" horiz-adv-x="1270" 
d="M1312 959l-53.001 0.00195312c5.33301 34 8 61 8 81c0 26.667 -11.167 44.167 -33.5 52.5s-106.5 12.5 -252.5 12.5l-146 -1l-111 -442h207c65.333 0 105.5 4.83301 120.5 14.5s25.833 33.834 32.5 72.501h57c-21.333 -80.667 -40.333 -169.334 -57 -266.001h-51
c3.33301 31.333 5 55.666 5 72.999c0 7.33301 -4.66699 16.333 -14 27c-4.66699 5.33301 -13.334 9 -26.001 11c-18 3.33301 -46 5 -84 5h-205c-59.333 -226.667 -121 -404.334 -185 -533.001c62 19.333 117 29 165 29c80 0 178 -12.667 294 -38c61.333 -14 103 -21 125 -21
c29.333 0 53 7.33301 71 22s27 31.334 27 50.001c0 10.667 -4.33301 28 -13 52c-5.33301 16.667 -8 32.334 -8 47.001c0 15.333 6.16699 29 18.5 41s27.166 18 44.499 18c20.667 0 37.834 -8 51.501 -24s20.5 -37.333 20.5 -64c0 -56.667 -24.833 -106.334 -74.5 -149.001
s-115.167 -64 -196.5 -64c-42.667 0 -96.667 3.66699 -162 11c-143.333 16 -252.666 24 -327.999 24c-98.667 0 -214 -8 -346 -24l16 55c78.667 22 125 38.167 139 48.5s25.667 25.5 35 45.5c32 63.333 73.5 190.333 124.5 381l155.5 604c-80 0 -155.667 -19 -227 -57
s-127 -87.5 -167 -148.5s-60 -125.167 -60 -192.5c0 -28.667 2.83301 -53.667 8.5 -75s18.5 -51.333 38.5 -90c12.667 -23.333 19 -42.333 19 -57s-6.16699 -27.667 -18.5 -39s-27.5 -17 -45.5 -17c-26 0 -46.667 13 -62 39c-22.667 38 -34 89.667 -34 155
c0 140 53 265.667 159 377s260.333 167 463 167h343c118.667 0 206.334 7.66699 263.001 23c-26.667 -110.667 -43.667 -189.334 -51 -236.001zM1121 1615h190l-339 -290h-59z" />
    <glyph glyph-name="Ecircumflex" unicode="&#xca;" horiz-adv-x="1270" 
d="M1312 959l-53.001 0.00195312c5.33301 34 8 61 8 81c0 26.667 -11.167 44.167 -33.5 52.5s-106.5 12.5 -252.5 12.5l-146 -1l-111 -442h207c65.333 0 105.5 4.83301 120.5 14.5s25.833 33.834 32.5 72.501h57c-21.333 -80.667 -40.333 -169.334 -57 -266.001h-51
c3.33301 31.333 5 55.666 5 72.999c0 7.33301 -4.66699 16.333 -14 27c-4.66699 5.33301 -13.334 9 -26.001 11c-18 3.33301 -46 5 -84 5h-205c-59.333 -226.667 -121 -404.334 -185 -533.001c62 19.333 117 29 165 29c80 0 178 -12.667 294 -38c61.333 -14 103 -21 125 -21
c29.333 0 53 7.33301 71 22s27 31.334 27 50.001c0 10.667 -4.33301 28 -13 52c-5.33301 16.667 -8 32.334 -8 47.001c0 15.333 6.16699 29 18.5 41s27.166 18 44.499 18c20.667 0 37.834 -8 51.501 -24s20.5 -37.333 20.5 -64c0 -56.667 -24.833 -106.334 -74.5 -149.001
s-115.167 -64 -196.5 -64c-42.667 0 -96.667 3.66699 -162 11c-143.333 16 -252.666 24 -327.999 24c-98.667 0 -214 -8 -346 -24l16 55c78.667 22 125 38.167 139 48.5s25.667 25.5 35 45.5c32 63.333 73.5 190.333 124.5 381l155.5 604c-80 0 -155.667 -19 -227 -57
s-127 -87.5 -167 -148.5s-60 -125.167 -60 -192.5c0 -28.667 2.83301 -53.667 8.5 -75s18.5 -51.333 38.5 -90c12.667 -23.333 19 -42.333 19 -57s-6.16699 -27.667 -18.5 -39s-27.5 -17 -45.5 -17c-26 0 -46.667 13 -62 39c-22.667 38 -34 89.667 -34 155
c0 140 53 265.667 159 377s260.333 167 463 167h343c118.667 0 206.334 7.66699 263.001 23c-26.667 -110.667 -43.667 -189.334 -51 -236.001zM1037 1616h151l73 -291h-57l-104 183l-268 -183h-64z" />
    <glyph glyph-name="Edieresis" unicode="&#xcb;" horiz-adv-x="1270" 
d="M1312 959l-53.001 0.00195312c5.33301 34 8 61 8 81c0 26.667 -11.167 44.167 -33.5 52.5s-106.5 12.5 -252.5 12.5l-146 -1l-111 -442h207c65.333 0 105.5 4.83301 120.5 14.5s25.833 33.834 32.5 72.501h57c-21.333 -80.667 -40.333 -169.334 -57 -266.001h-51
c3.33301 31.333 5 55.666 5 72.999c0 7.33301 -4.66699 16.333 -14 27c-4.66699 5.33301 -13.334 9 -26.001 11c-18 3.33301 -46 5 -84 5h-205c-59.333 -226.667 -121 -404.334 -185 -533.001c62 19.333 117 29 165 29c80 0 178 -12.667 294 -38c61.333 -14 103 -21 125 -21
c29.333 0 53 7.33301 71 22s27 31.334 27 50.001c0 10.667 -4.33301 28 -13 52c-5.33301 16.667 -8 32.334 -8 47.001c0 15.333 6.16699 29 18.5 41s27.166 18 44.499 18c20.667 0 37.834 -8 51.501 -24s20.5 -37.333 20.5 -64c0 -56.667 -24.833 -106.334 -74.5 -149.001
s-115.167 -64 -196.5 -64c-42.667 0 -96.667 3.66699 -162 11c-143.333 16 -252.666 24 -327.999 24c-98.667 0 -214 -8 -346 -24l16 55c78.667 22 125 38.167 139 48.5s25.667 25.5 35 45.5c32 63.333 73.5 190.333 124.5 381l155.5 604c-80 0 -155.667 -19 -227 -57
s-127 -87.5 -167 -148.5s-60 -125.167 -60 -192.5c0 -28.667 2.83301 -53.667 8.5 -75s18.5 -51.333 38.5 -90c12.667 -23.333 19 -42.333 19 -57s-6.16699 -27.667 -18.5 -39s-27.5 -17 -45.5 -17c-26 0 -46.667 13 -62 39c-22.667 38 -34 89.667 -34 155
c0 140 53 265.667 159 377s260.333 167 463 167h343c118.667 0 206.334 7.66699 263.001 23c-26.667 -110.667 -43.667 -189.334 -51 -236.001zM882.999 1510c25.333 0 47.166 -9 65.499 -27s27.5 -40 27.5 -66c0 -25.333 -9.16699 -47.166 -27.5 -65.499
s-40.166 -27.5 -65.499 -27.5s-47.166 9.16699 -65.499 27.5s-27.5 40.166 -27.5 65.499c0 26 9.16699 48 27.5 66s40.166 27 65.499 27zM1172 1509c26 0 48 -9 66 -27s27 -39.667 27 -65c0 -26 -9 -48 -27 -66s-40 -27 -66 -27c-25.333 0 -47 9 -65 27s-27 40 -27 66
c0 25.333 9 47 27 65s39.667 27 65 27z" />
    <glyph glyph-name="Igrave" unicode="&#xcc;" horiz-adv-x="778" 
d="M970 1183l-16.9971 -54.001c-75.333 -4.66699 -125.333 -14 -150 -28c-16 -9.33301 -29.333 -23.333 -40 -42c-12.667 -24 -49.667 -151.333 -111 -382c-20 -76 -71 -283.667 -153 -623c46.667 -15.333 105.667 -22 177 -20l-16 -48c-21.333 -0.666992 -64 2 -128 8
c-46 4 -99.667 6 -161 6c-84.667 0 -162.334 -6.33301 -233.001 -19l12 53c73.333 11.333 129 26 167 44c9.33301 4.66699 16.666 10.334 21.999 17.001c10 12 20.833 36.167 32.5 72.5s51.5 184.833 119.5 445.5c20 75.333 60.667 240 122 494
c-46 1.33301 -102.333 -5 -169 -19l19 55c28 7.33301 56.667 12.5 86 15.5s95.666 5.83301 198.999 8.5c96.667 2.66699 170.667 8 222 16zM596.003 1615h167l110 -290h-60z" />
    <glyph glyph-name="Iacute" unicode="&#xcd;" horiz-adv-x="778" 
d="M970 1183l-16.9971 -54.001c-75.333 -4.66699 -125.333 -14 -150 -28c-16 -9.33301 -29.333 -23.333 -40 -42c-12.667 -24 -49.667 -151.333 -111 -382c-20 -76 -71 -283.667 -153 -623c46.667 -15.333 105.667 -22 177 -20l-16 -48c-21.333 -0.666992 -64 2 -128 8
c-46 4 -99.667 6 -161 6c-84.667 0 -162.334 -6.33301 -233.001 -19l12 53c73.333 11.333 129 26 167 44c9.33301 4.66699 16.666 10.334 21.999 17.001c10 12 20.833 36.167 32.5 72.5s51.5 184.833 119.5 445.5c20 75.333 60.667 240 122 494
c-46 1.33301 -102.333 -5 -169 -19l19 55c28 7.33301 56.667 12.5 86 15.5s95.666 5.83301 198.999 8.5c96.667 2.66699 170.667 8 222 16zM875.003 1615h190l-339 -290h-59z" />
    <glyph glyph-name="Icircumflex" unicode="&#xce;" horiz-adv-x="778" 
d="M970 1183l-16.9971 -54.001c-75.333 -4.66699 -125.333 -14 -150 -28c-16 -9.33301 -29.333 -23.333 -40 -42c-12.667 -24 -49.667 -151.333 -111 -382c-20 -76 -71 -283.667 -153 -623c46.667 -15.333 105.667 -22 177 -20l-16 -48c-21.333 -0.666992 -64 2 -128 8
c-46 4 -99.667 6 -161 6c-84.667 0 -162.334 -6.33301 -233.001 -19l12 53c73.333 11.333 129 26 167 44c9.33301 4.66699 16.666 10.334 21.999 17.001c10 12 20.833 36.167 32.5 72.5s51.5 184.833 119.5 445.5c20 75.333 60.667 240 122 494
c-46 1.33301 -102.333 -5 -169 -19l19 55c28 7.33301 56.667 12.5 86 15.5s95.666 5.83301 198.999 8.5c96.667 2.66699 170.667 8 222 16zM791.003 1616h151l73 -291h-57l-104 183l-268 -183h-64z" />
    <glyph glyph-name="Idieresis" unicode="&#xcf;" horiz-adv-x="778" 
d="M970 1183l-16.9971 -54.001c-75.333 -4.66699 -125.333 -14 -150 -28c-16 -9.33301 -29.333 -23.333 -40 -42c-12.667 -24 -49.667 -151.333 -111 -382c-20 -76 -71 -283.667 -153 -623c46.667 -15.333 105.667 -22 177 -20l-16 -48c-21.333 -0.666992 -64 2 -128 8
c-46 4 -99.667 6 -161 6c-84.667 0 -162.334 -6.33301 -233.001 -19l12 53c73.333 11.333 129 26 167 44c9.33301 4.66699 16.666 10.334 21.999 17.001c10 12 20.833 36.167 32.5 72.5s51.5 184.833 119.5 445.5c20 75.333 60.667 240 122 494
c-46 1.33301 -102.333 -5 -169 -19l19 55c28 7.33301 56.667 12.5 86 15.5s95.666 5.83301 198.999 8.5c96.667 2.66699 170.667 8 222 16zM613.003 1510c25.333 0 47.166 -9 65.499 -27s27.5 -40 27.5 -66c0 -25.333 -9.16699 -47.166 -27.5 -65.499
s-40.166 -27.5 -65.499 -27.5s-47.166 9.16699 -65.499 27.5s-27.5 40.166 -27.5 65.499c0 26 9.16699 48 27.5 66s40.166 27 65.499 27zM902.003 1509c26 0 48 -9 66 -27s27 -39.667 27 -65c0 -26 -9 -48 -27 -66s-40 -27 -66 -27c-25.333 0 -47 9 -65 27s-27 40 -27 66
c0 25.333 9 47 27 65s39.667 27 65 27z" />
    <glyph glyph-name="Eth" unicode="&#xd0;" horiz-adv-x="1434" 
d="M642 609c6.66699 24 16.665 65.667 29.998 125l38 155c4 16 6 29.667 6 41c0 10.667 -3.33301 19.167 -10 25.5s-16 9.5 -28 9.5c-4.66699 0 -14 -1 -28 -3l10 43c72.667 6 158.334 20.667 257.001 44c-41.333 -127.333 -66.666 -211.333 -75.999 -252l-44 -188h357
l-16 -64h-357c-26.667 -114 -56 -214.5 -88 -301.5s-58 -147.5 -78 -181.5c57.333 -11.333 108 -17 152 -17c116.667 0 218.334 24.5 305.001 73.5s155.5 120.5 206.5 214.5s76.5 197.667 76.5 311c0 148.667 -43.333 268.167 -130 358.5s-200 135.5 -340 135.5
c-118 0 -229.333 -28 -334 -84s-187.5 -130.167 -248.5 -222.5s-91.5 -182.5 -91.5 -270.5c0 -84 37.333 -146.333 112 -187c21.333 -12 35.166 -22.167 41.499 -30.5s9.5 -18.833 9.5 -31.5c0 -16 -6.5 -30.5 -19.5 -43.5s-27.167 -19.5 -42.5 -19.5
c-34.667 0 -68.667 24 -102 72c-45.333 64.667 -68 131.334 -68 200.001c0 114.667 34.167 225.5 102.5 332.5s163.5 192.167 285.5 255.5s257.667 95 407 95c184 0 330.5 -49.167 439.5 -147.5s163.5 -221.833 163.5 -370.5c0 -138 -38 -264.833 -114 -380.5
s-167.833 -198 -275.5 -247s-215.167 -73.5 -322.5 -73.5c-34.667 0 -94.667 3.33301 -180 10c-72 5.33301 -140.333 8 -205 8c-30 0 -75.667 -1 -137 -3l23 49c62 3.33301 101 9.16602 117 17.499s31.333 25.5 46 51.5c21.333 40 47 110.333 77 211l56 216h-227l15 64h229z
" />
    <glyph glyph-name="Ntilde" unicode="&#xd1;" horiz-adv-x="1434" 
d="M915 1204l27.9971 -117.001c26 -106.667 51.667 -200 77 -280s90.333 -265 195 -555c10 36.667 30 118 60 244c38.667 164 64.334 267 77.001 309c37.333 123.333 73.333 214 108 272s73.334 99.667 116.001 125s91 38 145 38c43.333 0 76.5 -8.33301 99.5 -25
s34.5 -36.667 34.5 -60c0 -16.667 -6.16699 -31.334 -18.5 -44.001s-26.833 -19 -43.5 -19c-12 0 -26 3.33301 -42 10c-33.333 13.333 -53.333 21 -60 23c-12 2.66699 -25 4 -39 4c-32.667 0 -60.667 -11 -84 -33c-41.333 -38.667 -86.833 -135.667 -136.5 -291
s-112.834 -403.666 -189.501 -744.999l-34 -149c-76 167.333 -127.333 286 -154 356c-36 94 -77 212.667 -123 356l-110 346c-13.333 -80 -44.5 -214.833 -93.5 -404.5s-78.167 -298.834 -87.5 -327.501c-30.667 -90 -63.5 -159 -98.5 -207s-73.333 -83 -115 -105
s-87.5 -33 -137.5 -33c-62.667 0 -114 14 -154 42c-30.667 20.667 -46 47 -46 79c0 14 5.66699 26.5 17 37.5s25 16.5 41 16.5c20.667 0 43 -11 67 -33c42.667 -39.333 81.667 -59 117 -59c38 0 75.333 17 112 51c54.667 52 107.334 161 158.001 327
c61.333 200.667 120.333 455.334 177 764.001c-23.333 0 -68 -6.66699 -134 -20s-121.167 -32.166 -165.5 -56.499s-78.333 -56 -102 -95s-35.5 -79.833 -35.5 -122.5c0 -21.333 3 -43 9 -65c4 -14.667 12.667 -32.667 26 -54c15.333 -24.667 23 -43.334 23 -56.001
c0 -16 -5.83301 -29.667 -17.5 -41s-26.167 -17 -43.5 -17c-25.333 0 -47 13.167 -65 39.5s-27 66.5 -27 120.5c0 89.333 22.5 165.333 67.5 228s105.167 110 180.5 142c48 20 140.667 39.333 278 58c50.667 6.66699 98.334 15.334 143.001 26.001zM1458 1549
l57.0039 0.000976562c-18.667 -61.333 -46.167 -108.333 -82.5 -141s-74.833 -49 -115.5 -49c-20.667 0 -39.334 2 -56.001 6c-8.66699 2 -31 11.667 -67 29c-37.333 17.333 -61 27.666 -71 30.999c-14.667 4 -29.334 6 -44.001 6c-18 0 -33.333 -5 -46 -15s-26 -29 -40 -57
h-55c16 66 40.833 114.167 74.5 144.5s70.167 45.5 109.5 45.5c29.333 0 73.666 -11.667 132.999 -35c56 -22 95.333 -33 118 -33c21.333 0 40.166 6.5 56.499 19.5s25.833 29.167 28.5 48.5z" />
    <glyph glyph-name="Ograve" unicode="&#xd2;" horiz-adv-x="1229" 
d="M899 1197c84 0 159.832 -19.499 227.499 -58.499s120.167 -94.667 157.5 -167s56 -156.5 56 -252.5c0 -125.333 -33.667 -249.666 -101 -372.999s-149.666 -216.333 -246.999 -279s-205.333 -94 -324 -94c-136.667 0 -247.167 42.667 -331.5 128
s-126.5 197.666 -126.5 336.999c0 133.333 33.667 262.166 101 386.499s150 217.5 248 279.5s211.333 93 340 93zM825.999 1125c-77.333 0 -148.5 -22.832 -213.5 -68.499s-118.167 -117 -159.5 -214s-62 -209.5 -62 -337.5c0 -146.667 32.333 -259.834 97 -339.501
s145.334 -119.5 242.001 -119.5c72 0 140.167 23.667 204.5 71s117.333 121.833 159 223.5s62.5 218.5 62.5 350.5c0 136.667 -31.833 243.167 -95.5 319.5s-141.834 114.5 -234.501 114.5zM724.999 1615h167l110 -290h-60z" />
    <glyph glyph-name="Oacute" unicode="&#xd3;" horiz-adv-x="1229" 
d="M899 1197c84 0 159.832 -19.499 227.499 -58.499s120.167 -94.667 157.5 -167s56 -156.5 56 -252.5c0 -125.333 -33.667 -249.666 -101 -372.999s-149.666 -216.333 -246.999 -279s-205.333 -94 -324 -94c-136.667 0 -247.167 42.667 -331.5 128
s-126.5 197.666 -126.5 336.999c0 133.333 33.667 262.166 101 386.499s150 217.5 248 279.5s211.333 93 340 93zM825.999 1125c-77.333 0 -148.5 -22.832 -213.5 -68.499s-118.167 -117 -159.5 -214s-62 -209.5 -62 -337.5c0 -146.667 32.333 -259.834 97 -339.501
s145.334 -119.5 242.001 -119.5c72 0 140.167 23.667 204.5 71s117.333 121.833 159 223.5s62.5 218.5 62.5 350.5c0 136.667 -31.833 243.167 -95.5 319.5s-141.834 114.5 -234.501 114.5zM1100 1615h190l-339 -290h-59z" />
    <glyph glyph-name="Ocircumflex" unicode="&#xd4;" horiz-adv-x="1229" 
d="M899 1197c84 0 159.832 -19.499 227.499 -58.499s120.167 -94.667 157.5 -167s56 -156.5 56 -252.5c0 -125.333 -33.667 -249.666 -101 -372.999s-149.666 -216.333 -246.999 -279s-205.333 -94 -324 -94c-136.667 0 -247.167 42.667 -331.5 128
s-126.5 197.666 -126.5 336.999c0 133.333 33.667 262.166 101 386.499s150 217.5 248 279.5s211.333 93 340 93zM825.999 1125c-77.333 0 -148.5 -22.832 -213.5 -68.499s-118.167 -117 -159.5 -214s-62 -209.5 -62 -337.5c0 -146.667 32.333 -259.834 97 -339.501
s145.334 -119.5 242.001 -119.5c72 0 140.167 23.667 204.5 71s117.333 121.833 159 223.5s62.5 218.5 62.5 350.5c0 136.667 -31.833 243.167 -95.5 319.5s-141.834 114.5 -234.501 114.5zM931.999 1616h151l73 -291h-57l-104 183l-268 -183h-64z" />
    <glyph glyph-name="Otilde" unicode="&#xd5;" horiz-adv-x="1229" 
d="M899 1197c84 0 159.832 -19.499 227.499 -58.499s120.167 -94.667 157.5 -167s56 -156.5 56 -252.5c0 -125.333 -33.667 -249.666 -101 -372.999s-149.666 -216.333 -246.999 -279s-205.333 -94 -324 -94c-136.667 0 -247.167 42.667 -331.5 128
s-126.5 197.666 -126.5 336.999c0 133.333 33.667 262.166 101 386.499s150 217.5 248 279.5s211.333 93 340 93zM825.999 1125c-77.333 0 -148.5 -22.832 -213.5 -68.499s-118.167 -117 -159.5 -214s-62 -209.5 -62 -337.5c0 -146.667 32.333 -259.834 97 -339.501
s145.334 -119.5 242.001 -119.5c72 0 140.167 23.667 204.5 71s117.333 121.833 159 223.5s62.5 218.5 62.5 350.5c0 136.667 -31.833 243.167 -95.5 319.5s-141.834 114.5 -234.501 114.5zM1198 1549l57.0039 0.000976562c-18.667 -61.333 -46.167 -108.333 -82.5 -141
s-74.833 -49 -115.5 -49c-20.667 0 -39.334 2 -56.001 6c-8.66699 2 -31 11.667 -67 29c-37.333 17.333 -61 27.666 -71 30.999c-14.667 4 -29.334 6 -44.001 6c-18 0 -33.333 -5 -46 -15s-26 -29 -40 -57h-55c16 66 40.833 114.167 74.5 144.5s70.167 45.5 109.5 45.5
c29.333 0 73.666 -11.667 132.999 -35c56 -22 95.333 -33 118 -33c21.333 0 40.166 6.5 56.499 19.5s25.833 29.167 28.5 48.5z" />
    <glyph glyph-name="Odieresis" unicode="&#xd6;" horiz-adv-x="1229" 
d="M899 1197c84 0 159.832 -19.499 227.499 -58.499s120.167 -94.667 157.5 -167s56 -156.5 56 -252.5c0 -125.333 -33.667 -249.666 -101 -372.999s-149.666 -216.333 -246.999 -279s-205.333 -94 -324 -94c-136.667 0 -247.167 42.667 -331.5 128
s-126.5 197.666 -126.5 336.999c0 133.333 33.667 262.166 101 386.499s150 217.5 248 279.5s211.333 93 340 93zM825.999 1125c-77.333 0 -148.5 -22.832 -213.5 -68.499s-118.167 -117 -159.5 -214s-62 -209.5 -62 -337.5c0 -146.667 32.333 -259.834 97 -339.501
s145.334 -119.5 242.001 -119.5c72 0 140.167 23.667 204.5 71s117.333 121.833 159 223.5s62.5 218.5 62.5 350.5c0 136.667 -31.833 243.167 -95.5 319.5s-141.834 114.5 -234.501 114.5zM813.999 1510c25.333 0 47.166 -9 65.499 -27s27.5 -40 27.5 -66
c0 -25.333 -9.16699 -47.166 -27.5 -65.499s-40.166 -27.5 -65.499 -27.5s-47.166 9.16699 -65.499 27.5s-27.5 40.166 -27.5 65.499c0 26 9.16699 48 27.5 66s40.166 27 65.499 27zM1103 1509c26 0 48 -9 66 -27s27 -39.667 27 -65c0 -26 -9 -48 -27 -66s-40 -27 -66 -27
c-25.333 0 -47 9 -65 27s-27 40 -27 66c0 25.333 9 47 27 65s39.667 27 65 27z" />
    <glyph glyph-name="multiply" unicode="&#xd7;" horiz-adv-x="1065" 
d="M794 585l293 -293l-78 -78l-293 293l-293 -293l-79 78l294 293l-294 294l78 78l294 -294l293 294l78 -79z" />
    <glyph glyph-name="Oslash" unicode="&#xd8;" horiz-adv-x="1352" 
d="M1250 1095c47.333 -42 84.5 -95.5 111.5 -160.5s40.5 -136.833 40.5 -215.5c0 -125.333 -33.667 -249.833 -101 -373.5s-149.833 -216.667 -247.5 -279s-205.834 -93.5 -324.501 -93.5c-108 0 -202.333 28.667 -283 86l-136 -176l-47 38l137 178
c-86 86 -129 201.667 -129 347c0 127.333 33.333 252.833 100 376.5s149.167 217.167 247.5 280.5s205.5 95 321.5 95c98.667 0 185.334 -22 260.001 -66l116 149l47 -41zM506 236l608 784.001c-61.333 70 -138.333 105 -231 105c-74.667 0 -144.5 -23 -209.5 -69
s-118 -117.333 -159 -214s-61.5 -209 -61.5 -337c0 -106.667 17.667 -196.334 53 -269.001zM1152 969.001l-612 -790c28.667 -41.333 65.334 -73.833 110.001 -97.5s92 -35.5 142 -35.5c71.333 0 139.166 23.5 203.499 70.5s117.5 121.5 159.5 223.5s63 217 63 345
c0 117.333 -22 212 -66 284z" />
    <glyph glyph-name="Ugrave" unicode="&#xd9;" horiz-adv-x="1515" 
d="M928 1195c-67.333 -118.667 -133.669 -269.669 -199.002 -453.002c-46 -130 -69 -238.667 -69 -326c0 -97.333 23.5 -173 70.5 -227s105.833 -81 176.5 -81c66.667 0 129.334 16.667 188.001 50c78 44 150.167 111 216.5 201s120.5 197.833 162.5 323.5
s63 243.167 63 352.5c0 76 -16.333 148 -49 216c-17.333 34.667 -27 55.334 -29 62.001c-2.66699 9.33301 -4 19.333 -4 30c0 20 6.16699 36.333 18.5 49s27.5 19 45.5 19c31.333 0 56 -16.667 74 -50c26 -45.333 39 -115.666 39 -210.999c0 -204 -44.667 -407 -134 -609
s-192.5 -346.333 -309.5 -433s-239.833 -130 -368.5 -130c-104.667 0 -185 34.833 -241 104.5s-84 155.5 -84 257.5c0 84 13 170 39 258c34 115.333 104.333 287.666 211 516.999c-83.333 2 -158 -8.16699 -224 -30.5s-113.5 -50.833 -142.5 -85.5s-43.5 -69 -43.5 -103
c0 -14 7.66699 -33 23 -57c16 -27.333 24 -48.666 24 -63.999c0 -19.333 -6 -35.333 -18 -48s-27 -19 -45 -19c-22 0 -41.167 10 -57.5 30s-24.5 46 -24.5 78c0 51.333 15 102.833 45 154.5s68.833 93.167 116.5 124.5s106.5 54.333 176.5 69
c34.667 7.33301 106.667 14 216 20c74.667 4 120.334 7.66699 137.001 11zM1024 1615h167l110 -290h-60z" />
    <glyph glyph-name="Uacute" unicode="&#xda;" horiz-adv-x="1515" 
d="M928 1195c-67.333 -118.667 -133.669 -269.669 -199.002 -453.002c-46 -130 -69 -238.667 -69 -326c0 -97.333 23.5 -173 70.5 -227s105.833 -81 176.5 -81c66.667 0 129.334 16.667 188.001 50c78 44 150.167 111 216.5 201s120.5 197.833 162.5 323.5
s63 243.167 63 352.5c0 76 -16.333 148 -49 216c-17.333 34.667 -27 55.334 -29 62.001c-2.66699 9.33301 -4 19.333 -4 30c0 20 6.16699 36.333 18.5 49s27.5 19 45.5 19c31.333 0 56 -16.667 74 -50c26 -45.333 39 -115.666 39 -210.999c0 -204 -44.667 -407 -134 -609
s-192.5 -346.333 -309.5 -433s-239.833 -130 -368.5 -130c-104.667 0 -185 34.833 -241 104.5s-84 155.5 -84 257.5c0 84 13 170 39 258c34 115.333 104.333 287.666 211 516.999c-83.333 2 -158 -8.16699 -224 -30.5s-113.5 -50.833 -142.5 -85.5s-43.5 -69 -43.5 -103
c0 -14 7.66699 -33 23 -57c16 -27.333 24 -48.666 24 -63.999c0 -19.333 -6 -35.333 -18 -48s-27 -19 -45 -19c-22 0 -41.167 10 -57.5 30s-24.5 46 -24.5 78c0 51.333 15 102.833 45 154.5s68.833 93.167 116.5 124.5s106.5 54.333 176.5 69
c34.667 7.33301 106.667 14 216 20c74.667 4 120.334 7.66699 137.001 11zM1340 1615h190l-339 -290h-59z" />
    <glyph glyph-name="Ucircumflex" unicode="&#xdb;" horiz-adv-x="1515" 
d="M928 1195c-67.333 -118.667 -133.669 -269.669 -199.002 -453.002c-46 -130 -69 -238.667 -69 -326c0 -97.333 23.5 -173 70.5 -227s105.833 -81 176.5 -81c66.667 0 129.334 16.667 188.001 50c78 44 150.167 111 216.5 201s120.5 197.833 162.5 323.5
s63 243.167 63 352.5c0 76 -16.333 148 -49 216c-17.333 34.667 -27 55.334 -29 62.001c-2.66699 9.33301 -4 19.333 -4 30c0 20 6.16699 36.333 18.5 49s27.5 19 45.5 19c31.333 0 56 -16.667 74 -50c26 -45.333 39 -115.666 39 -210.999c0 -204 -44.667 -407 -134 -609
s-192.5 -346.333 -309.5 -433s-239.833 -130 -368.5 -130c-104.667 0 -185 34.833 -241 104.5s-84 155.5 -84 257.5c0 84 13 170 39 258c34 115.333 104.333 287.666 211 516.999c-83.333 2 -158 -8.16699 -224 -30.5s-113.5 -50.833 -142.5 -85.5s-43.5 -69 -43.5 -103
c0 -14 7.66699 -33 23 -57c16 -27.333 24 -48.666 24 -63.999c0 -19.333 -6 -35.333 -18 -48s-27 -19 -45 -19c-22 0 -41.167 10 -57.5 30s-24.5 46 -24.5 78c0 51.333 15 102.833 45 154.5s68.833 93.167 116.5 124.5s106.5 54.333 176.5 69
c34.667 7.33301 106.667 14 216 20c74.667 4 120.334 7.66699 137.001 11zM1159 1616h151l73 -291h-57l-104 183l-268 -183h-64z" />
    <glyph glyph-name="Udieresis" unicode="&#xdc;" horiz-adv-x="1515" 
d="M928 1195c-67.333 -118.667 -133.669 -269.669 -199.002 -453.002c-46 -130 -69 -238.667 -69 -326c0 -97.333 23.5 -173 70.5 -227s105.833 -81 176.5 -81c66.667 0 129.334 16.667 188.001 50c78 44 150.167 111 216.5 201s120.5 197.833 162.5 323.5
s63 243.167 63 352.5c0 76 -16.333 148 -49 216c-17.333 34.667 -27 55.334 -29 62.001c-2.66699 9.33301 -4 19.333 -4 30c0 20 6.16699 36.333 18.5 49s27.5 19 45.5 19c31.333 0 56 -16.667 74 -50c26 -45.333 39 -115.666 39 -210.999c0 -204 -44.667 -407 -134 -609
s-192.5 -346.333 -309.5 -433s-239.833 -130 -368.5 -130c-104.667 0 -185 34.833 -241 104.5s-84 155.5 -84 257.5c0 84 13 170 39 258c34 115.333 104.333 287.666 211 516.999c-83.333 2 -158 -8.16699 -224 -30.5s-113.5 -50.833 -142.5 -85.5s-43.5 -69 -43.5 -103
c0 -14 7.66699 -33 23 -57c16 -27.333 24 -48.666 24 -63.999c0 -19.333 -6 -35.333 -18 -48s-27 -19 -45 -19c-22 0 -41.167 10 -57.5 30s-24.5 46 -24.5 78c0 51.333 15 102.833 45 154.5s68.833 93.167 116.5 124.5s106.5 54.333 176.5 69
c34.667 7.33301 106.667 14 216 20c74.667 4 120.334 7.66699 137.001 11zM1018 1510c25.333 0 47.166 -9 65.499 -27s27.5 -40 27.5 -66c0 -25.333 -9.16699 -47.166 -27.5 -65.499s-40.166 -27.5 -65.499 -27.5s-47.166 9.16699 -65.499 27.5s-27.5 40.166 -27.5 65.499
c0 26 9.16699 48 27.5 66s40.166 27 65.499 27zM1307 1509c26 0 48 -9 66 -27s27 -39.667 27 -65c0 -26 -9 -48 -27 -66s-40 -27 -66 -27c-25.333 0 -47 9 -65 27s-27 40 -27 66c0 25.333 9 47 27 65s39.667 27 65 27z" />
    <glyph glyph-name="Yacute" unicode="&#xdd;" horiz-adv-x="1147" 
d="M1090 59l-21.001 -59.001c-41.333 -10.667 -76.666 -16 -105.999 -16c-31.333 0 -72.666 2.66699 -123.999 8c-48.667 5.33301 -87.334 8 -116.001 8c-40.667 0 -103 -4.66699 -187 -14l17 51c62.667 16 102 33.333 118 52s42.667 98.5 80 239.5s56 233.833 56 278.5
c0 89.333 -17.333 181 -52 275s-78 170 -130 228c-98 -36 -168.167 -69.833 -210.5 -101.5s-76.333 -70.5 -102 -116.5s-38.5 -86.333 -38.5 -121c0 -34 15.333 -65.667 46 -95c26 -25.333 39 -47.666 39 -66.999c0 -17.333 -5.16699 -31.666 -15.5 -42.999
s-23.166 -17 -38.499 -17c-27.333 0 -50.333 13.333 -69 40c-25.333 36.667 -38 80.667 -38 132c0 74 20.667 143.667 62 209s99 120 173 164c43.333 26 114.666 53.667 213.999 83c36.667 10.667 69.667 21.667 99 33c56 -67.333 101 -146.5 135 -237.5
s57.333 -203.833 70 -338.5c124 260 242.167 442.833 354.5 548.5s203.833 158.5 274.5 158.5c22 0 40 -6.33301 54 -19s21 -28.334 21 -47.001c0 -19.333 -8.16699 -35 -24.5 -47s-48.166 -19.667 -95.499 -23c-46.667 -3.33301 -82.667 -12.666 -108 -27.999
c-50 -30.667 -108.833 -87.334 -176.5 -170.001s-134.5 -186 -200.5 -310s-116.333 -253.167 -151 -387.5s-53.334 -221.833 -56.001 -262.5c31.333 -5.33301 62.333 -8 93 -8c46.667 0 98 6.66699 154 20zM1180 1615h190l-339 -290h-59z" />
    <glyph glyph-name="Thorn" unicode="&#xde;" horiz-adv-x="1106" 
d="M1068 1194l-18.998 -57.0029c-12.667 -2 -31.334 -4.66699 -56.001 -8c-44.667 -6 -74.667 -13.167 -90 -21.5s-27.333 -19.833 -36 -34.5s-21.667 -53 -39 -115c21.333 0.666992 39 1 53 1c118.667 0 210.167 -27.5 274.5 -82.5s96.5 -125.833 96.5 -212.5
c0 -117.333 -53.667 -212.666 -161 -285.999s-228.333 -110 -363 -110c-21.333 0 -50 1 -86 3l-60 -221c46.667 -12.667 88.667 -19 126 -19c28 0 68 4 120 12l-8 -57c-41.333 -5.33301 -76 -8 -104 -8c-28.667 0 -76 3.66699 -142 11c-65.333 7.33301 -113.333 11 -144 11
c-52 0 -113 -8 -183 -24l13 60c69.333 9.33301 119 26.833 149 52.5s53.333 71.167 70 136.5l172 648c-138 -27.333 -240 -72.166 -306 -134.499s-99 -128.833 -99 -199.5c0 -38 17.333 -72 52 -102c26 -21.333 42.667 -37.666 50 -48.999c4.66699 -6.66699 7 -15 7 -25
c0 -16.667 -5.16699 -30.334 -15.5 -41.001s-24.166 -16 -41.499 -16c-32 0 -62.167 18.5 -90.5 55.5s-42.5 82.833 -42.5 137.5c0 102 42.667 194 128 276s210.666 137.667 375.999 167l34 173l-41 2c-30.667 0 -71.334 -5.33301 -122.001 -16l16 59
c84.667 9.33301 157.334 14 218.001 14c91.333 0 145.666 1 162.999 3c31.333 2.66699 75 8.33398 131 17.001zM659.002 328.997c23.333 -0.666992 42.667 -1 58 -1c103.333 0 188.5 33.167 255.5 99.5s100.5 147.5 100.5 243.5c0 68.667 -21.833 122 -65.5 160
s-111.167 57 -202.5 57z" />
    <glyph glyph-name="germandbls" unicode="&#xdf;" horiz-adv-x="860" 
d="M144 -100l253.999 1023c47.333 190 104.666 319 171.999 387s149.333 102 246 102c68.667 0 124.167 -19.333 166.5 -58s63.5 -86 63.5 -142c0 -42.667 -7.66699 -81 -23 -115c-22 -47.333 -59.333 -103 -112 -167c-61.333 -74.667 -101.666 -130 -120.999 -166
c-14 -26 -21 -48.333 -21 -67c0 -30 13.333 -68.667 40 -116c48 -82.667 77.667 -141.334 89 -176.001s17 -72.667 17 -114c0 -55.333 -13.667 -107.833 -41 -157.5s-65.333 -90.834 -114 -123.501c-35.333 -23.333 -78 -35 -128 -35c-56.667 0 -101.667 14 -135 42
s-50 62 -50 102c0 28 7.5 50.167 22.5 66.5s33.5 24.5 55.5 24.5c20 0 36.333 -6.16699 49 -18.5s19 -27.5 19 -45.5c0 -7.33301 -1.33301 -16 -4 -26c-2.66699 -12 -4 -21.667 -4 -29c0 -14 6.33301 -25.667 19 -35c12 -9.33301 29.333 -14 52 -14
c39.333 0 72.5 14.5 99.5 43.5s40.5 64.833 40.5 107.5c0 62.667 -24.333 138 -73 226c-46.667 84 -72 131.333 -76 142c-7.33301 18 -11 34.333 -11 49c0 26.667 5.83301 52.834 17.5 78.501s45.834 77.5 102.501 155.5c112.667 152.667 169 273.334 169 362.001
c0 46 -11.5 81.333 -34.5 106s-53.833 37 -92.5 37c-50 0 -93.5 -22.667 -130.5 -68s-73.167 -140.333 -108.5 -285l-213 -873c-54 -221.333 -134.333 -384.333 -241 -489s-223.667 -157 -351 -157c-46.667 0 -80.5 7.66699 -101.5 23s-31.5 34.666 -31.5 57.999
c0 22.667 8 40.5 24 53.5s41.667 19.5 77 19.5c15.333 0 43 -2.66699 83 -8c38.667 -5.33301 68.334 -8 89.001 -8c73.333 0 123.666 14 150.999 42c34.667 36 67.667 117 99 243z" />
    <glyph glyph-name="agrave" unicode="&#xe0;" horiz-adv-x="860" 
d="M856 858l66.002 13.9971l-75 -253c-30 -100.667 -58.333 -216.667 -85 -348c-14.667 -71.333 -22 -117.333 -22 -138s8.33301 -31 25 -31c10.667 0 27.667 7 51 21c41.333 24.667 81 55.334 119 92.001l32 -39c-76 -69.333 -124.667 -111.333 -146 -126
c-42.667 -29.333 -83.334 -51 -122.001 -65c-25.333 -9.33301 -50 -14 -74 -14c-17.333 0 -30.333 4 -39 12s-13 19.667 -13 35c0 10 2.66699 23.667 8 41l40 136c-57.333 -68.667 -125.666 -127.667 -204.999 -177c-48.667 -30.667 -93.334 -46 -134.001 -46
c-38.667 0 -68.334 13.667 -89.001 41c-28 36.667 -42 84.667 -42 144c0 70.667 18.833 149.334 56.5 236.001s88.167 165.334 151.5 236.001s130 122.667 200 156c54 25.333 123.333 38 208 38c21.333 0 43 -1.33301 65 -4zM732.002 704.997
c-36 7.33301 -66.334 11 -91.001 11c-60 0 -112.333 -16.5 -157 -49.5s-86.167 -92.333 -124.5 -178s-57.5 -171.167 -57.5 -256.5c0 -45.333 7.66699 -78 23 -98s35.333 -30 60 -30c46 0 95.333 24.833 148 74.5s91.334 121.167 116.001 214.5zM516.001 1252h167l110 -290
h-60z" />
    <glyph glyph-name="aacute" unicode="&#xe1;" horiz-adv-x="860" 
d="M856 858l66.002 13.9971l-75 -253c-30 -100.667 -58.333 -216.667 -85 -348c-14.667 -71.333 -22 -117.333 -22 -138s8.33301 -31 25 -31c10.667 0 27.667 7 51 21c41.333 24.667 81 55.334 119 92.001l32 -39c-76 -69.333 -124.667 -111.333 -146 -126
c-42.667 -29.333 -83.334 -51 -122.001 -65c-25.333 -9.33301 -50 -14 -74 -14c-17.333 0 -30.333 4 -39 12s-13 19.667 -13 35c0 10 2.66699 23.667 8 41l40 136c-57.333 -68.667 -125.666 -127.667 -204.999 -177c-48.667 -30.667 -93.334 -46 -134.001 -46
c-38.667 0 -68.334 13.667 -89.001 41c-28 36.667 -42 84.667 -42 144c0 70.667 18.833 149.334 56.5 236.001s88.167 165.334 151.5 236.001s130 122.667 200 156c54 25.333 123.333 38 208 38c21.333 0 43 -1.33301 65 -4zM732.002 704.997
c-36 7.33301 -66.334 11 -91.001 11c-60 0 -112.333 -16.5 -157 -49.5s-86.167 -92.333 -124.5 -178s-57.5 -171.167 -57.5 -256.5c0 -45.333 7.66699 -78 23 -98s35.333 -30 60 -30c46 0 95.333 24.833 148 74.5s91.334 121.167 116.001 214.5zM795.001 1253h190l-339 -290
h-59z" />
    <glyph glyph-name="acircumflex" unicode="&#xe2;" horiz-adv-x="860" 
d="M856 858l66.002 13.9971l-75 -253c-30 -100.667 -58.333 -216.667 -85 -348c-14.667 -71.333 -22 -117.333 -22 -138s8.33301 -31 25 -31c10.667 0 27.667 7 51 21c41.333 24.667 81 55.334 119 92.001l32 -39c-76 -69.333 -124.667 -111.333 -146 -126
c-42.667 -29.333 -83.334 -51 -122.001 -65c-25.333 -9.33301 -50 -14 -74 -14c-17.333 0 -30.333 4 -39 12s-13 19.667 -13 35c0 10 2.66699 23.667 8 41l40 136c-57.333 -68.667 -125.666 -127.667 -204.999 -177c-48.667 -30.667 -93.334 -46 -134.001 -46
c-38.667 0 -68.334 13.667 -89.001 41c-28 36.667 -42 84.667 -42 144c0 70.667 18.833 149.334 56.5 236.001s88.167 165.334 151.5 236.001s130 122.667 200 156c54 25.333 123.333 38 208 38c21.333 0 43 -1.33301 65 -4zM732.002 704.997
c-36 7.33301 -66.334 11 -91.001 11c-60 0 -112.333 -16.5 -157 -49.5s-86.167 -92.333 -124.5 -178s-57.5 -171.167 -57.5 -256.5c0 -45.333 7.66699 -78 23 -98s35.333 -30 60 -30c46 0 95.333 24.833 148 74.5s91.334 121.167 116.001 214.5zM711.001 1254h151l73 -291
h-57l-104 183l-268 -183h-64z" />
    <glyph glyph-name="atilde" unicode="&#xe3;" horiz-adv-x="860" 
d="M856 858l66.002 13.9971l-75 -253c-30 -100.667 -58.333 -216.667 -85 -348c-14.667 -71.333 -22 -117.333 -22 -138s8.33301 -31 25 -31c10.667 0 27.667 7 51 21c41.333 24.667 81 55.334 119 92.001l32 -39c-76 -69.333 -124.667 -111.333 -146 -126
c-42.667 -29.333 -83.334 -51 -122.001 -65c-25.333 -9.33301 -50 -14 -74 -14c-17.333 0 -30.333 4 -39 12s-13 19.667 -13 35c0 10 2.66699 23.667 8 41l40 136c-57.333 -68.667 -125.666 -127.667 -204.999 -177c-48.667 -30.667 -93.334 -46 -134.001 -46
c-38.667 0 -68.334 13.667 -89.001 41c-28 36.667 -42 84.667 -42 144c0 70.667 18.833 149.334 56.5 236.001s88.167 165.334 151.5 236.001s130 122.667 200 156c54 25.333 123.333 38 208 38c21.333 0 43 -1.33301 65 -4zM732.002 704.997
c-36 7.33301 -66.334 11 -91.001 11c-60 0 -112.333 -16.5 -157 -49.5s-86.167 -92.333 -124.5 -178s-57.5 -171.167 -57.5 -256.5c0 -45.333 7.66699 -78 23 -98s35.333 -30 60 -30c46 0 95.333 24.833 148 74.5s91.334 121.167 116.001 214.5zM977.001 1187
l57.0039 0.000976562c-18.667 -61.333 -46.167 -108.333 -82.5 -141s-74.833 -49 -115.5 -49c-20.667 0 -39.334 2 -56.001 6c-8.66699 2 -31 11.667 -67 29c-37.333 17.333 -61 27.666 -71 30.999c-14.667 4 -29.334 6 -44.001 6c-18 0 -33.333 -5 -46 -15s-26 -29 -40 -57
h-55c16 66 40.833 114.167 74.5 144.5s70.167 45.5 109.5 45.5c29.333 0 73.666 -11.667 132.999 -35c56 -22 95.333 -33 118 -33c21.333 0 40.166 6.5 56.499 19.5s25.833 29.167 28.5 48.5z" />
    <glyph glyph-name="adieresis" unicode="&#xe4;" horiz-adv-x="860" 
d="M856 858l66.002 13.9971l-75 -253c-30 -100.667 -58.333 -216.667 -85 -348c-14.667 -71.333 -22 -117.333 -22 -138s8.33301 -31 25 -31c10.667 0 27.667 7 51 21c41.333 24.667 81 55.334 119 92.001l32 -39c-76 -69.333 -124.667 -111.333 -146 -126
c-42.667 -29.333 -83.334 -51 -122.001 -65c-25.333 -9.33301 -50 -14 -74 -14c-17.333 0 -30.333 4 -39 12s-13 19.667 -13 35c0 10 2.66699 23.667 8 41l40 136c-57.333 -68.667 -125.666 -127.667 -204.999 -177c-48.667 -30.667 -93.334 -46 -134.001 -46
c-38.667 0 -68.334 13.667 -89.001 41c-28 36.667 -42 84.667 -42 144c0 70.667 18.833 149.334 56.5 236.001s88.167 165.334 151.5 236.001s130 122.667 200 156c54 25.333 123.333 38 208 38c21.333 0 43 -1.33301 65 -4zM732.002 704.997
c-36 7.33301 -66.334 11 -91.001 11c-60 0 -112.333 -16.5 -157 -49.5s-86.167 -92.333 -124.5 -178s-57.5 -171.167 -57.5 -256.5c0 -45.333 7.66699 -78 23 -98s35.333 -30 60 -30c46 0 95.333 24.833 148 74.5s91.334 121.167 116.001 214.5zM593.001 1147
c25.333 0 47.166 -9 65.499 -27s27.5 -40 27.5 -66c0 -25.333 -9.16699 -47.166 -27.5 -65.499s-40.166 -27.5 -65.499 -27.5s-47.166 9.16699 -65.499 27.5s-27.5 40.166 -27.5 65.499c0 26 9.16699 48 27.5 66s40.166 27 65.499 27zM882.001 1146c26 0 48 -9 66 -27
s27 -39.667 27 -65c0 -26 -9 -48 -27 -66s-40 -27 -66 -27c-25.333 0 -47 9 -65 27s-27 40 -27 66c0 25.333 9 47 27 65s39.667 27 65 27z" />
    <glyph glyph-name="aring" unicode="&#xe5;" horiz-adv-x="860" 
d="M856 858l66.002 13.9971l-75 -253c-30 -100.667 -58.333 -216.667 -85 -348c-14.667 -71.333 -22 -117.333 -22 -138s8.33301 -31 25 -31c10.667 0 27.667 7 51 21c41.333 24.667 81 55.334 119 92.001l32 -39c-76 -69.333 -124.667 -111.333 -146 -126
c-42.667 -29.333 -83.334 -51 -122.001 -65c-25.333 -9.33301 -50 -14 -74 -14c-17.333 0 -30.333 4 -39 12s-13 19.667 -13 35c0 10 2.66699 23.667 8 41l40 136c-57.333 -68.667 -125.666 -127.667 -204.999 -177c-48.667 -30.667 -93.334 -46 -134.001 -46
c-38.667 0 -68.334 13.667 -89.001 41c-28 36.667 -42 84.667 -42 144c0 70.667 18.833 149.334 56.5 236.001s88.167 165.334 151.5 236.001s130 122.667 200 156c54 25.333 123.333 38 208 38c21.333 0 43 -1.33301 65 -4zM732.002 704.997
c-36 7.33301 -66.334 11 -91.001 11c-60 0 -112.333 -16.5 -157 -49.5s-86.167 -92.333 -124.5 -178s-57.5 -171.167 -57.5 -256.5c0 -45.333 7.66699 -78 23 -98s35.333 -30 60 -30c46 0 95.333 24.833 148 74.5s91.334 121.167 116.001 214.5zM744.001 1283
c48 0 89 -17.167 123 -51.5s51 -75.5 51 -123.5s-17 -89.167 -51 -123.5s-75 -51.5 -123 -51.5c-48.667 0 -90 17.167 -124 51.5s-51 75.5 -51 123.5s17 89.167 51 123.5s75.333 51.5 124 51.5zM743.001 1213c-28.667 0 -53.334 -10.333 -74.001 -31
s-31 -45.334 -31 -74.001c0 -29.333 10.333 -54.333 31 -75s45.334 -31 74.001 -31c29.333 0 54.166 10.333 74.499 31s30.5 45.667 30.5 75c0 28.667 -10.167 53.334 -30.5 74.001s-45.166 31 -74.499 31z" />
    <glyph glyph-name="ae" unicode="&#xe6;" horiz-adv-x="1106" 
d="M875 774c59.333 46 121.332 69 185.999 69c44 0 77.667 -11.667 101 -35s35 -56 35 -98c0 -38.667 -11 -77 -33 -115s-60 -76 -114 -114s-149 -87.667 -285 -149c-6 -36 -9 -70.333 -9 -103c0 -46.667 7.5 -79.667 22.5 -99s34.833 -29 59.5 -29
c64.667 0 154 44.667 268 134l32 -43c-142 -145.333 -275.667 -218 -401 -218c-46.667 0 -82.5 16.833 -107.5 50.5s-36.833 87.5 -35.5 161.5c-53.333 -66 -117.333 -123 -192 -171c-44 -28.667 -85 -43 -123 -43c-36.667 0 -65 13.333 -85 40
c-26.667 36.667 -40 85 -40 145c0 82.667 22.333 171 67 265s98.167 174 160.5 240s128.833 112.333 199.5 139c38.667 14.667 96.334 22 173.001 22c17.333 0 37 -1.33301 59 -4l25 39l66 14zM776.999 396c92 40 165.666 90.334 220.999 151.001c36.667 40 55 81 55 123
c0 27.333 -7.16699 49.166 -21.5 65.499s-32.166 24.5 -53.499 24.5c-22 0 -43 -8.33301 -63 -25c-30 -25.333 -54.667 -62.333 -74 -111c-30.667 -78 -52 -154 -64 -228zM713.998 705.001c-36.667 7.33301 -67.332 11 -91.999 11c-54.667 0 -102.834 -16 -144.501 -48
s-80.834 -91 -117.501 -177s-55 -172.333 -55 -259c0 -46 7.33301 -78.833 22 -98.5s33.334 -29.5 56.001 -29.5c42 0 87.333 24 136 72s86 120.333 112 217z" />
    <glyph glyph-name="ccedilla" unicode="&#xe7;" horiz-adv-x="696" 
d="M723 217l20.999 -57.9961c-158.667 -124.667 -292.667 -187 -402 -187c-58 0 -100.167 20.667 -126.5 62s-39.5 93.666 -39.5 156.999c0 105.333 28 213.666 84 324.999s124 196.666 204 255.999c62.667 46 133.334 69 212.001 69c49.333 0 86.666 -9.33301 111.999 -28
s38 -41.334 38 -68.001c0 -20.667 -6.66699 -37.5 -20 -50.5s-32 -19.5 -56 -19.5c-23.333 0 -53.333 10.667 -90 32c-38 22.667 -69.667 34 -95 34c-32.667 0 -65.167 -14.833 -97.5 -44.5s-63.166 -87.167 -92.499 -172.5s-44 -171 -44 -257
c0 -63.333 12.333 -112.333 37 -147c18 -26.667 43.333 -40 76 -40c78 0 171 45.667 279 137zM373.999 19.0039l65.001 0.00390625l-61 -113c37.333 -5.33301 64.833 -17.833 82.5 -37.5s26.5 -42.834 26.5 -69.501c0 -46.667 -28.333 -93.834 -85 -141.501
s-136.667 -79.834 -240 -96.501l19 60c61.333 12.667 110.666 35 147.999 67c26 22 39 47 39 75c0 21.333 -8.33301 39.166 -25 53.499s-37 21.5 -61 21.5c-4 0 -9.33301 -0.333008 -16 -1z" />
    <glyph glyph-name="egrave" unicode="&#xe8;" horiz-adv-x="696" 
d="M698 251l33.002 -44c-163.333 -155.333 -303.333 -233 -420 -233c-47.333 0 -83.5 16 -108.5 48s-37.5 83.333 -37.5 154c0 142.667 43.333 284.667 130 426c97.333 160.667 213.666 241 348.999 241c47.333 0 83.5 -11.833 108.5 -35.5s37.5 -56.167 37.5 -97.5
c0 -43.333 -15 -86 -45 -128s-83.667 -85.667 -161 -131c-38.667 -22 -121.334 -61.667 -248.001 -119c-6 -36 -9 -70.333 -9 -103c0 -47.333 7.5 -80.333 22.5 -99s36.833 -28 65.5 -28c27.333 0 57.333 7.66699 90 23c44 20.667 108.333 62.667 193 126zM348.002 396
c107.333 48 188 99.667 242 155c36.667 38.667 55 77 55 115c0 28.667 -7.5 51.5 -22.5 68.5s-34.5 25.5 -58.5 25.5c-24.667 0 -48.667 -9.33301 -72 -28c-31.333 -24.667 -57.666 -62 -78.999 -112c-30.667 -73.333 -52.334 -148 -65.001 -224zM434.002 1252h167l110 -290
h-60z" />
    <glyph glyph-name="eacute" unicode="&#xe9;" horiz-adv-x="696" 
d="M698 251l33.002 -44c-163.333 -155.333 -303.333 -233 -420 -233c-47.333 0 -83.5 16 -108.5 48s-37.5 83.333 -37.5 154c0 142.667 43.333 284.667 130 426c97.333 160.667 213.666 241 348.999 241c47.333 0 83.5 -11.833 108.5 -35.5s37.5 -56.167 37.5 -97.5
c0 -43.333 -15 -86 -45 -128s-83.667 -85.667 -161 -131c-38.667 -22 -121.334 -61.667 -248.001 -119c-6 -36 -9 -70.333 -9 -103c0 -47.333 7.5 -80.333 22.5 -99s36.833 -28 65.5 -28c27.333 0 57.333 7.66699 90 23c44 20.667 108.333 62.667 193 126zM348.002 396
c107.333 48 188 99.667 242 155c36.667 38.667 55 77 55 115c0 28.667 -7.5 51.5 -22.5 68.5s-34.5 25.5 -58.5 25.5c-24.667 0 -48.667 -9.33301 -72 -28c-31.333 -24.667 -57.666 -62 -78.999 -112c-30.667 -73.333 -52.334 -148 -65.001 -224zM713.002 1253h190
l-339 -290h-59z" />
    <glyph glyph-name="ecircumflex" unicode="&#xea;" horiz-adv-x="696" 
d="M698 251l33.002 -44c-163.333 -155.333 -303.333 -233 -420 -233c-47.333 0 -83.5 16 -108.5 48s-37.5 83.333 -37.5 154c0 142.667 43.333 284.667 130 426c97.333 160.667 213.666 241 348.999 241c47.333 0 83.5 -11.833 108.5 -35.5s37.5 -56.167 37.5 -97.5
c0 -43.333 -15 -86 -45 -128s-83.667 -85.667 -161 -131c-38.667 -22 -121.334 -61.667 -248.001 -119c-6 -36 -9 -70.333 -9 -103c0 -47.333 7.5 -80.333 22.5 -99s36.833 -28 65.5 -28c27.333 0 57.333 7.66699 90 23c44 20.667 108.333 62.667 193 126zM348.002 396
c107.333 48 188 99.667 242 155c36.667 38.667 55 77 55 115c0 28.667 -7.5 51.5 -22.5 68.5s-34.5 25.5 -58.5 25.5c-24.667 0 -48.667 -9.33301 -72 -28c-31.333 -24.667 -57.666 -62 -78.999 -112c-30.667 -73.333 -52.334 -148 -65.001 -224zM629.002 1254h151l73 -291
h-57l-104 183l-268 -183h-64z" />
    <glyph glyph-name="edieresis" unicode="&#xeb;" horiz-adv-x="696" 
d="M698 251l33.002 -44c-163.333 -155.333 -303.333 -233 -420 -233c-47.333 0 -83.5 16 -108.5 48s-37.5 83.333 -37.5 154c0 142.667 43.333 284.667 130 426c97.333 160.667 213.666 241 348.999 241c47.333 0 83.5 -11.833 108.5 -35.5s37.5 -56.167 37.5 -97.5
c0 -43.333 -15 -86 -45 -128s-83.667 -85.667 -161 -131c-38.667 -22 -121.334 -61.667 -248.001 -119c-6 -36 -9 -70.333 -9 -103c0 -47.333 7.5 -80.333 22.5 -99s36.833 -28 65.5 -28c27.333 0 57.333 7.66699 90 23c44 20.667 108.333 62.667 193 126zM348.002 396
c107.333 48 188 99.667 242 155c36.667 38.667 55 77 55 115c0 28.667 -7.5 51.5 -22.5 68.5s-34.5 25.5 -58.5 25.5c-24.667 0 -48.667 -9.33301 -72 -28c-31.333 -24.667 -57.666 -62 -78.999 -112c-30.667 -73.333 -52.334 -148 -65.001 -224zM511.002 1147
c25.333 0 47.166 -9 65.499 -27s27.5 -40 27.5 -66c0 -25.333 -9.16699 -47.166 -27.5 -65.499s-40.166 -27.5 -65.499 -27.5s-47.166 9.16699 -65.499 27.5s-27.5 40.166 -27.5 65.499c0 26 9.16699 48 27.5 66s40.166 27 65.499 27zM800.002 1146c26 0 48 -9 66 -27
s27 -39.667 27 -65c0 -26 -9 -48 -27 -66s-40 -27 -66 -27c-25.333 0 -47 9 -65 27s-27 40 -27 66c0 25.333 9 47 27 65s39.667 27 65 27z" />
    <glyph glyph-name="igrave" unicode="&#xec;" horiz-adv-x="491" 
d="M206 609l-44.001 33.999c66.667 73.333 127.5 125.5 182.5 156.5s101.833 46.5 140.5 46.5c21.333 0 37.666 -4.66699 48.999 -14s17 -22 17 -38c0 -19.333 -21.667 -101.333 -65 -246c-70.667 -236.667 -106 -379.334 -106 -428.001
c0 -9.33301 2.33301 -17.166 7 -23.499s9.66699 -9.5 15 -9.5c6.66699 0 17.334 4.66699 32.001 14c37.333 24.667 70.333 51.334 99 80.001c13.333 12.667 24.333 22.667 33 30l40 -38c-81.333 -74 -130.666 -117.333 -147.999 -130c-38 -28 -73.333 -48.333 -106 -61
c-16.667 -6.66699 -33 -10 -49 -10c-24 0 -42.833 7.16699 -56.5 21.5s-20.5 34.833 -20.5 61.5c0 48 13.333 122.667 40 224c46 179.333 82.333 308.333 109 387c5.33301 16 8 29.667 8 41c0 13.333 -6 20 -18 20c-13.333 0 -28.5 -5.33301 -45.5 -16
s-54.833 -44.667 -113.5 -102zM331.999 1252h167l110 -290h-60z" />
    <glyph glyph-name="iacute" unicode="&#xed;" horiz-adv-x="491" 
d="M206 609l-44.001 33.999c66.667 73.333 127.5 125.5 182.5 156.5s101.833 46.5 140.5 46.5c21.333 0 37.666 -4.66699 48.999 -14s17 -22 17 -38c0 -19.333 -21.667 -101.333 -65 -246c-70.667 -236.667 -106 -379.334 -106 -428.001
c0 -9.33301 2.33301 -17.166 7 -23.499s9.66699 -9.5 15 -9.5c6.66699 0 17.334 4.66699 32.001 14c37.333 24.667 70.333 51.334 99 80.001c13.333 12.667 24.333 22.667 33 30l40 -38c-81.333 -74 -130.666 -117.333 -147.999 -130c-38 -28 -73.333 -48.333 -106 -61
c-16.667 -6.66699 -33 -10 -49 -10c-24 0 -42.833 7.16699 -56.5 21.5s-20.5 34.833 -20.5 61.5c0 48 13.333 122.667 40 224c46 179.333 82.333 308.333 109 387c5.33301 16 8 29.667 8 41c0 13.333 -6 20 -18 20c-13.333 0 -28.5 -5.33301 -45.5 -16
s-54.833 -44.667 -113.5 -102zM610.999 1253h190l-339 -290h-59z" />
    <glyph glyph-name="icircumflex" unicode="&#xee;" horiz-adv-x="491" 
d="M206 609l-44.001 33.999c66.667 73.333 127.5 125.5 182.5 156.5s101.833 46.5 140.5 46.5c21.333 0 37.666 -4.66699 48.999 -14s17 -22 17 -38c0 -19.333 -21.667 -101.333 -65 -246c-70.667 -236.667 -106 -379.334 -106 -428.001
c0 -9.33301 2.33301 -17.166 7 -23.499s9.66699 -9.5 15 -9.5c6.66699 0 17.334 4.66699 32.001 14c37.333 24.667 70.333 51.334 99 80.001c13.333 12.667 24.333 22.667 33 30l40 -38c-81.333 -74 -130.666 -117.333 -147.999 -130c-38 -28 -73.333 -48.333 -106 -61
c-16.667 -6.66699 -33 -10 -49 -10c-24 0 -42.833 7.16699 -56.5 21.5s-20.5 34.833 -20.5 61.5c0 48 13.333 122.667 40 224c46 179.333 82.333 308.333 109 387c5.33301 16 8 29.667 8 41c0 13.333 -6 20 -18 20c-13.333 0 -28.5 -5.33301 -45.5 -16
s-54.833 -44.667 -113.5 -102zM526.999 1254h151l73 -291h-57l-104 183l-268 -183h-64z" />
    <glyph glyph-name="idieresis" unicode="&#xef;" horiz-adv-x="491" 
d="M206 609l-44.001 33.999c66.667 73.333 127.5 125.5 182.5 156.5s101.833 46.5 140.5 46.5c21.333 0 37.666 -4.66699 48.999 -14s17 -22 17 -38c0 -19.333 -21.667 -101.333 -65 -246c-70.667 -236.667 -106 -379.334 -106 -428.001
c0 -9.33301 2.33301 -17.166 7 -23.499s9.66699 -9.5 15 -9.5c6.66699 0 17.334 4.66699 32.001 14c37.333 24.667 70.333 51.334 99 80.001c13.333 12.667 24.333 22.667 33 30l40 -38c-81.333 -74 -130.666 -117.333 -147.999 -130c-38 -28 -73.333 -48.333 -106 -61
c-16.667 -6.66699 -33 -10 -49 -10c-24 0 -42.833 7.16699 -56.5 21.5s-20.5 34.833 -20.5 61.5c0 48 13.333 122.667 40 224c46 179.333 82.333 308.333 109 387c5.33301 16 8 29.667 8 41c0 13.333 -6 20 -18 20c-13.333 0 -28.5 -5.33301 -45.5 -16
s-54.833 -44.667 -113.5 -102zM408.999 1147c25.333 0 47.166 -9 65.499 -27s27.5 -40 27.5 -66c0 -25.333 -9.16699 -47.166 -27.5 -65.499s-40.166 -27.5 -65.499 -27.5s-47.166 9.16699 -65.499 27.5s-27.5 40.166 -27.5 65.499c0 26 9.16699 48 27.5 66
s40.166 27 65.499 27zM697.999 1146c26 0 48 -9 66 -27s27 -39.667 27 -65c0 -26 -9 -48 -27 -66s-40 -27 -66 -27c-25.333 0 -47 9 -65 27s-27 40 -27 66c0 25.333 9 47 27 65s39.667 27 65 27z" />
    <glyph glyph-name="eth" unicode="&#xf0;" horiz-adv-x="819" 
d="M494 1413l65 -0.000976562c47.333 -66.667 95 -138.667 143 -216l259 38l10 -53l-245 -35c54 -85.333 97.333 -182.166 130 -290.499s49 -207.5 49 -297.5c0 -150 -55.667 -288.333 -167 -415c-102 -116 -210.667 -174 -326 -174c-70 0 -127.5 24.333 -172.5 73
s-67.5 110.667 -67.5 186c0 100 24.5 200.333 73.5 301s107.167 175.5 174.5 224.5s134 73.5 200 73.5c26.667 0 54 -9 82 -27c-14 65.333 -25.667 115.333 -35 150l-56 178l-309 -46l-9 55l299 44zM587 764.999c-36.667 0 -72.8301 -14.832 -108.497 -44.499
s-67.334 -84.167 -95.001 -163.5s-41.5 -159.333 -41.5 -240c0 -90.667 16 -161 48 -211c24 -38 55 -57 93 -57c35.333 0 71.166 15.167 107.499 45.5s68.666 83.166 96.999 158.499s42.5 152 42.5 230c0 82 -11.833 149.5 -35.5 202.5s-59.5 79.5 -107.5 79.5z" />
    <glyph glyph-name="ntilde" unicode="&#xf1;" horiz-adv-x="942" 
d="M204 607l-33.998 34.999c85.333 81.333 153.333 135.333 204 162s94 40 130 40c14 0 25 -3 33 -9s12 -13 12 -21c0 -6 -1.66699 -16.667 -5 -32l-45 -201c68 75.333 153.333 145.666 256 210.999c54.667 34 99.667 51 135 51c26 0 46.333 -8.33301 61 -25
s22 -40.667 22 -72c0 -20.667 -3 -44 -9 -70c-10.667 -43.333 -38.667 -137.666 -84 -282.999c-42.667 -136 -64 -226.333 -64 -271c0 -13.333 2 -23.333 6 -30s9.66699 -10 17 -10c19.333 0 49.666 18.667 90.999 56c29.333 26.667 58.666 51.334 87.999 74.001l25 -36
c-61.333 -68 -125 -122.667 -191 -164c-42 -26.667 -76.667 -40 -104 -40c-25.333 0 -45 9.16699 -59 27.5s-21 48.166 -21 89.499c0 59.333 37 207 111 443c22.667 84 34 133 34 147c0 20.667 -12.333 31 -37 31c-26.667 0 -61 -14 -103 -42
c-62.667 -41.333 -115 -90 -157 -146c-26.667 -36 -49 -93.333 -67 -172l-81 -349h-149c28 100 52.333 195.667 73 287l89 380c3.33301 15.333 5 26.333 5 33c0 18 -6.66699 27 -20 27c-10.667 0 -26 -7 -46 -21c-41.333 -27.333 -80 -60.666 -116 -99.999zM1018 1187
l57.0039 0.000976562c-18.667 -61.333 -46.167 -108.333 -82.5 -141s-74.833 -49 -115.5 -49c-20.667 0 -39.334 2 -56.001 6c-8.66699 2 -31 11.667 -67 29c-37.333 17.333 -61 27.666 -71 30.999c-14.667 4 -29.334 6 -44.001 6c-18 0 -33.333 -5 -46 -15s-26 -29 -40 -57
h-55c16 66 40.833 114.167 74.5 144.5s70.167 45.5 109.5 45.5c29.333 0 73.666 -11.667 132.999 -35c56 -22 95.333 -33 118 -33c21.333 0 40.166 6.5 56.499 19.5s25.833 29.167 28.5 48.5z" />
    <glyph glyph-name="ograve" unicode="&#xf2;" horiz-adv-x="819" 
d="M670 841c65.333 0 119.667 -26.001 163 -78.001s65 -124.333 65 -217c0 -148 -52 -280.833 -156 -398.5s-214 -176.5 -330 -176.5c-71.333 0 -128.833 23.333 -172.5 70s-65.5 110.334 -65.5 191.001c0 140 40 269.333 120 388c100.667 147.333 226 221 376 221z
M585.001 765.999c-56.667 0 -111.5 -40.5 -164.5 -121.5s-79.5 -192.833 -79.5 -335.5c0 -86.667 16.333 -155 49 -205c24 -36.667 56 -55 96 -55c56 0 107 34.667 153 104c58.667 90 88 201.667 88 335c0 100 -13.5 171.333 -40.5 214s-60.833 64 -101.5 64zM496.001 1252
h167l110 -290h-60z" />
    <glyph glyph-name="oacute" unicode="&#xf3;" horiz-adv-x="819" 
d="M670 841c65.333 0 119.667 -26.001 163 -78.001s65 -124.333 65 -217c0 -148 -52 -280.833 -156 -398.5s-214 -176.5 -330 -176.5c-71.333 0 -128.833 23.333 -172.5 70s-65.5 110.334 -65.5 191.001c0 140 40 269.333 120 388c100.667 147.333 226 221 376 221z
M585.001 765.999c-56.667 0 -111.5 -40.5 -164.5 -121.5s-79.5 -192.833 -79.5 -335.5c0 -86.667 16.333 -155 49 -205c24 -36.667 56 -55 96 -55c56 0 107 34.667 153 104c58.667 90 88 201.667 88 335c0 100 -13.5 171.333 -40.5 214s-60.833 64 -101.5 64zM775.001 1253
h190l-339 -290h-59z" />
    <glyph glyph-name="ocircumflex" unicode="&#xf4;" horiz-adv-x="819" 
d="M670 841c65.333 0 119.667 -26.001 163 -78.001s65 -124.333 65 -217c0 -148 -52 -280.833 -156 -398.5s-214 -176.5 -330 -176.5c-71.333 0 -128.833 23.333 -172.5 70s-65.5 110.334 -65.5 191.001c0 140 40 269.333 120 388c100.667 147.333 226 221 376 221z
M585.001 765.999c-56.667 0 -111.5 -40.5 -164.5 -121.5s-79.5 -192.833 -79.5 -335.5c0 -86.667 16.333 -155 49 -205c24 -36.667 56 -55 96 -55c56 0 107 34.667 153 104c58.667 90 88 201.667 88 335c0 100 -13.5 171.333 -40.5 214s-60.833 64 -101.5 64zM691.001 1254
h151l73 -291h-57l-104 183l-268 -183h-64z" />
    <glyph glyph-name="otilde" unicode="&#xf5;" horiz-adv-x="819" 
d="M670 841c65.333 0 119.667 -26.001 163 -78.001s65 -124.333 65 -217c0 -148 -52 -280.833 -156 -398.5s-214 -176.5 -330 -176.5c-71.333 0 -128.833 23.333 -172.5 70s-65.5 110.334 -65.5 191.001c0 140 40 269.333 120 388c100.667 147.333 226 221 376 221z
M585.001 765.999c-56.667 0 -111.5 -40.5 -164.5 -121.5s-79.5 -192.833 -79.5 -335.5c0 -86.667 16.333 -155 49 -205c24 -36.667 56 -55 96 -55c56 0 107 34.667 153 104c58.667 90 88 201.667 88 335c0 100 -13.5 171.333 -40.5 214s-60.833 64 -101.5 64zM958.001 1187
l57.0039 0.000976562c-18.667 -61.333 -46.167 -108.333 -82.5 -141s-74.833 -49 -115.5 -49c-20.667 0 -39.334 2 -56.001 6c-8.66699 2 -31 11.667 -67 29c-37.333 17.333 -61 27.666 -71 30.999c-14.667 4 -29.334 6 -44.001 6c-18 0 -33.333 -5 -46 -15s-26 -29 -40 -57
h-55c16 66 40.833 114.167 74.5 144.5s70.167 45.5 109.5 45.5c29.333 0 73.666 -11.667 132.999 -35c56 -22 95.333 -33 118 -33c21.333 0 40.166 6.5 56.499 19.5s25.833 29.167 28.5 48.5z" />
    <glyph glyph-name="odieresis" unicode="&#xf6;" horiz-adv-x="819" 
d="M670 841c65.333 0 119.667 -26.001 163 -78.001s65 -124.333 65 -217c0 -148 -52 -280.833 -156 -398.5s-214 -176.5 -330 -176.5c-71.333 0 -128.833 23.333 -172.5 70s-65.5 110.334 -65.5 191.001c0 140 40 269.333 120 388c100.667 147.333 226 221 376 221z
M585.001 765.999c-56.667 0 -111.5 -40.5 -164.5 -121.5s-79.5 -192.833 -79.5 -335.5c0 -86.667 16.333 -155 49 -205c24 -36.667 56 -55 96 -55c56 0 107 34.667 153 104c58.667 90 88 201.667 88 335c0 100 -13.5 171.333 -40.5 214s-60.833 64 -101.5 64zM574.001 1147
c25.333 0 47.166 -9 65.499 -27s27.5 -40 27.5 -66c0 -25.333 -9.16699 -47.166 -27.5 -65.499s-40.166 -27.5 -65.499 -27.5s-47.166 9.16699 -65.499 27.5s-27.5 40.166 -27.5 65.499c0 26 9.16699 48 27.5 66s40.166 27 65.499 27zM863.001 1146c26 0 48 -9 66 -27
s27 -39.667 27 -65c0 -26 -9 -48 -27 -66s-40 -27 -66 -27c-25.333 0 -47 9 -65 27s-27 40 -27 66c0 25.333 9 47 27 65s39.667 27 65 27z" />
    <glyph glyph-name="divide" unicode="&#xf7;" horiz-adv-x="1124" 
d="M745 965c24.667 0 45.834 -8.83301 63.501 -26.5s26.5 -38.834 26.5 -63.501c0 -24 -8.83301 -44.833 -26.5 -62.5s-38.834 -26.5 -63.501 -26.5s-45.667 8.66699 -63 26s-26 38.333 -26 63s8.83301 45.834 26.5 63.501s38.5 26.5 62.5 26.5zM1187 643v-113h-885v113h885
zM745 387c24.667 0 45.834 -8.66699 63.501 -26s26.5 -38.333 26.5 -63s-8.83301 -45.667 -26.5 -63s-38.834 -26 -63.501 -26s-45.667 8.66699 -63 26s-26 38.333 -26 63s8.66699 45.667 26 63s38.333 26 63 26z" />
    <glyph glyph-name="oslash" unicode="&#xf8;" 
d="M886 748c34.667 -54.667 51.999 -121.334 51.999 -200.001c0 -148.667 -51.833 -282 -155.5 -400s-213.167 -177 -328.5 -177c-57.333 0 -106.666 15.333 -147.999 46l-66 -83l-39 33l68 86c-36.667 48.667 -55 108.334 -55 179.001c0 107.333 24.833 210.333 74.5 309
s111.5 173.5 185.5 224.5s148.667 76.5 224 76.5c58 0 108 -17.667 150 -53l70 90l45 -33zM389.999 208l355 450c-24 72 -63.667 108 -119 108c-57.333 0 -112.333 -40.5 -165 -121.5s-79 -192.833 -79 -335.5c0 -37.333 2.66699 -71 8 -101zM760.999 590l-352 -444
c28 -64.667 67 -97 117 -97c56 0 107 34.667 153 104c59.333 90 89 201.667 89 335c0 36 -2.33301 70 -7 102z" />
    <glyph glyph-name="ugrave" unicode="&#xf9;" horiz-adv-x="942" 
d="M850 814l141.999 0.000976562l-94 -349c-55.333 -202.667 -83 -318 -83 -346c0 -12.667 3 -22.334 9 -29.001s12.667 -10 20 -10c11.333 0 24.666 5 39.999 15c22 15.333 63.667 54 125 116l33 -37c-134 -139.333 -232.667 -209 -296 -209
c-21.333 0 -39.5 8.16699 -54.5 24.5s-22.5 39.5 -22.5 69.5c0 34.667 7.33301 81 22 139c-59.333 -68 -132.666 -127.667 -219.999 -179c-58 -34 -108.333 -51 -151 -51c-23.333 0 -41.666 7.66699 -54.999 23s-20 39.666 -20 72.999c0 26 3 54 9 84
c8.66699 42 30.667 126.333 66 253c44.667 160.667 67 257 67 289c0 18.667 -6.66699 28 -20 28c-12 0 -28.333 -6.16699 -49 -18.5s-56 -42.166 -106 -89.499l-44 35c89.333 80 157.5 132.5 204.5 157.5s84.833 37.5 113.5 37.5c16 0 29 -5.83301 39 -17.5
s15 -29.834 15 -54.501c0 -46 -24 -159 -72 -339c-42.667 -162 -64 -254.333 -64 -277c0 -14 4.5 -26 13.5 -36s18.833 -15 29.5 -15c37.333 0 90.333 30.833 159 92.5s113.667 131.834 135 210.501zM556.999 1252h167l110 -290h-60z" />
    <glyph glyph-name="uacute" unicode="&#xfa;" horiz-adv-x="942" 
d="M850 814l141.999 0.000976562l-94 -349c-55.333 -202.667 -83 -318 -83 -346c0 -12.667 3 -22.334 9 -29.001s12.667 -10 20 -10c11.333 0 24.666 5 39.999 15c22 15.333 63.667 54 125 116l33 -37c-134 -139.333 -232.667 -209 -296 -209
c-21.333 0 -39.5 8.16699 -54.5 24.5s-22.5 39.5 -22.5 69.5c0 34.667 7.33301 81 22 139c-59.333 -68 -132.666 -127.667 -219.999 -179c-58 -34 -108.333 -51 -151 -51c-23.333 0 -41.666 7.66699 -54.999 23s-20 39.666 -20 72.999c0 26 3 54 9 84
c8.66699 42 30.667 126.333 66 253c44.667 160.667 67 257 67 289c0 18.667 -6.66699 28 -20 28c-12 0 -28.333 -6.16699 -49 -18.5s-56 -42.166 -106 -89.499l-44 35c89.333 80 157.5 132.5 204.5 157.5s84.833 37.5 113.5 37.5c16 0 29 -5.83301 39 -17.5
s15 -29.834 15 -54.501c0 -46 -24 -159 -72 -339c-42.667 -162 -64 -254.333 -64 -277c0 -14 4.5 -26 13.5 -36s18.833 -15 29.5 -15c37.333 0 90.333 30.833 159 92.5s113.667 131.834 135 210.501zM835.999 1253h190l-339 -290h-59z" />
    <glyph glyph-name="ucircumflex" unicode="&#xfb;" horiz-adv-x="942" 
d="M850 814l141.999 0.000976562l-94 -349c-55.333 -202.667 -83 -318 -83 -346c0 -12.667 3 -22.334 9 -29.001s12.667 -10 20 -10c11.333 0 24.666 5 39.999 15c22 15.333 63.667 54 125 116l33 -37c-134 -139.333 -232.667 -209 -296 -209
c-21.333 0 -39.5 8.16699 -54.5 24.5s-22.5 39.5 -22.5 69.5c0 34.667 7.33301 81 22 139c-59.333 -68 -132.666 -127.667 -219.999 -179c-58 -34 -108.333 -51 -151 -51c-23.333 0 -41.666 7.66699 -54.999 23s-20 39.666 -20 72.999c0 26 3 54 9 84
c8.66699 42 30.667 126.333 66 253c44.667 160.667 67 257 67 289c0 18.667 -6.66699 28 -20 28c-12 0 -28.333 -6.16699 -49 -18.5s-56 -42.166 -106 -89.499l-44 35c89.333 80 157.5 132.5 204.5 157.5s84.833 37.5 113.5 37.5c16 0 29 -5.83301 39 -17.5
s15 -29.834 15 -54.501c0 -46 -24 -159 -72 -339c-42.667 -162 -64 -254.333 -64 -277c0 -14 4.5 -26 13.5 -36s18.833 -15 29.5 -15c37.333 0 90.333 30.833 159 92.5s113.667 131.834 135 210.501zM751.999 1254h151l73 -291h-57l-104 183l-268 -183h-64z" />
    <glyph glyph-name="udieresis" unicode="&#xfc;" horiz-adv-x="942" 
d="M850 814l141.999 0.000976562l-94 -349c-55.333 -202.667 -83 -318 -83 -346c0 -12.667 3 -22.334 9 -29.001s12.667 -10 20 -10c11.333 0 24.666 5 39.999 15c22 15.333 63.667 54 125 116l33 -37c-134 -139.333 -232.667 -209 -296 -209
c-21.333 0 -39.5 8.16699 -54.5 24.5s-22.5 39.5 -22.5 69.5c0 34.667 7.33301 81 22 139c-59.333 -68 -132.666 -127.667 -219.999 -179c-58 -34 -108.333 -51 -151 -51c-23.333 0 -41.666 7.66699 -54.999 23s-20 39.666 -20 72.999c0 26 3 54 9 84
c8.66699 42 30.667 126.333 66 253c44.667 160.667 67 257 67 289c0 18.667 -6.66699 28 -20 28c-12 0 -28.333 -6.16699 -49 -18.5s-56 -42.166 -106 -89.499l-44 35c89.333 80 157.5 132.5 204.5 157.5s84.833 37.5 113.5 37.5c16 0 29 -5.83301 39 -17.5
s15 -29.834 15 -54.501c0 -46 -24 -159 -72 -339c-42.667 -162 -64 -254.333 -64 -277c0 -14 4.5 -26 13.5 -36s18.833 -15 29.5 -15c37.333 0 90.333 30.833 159 92.5s113.667 131.834 135 210.501zM634.999 1147c25.333 0 47.166 -9 65.499 -27s27.5 -40 27.5 -66
c0 -25.333 -9.16699 -47.166 -27.5 -65.499s-40.166 -27.5 -65.499 -27.5s-47.166 9.16699 -65.499 27.5s-27.5 40.166 -27.5 65.499c0 26 9.16699 48 27.5 66s40.166 27 65.499 27zM923.999 1146c26 0 48 -9 66 -27s27 -39.667 27 -65c0 -26 -9 -48 -27 -66
s-40 -27 -66 -27c-25.333 0 -47 9 -65 27s-27 40 -27 66c0 25.333 9 47 27 65s39.667 27 65 27z" />
    <glyph glyph-name="yacute" unicode="&#xfd;" horiz-adv-x="819" 
d="M171 638l-31.998 46.999l74 50c72 49.333 122.667 81 152 95c16.667 8 32 12 46 12s27.333 -8 40 -24c58.667 -74 108 -173.833 148 -299.5s60 -247.5 60 -365.5c0 -15.333 -0.666992 -38.666 -2 -69.999c112.667 207.333 169 372 169 494c0 25.333 -5.66699 59 -17 101
c-12 46.667 -18 80 -18 100c0 19.333 6.16699 35.333 18.5 48s27.833 19 46.5 19c23.333 0 42.166 -9 56.499 -27s21.5 -43.667 21.5 -77c0 -86 -19.667 -193.167 -59 -321.5s-101.166 -266.333 -185.499 -414s-161.333 -257.334 -231 -329.001s-137 -123 -202 -154
s-126.5 -46.5 -184.5 -46.5c-44 0 -77.167 8.16699 -99.5 24.5s-33.5 35.833 -33.5 58.5c0 20 8.66699 37.167 26 51.5s40.666 21.5 69.999 21.5c22.667 0 53.667 -4.33301 93 -13c42 -9.33301 70.667 -14 86 -14c40.667 0 83.667 17 129 51
c62 46.667 111.167 102.334 147.5 167.001s54.5 130 54.5 196c0 92.667 -13.5 204 -40.5 334s-65.167 229.333 -114.5 298c-24.667 35.333 -51 53 -79 53c-32.667 0 -79.334 -22 -140.001 -66zM775.002 1253h190l-339 -290h-59z" />
    <glyph glyph-name="thorn" unicode="&#xfe;" 
d="M494 593c102 102 171.668 165.002 209.001 189.002c62.667 40.667 120.334 61 173.001 61c33.333 0 61.666 -16 84.999 -48s35 -80.333 35 -145c0 -161.333 -50.333 -314.666 -151 -459.999s-212 -218 -334 -218c-48 0 -96 13 -144 39l-85 -330
c-5.33301 -20 -8 -36.333 -8 -49c0 -24.667 9.33301 -42.334 28 -53.001c28.667 -16.667 89 -30.334 181 -41.001l-13 -50c-90.667 8.66699 -175 13 -253 13c-63.333 0 -145.333 -4.33301 -246 -13l13 50c50.667 5.33301 87.5 19.166 110.5 41.499s41.5 62.833 55.5 121.5
l295 1228c28.667 122 64.5 214 107.5 276s99.5 111.833 169.5 149.5s139.333 56.5 208 56.5c28.667 0 51.167 -7 67.5 -21s24.5 -31.667 24.5 -53c0 -18 -8 -33.833 -24 -47.5s-38.333 -20.5 -67 -20.5c-16 0 -36.333 1.66699 -61 5c-56 8 -96.333 12 -121 12
c-29.333 0 -52.833 -11 -70.5 -33s-38.834 -81.333 -63.501 -178zM391.001 121.002c52.667 -52.667 106.667 -79 162 -79c80 0 150.167 62.5 210.5 187.5s90.5 246.5 90.5 364.5c0 38 -8.5 66.833 -25.5 86.5s-39.833 29.5 -68.5 29.5c-32 0 -68 -15.667 -108 -47
c-62 -48.667 -109.333 -97 -142 -145c-23.333 -34.667 -45.333 -94.667 -66 -180z" />
    <glyph glyph-name="ydieresis" unicode="&#xff;" horiz-adv-x="819" 
d="M171 638l-31.998 46.999l74 50c72 49.333 122.667 81 152 95c16.667 8 32 12 46 12s27.333 -8 40 -24c58.667 -74 108 -173.833 148 -299.5s60 -247.5 60 -365.5c0 -15.333 -0.666992 -38.666 -2 -69.999c112.667 207.333 169 372 169 494c0 25.333 -5.66699 59 -17 101
c-12 46.667 -18 80 -18 100c0 19.333 6.16699 35.333 18.5 48s27.833 19 46.5 19c23.333 0 42.166 -9 56.499 -27s21.5 -43.667 21.5 -77c0 -86 -19.667 -193.167 -59 -321.5s-101.166 -266.333 -185.499 -414s-161.333 -257.334 -231 -329.001s-137 -123 -202 -154
s-126.5 -46.5 -184.5 -46.5c-44 0 -77.167 8.16699 -99.5 24.5s-33.5 35.833 -33.5 58.5c0 20 8.66699 37.167 26 51.5s40.666 21.5 69.999 21.5c22.667 0 53.667 -4.33301 93 -13c42 -9.33301 70.667 -14 86 -14c40.667 0 83.667 17 129 51
c62 46.667 111.167 102.334 147.5 167.001s54.5 130 54.5 196c0 92.667 -13.5 204 -40.5 334s-65.167 229.333 -114.5 298c-24.667 35.333 -51 53 -79 53c-32.667 0 -79.334 -22 -140.001 -66zM573.002 1147c25.333 0 47.166 -9 65.499 -27s27.5 -40 27.5 -66
c0 -25.333 -9.16699 -47.166 -27.5 -65.499s-40.166 -27.5 -65.499 -27.5s-47.166 9.16699 -65.499 27.5s-27.5 40.166 -27.5 65.499c0 26 9.16699 48 27.5 66s40.166 27 65.499 27zM862.002 1146c26 0 48 -9 66 -27s27 -39.667 27 -65c0 -26 -9 -48 -27 -66
s-40 -27 -66 -27c-25.333 0 -47 9 -65 27s-27 40 -27 66c0 25.333 9 47 27 65s39.667 27 65 27z" />
    <glyph glyph-name="dotlessi" unicode="&#x131;" horiz-adv-x="491" 
d="M206 609l-44.001 33.999c66.667 73.333 127.5 125.5 182.5 156.5s101.833 46.5 140.5 46.5c21.333 0 37.666 -4.66699 48.999 -14s17 -22 17 -38c0 -19.333 -21.667 -101.333 -65 -246c-70.667 -236.667 -106 -379.334 -106 -428.001
c0 -9.33301 2.33301 -17.166 7 -23.499s9.66699 -9.5 15 -9.5c6.66699 0 17.334 4.66699 32.001 14c37.333 24.667 70.333 51.334 99 80.001c13.333 12.667 24.333 22.667 33 30l40 -38c-81.333 -74 -130.666 -117.333 -147.999 -130c-38 -28 -73.333 -48.333 -106 -61
c-16.667 -6.66699 -33 -10 -49 -10c-24 0 -42.833 7.16699 -56.5 21.5s-20.5 34.833 -20.5 61.5c0 48 13.333 122.667 40 224c46 179.333 82.333 308.333 109 387c5.33301 16 8 29.667 8 41c0 13.333 -6 20 -18 20c-13.333 0 -28.5 -5.33301 -45.5 -16
s-54.833 -44.667 -113.5 -102z" />
    <glyph glyph-name="OE" unicode="&#x152;" horiz-adv-x="1679" 
d="M1729 938h-53c7.33301 46 11 80 11 102c0 24.667 -9.16699 42.667 -27.5 54s-55.166 17 -110.499 17c-124 0 -216 -1.66699 -276 -5c-13.333 -71.333 -49.333 -217.666 -108 -438.999h202c56 0 90.333 4.66699 103 14c9.33301 6.66699 23.666 35.334 42.999 86.001h54
c-35.333 -107.333 -59 -205 -71 -293h-49c4.66699 35.333 7 59.666 7 72.999c0 20.667 -8 35.667 -24 45s-51.667 14 -107 14h-173c-53.333 -207.333 -101.333 -384.333 -144 -531c74.667 18.667 141.334 28 200.001 28c38.667 0 105.667 -6.66699 201 -20
c84 -12 142 -18 174 -18c36 0 62 5.5 78 16.5s24 24.167 24 39.5c0 10 -6.33301 24.333 -19 43c-17.333 25.333 -26 47.333 -26 66c0 17.333 5.16699 31.5 15.5 42.5s23.5 16.5 39.5 16.5c22 0 41 -10 57 -30s24 -45.333 24 -76c0 -58 -24.333 -107.167 -73 -147.5
s-116.334 -60.5 -203.001 -60.5c-46.667 0 -98.667 2.33301 -156 7c-133.333 12 -238.333 18 -315 18c-82 0 -161 -4.66699 -237 -14c-52.667 -6.66699 -94 -10 -124 -10c-139.333 0 -250.333 43.667 -333 131s-124 206 -124 356c0 136 31.667 261.667 95 377
s147.833 204.5 253.5 267.5s223.167 94.5 352.5 94.5c47.333 0 105.333 -3.66699 174 -11c136 -14 265.667 -21 389 -21c58 0 103 1.16699 135 3.5s89 9.5 171 21.5c-17.333 -54.667 -29 -97.834 -35 -129.501s-11 -74.167 -15 -127.5zM905 1143
c-142.667 0 -261.333 -56.335 -356 -169.002c-106.667 -126.667 -160 -290.667 -160 -492c0 -141.333 32 -255 96 -341c50.667 -68 118 -102 202 -102c48.667 0 90.667 11.333 126 34c26.667 16.667 48 44.334 64 83.001s57 189.334 123 452.001
c52.667 208 79 334.667 79 380c0 44.667 -16 81.667 -48 111s-74 44 -126 44z" />
    <glyph glyph-name="oe" unicode="&#x153;" horiz-adv-x="1147" 
d="M827 676c80.667 111.333 172.333 167 275 167c44 0 77.667 -11.667 101 -35s35 -56 35 -98c0 -60 -28.5 -119.833 -85.5 -179.5s-164.833 -123.5 -323.5 -191.5c-5.33301 -50 -8 -86.333 -8 -109c0 -42 7.16699 -72.667 21.5 -92s32.833 -29 55.5 -29
c55.333 0 140.333 47.333 255 142l30 -44c-70.667 -78.667 -140.5 -137.167 -209.5 -175.5s-126.5 -57.5 -172.5 -57.5c-35.333 0 -63.833 11.833 -85.5 35.5s-36.167 58.834 -43.5 105.501c-40 -48 -83.5 -84 -130.5 -108s-97.5 -36 -151.5 -36
c-60.667 0 -111.5 23.5 -152.5 70.5s-61.5 110.5 -61.5 190.5c0 149.333 41.333 284.333 124 405c93.333 136 204 204 332 204c48 0 87.5 -12.333 118.5 -37s56.5 -67.334 76.5 -128.001zM559.999 766c-49.333 0 -94.333 -34.333 -135 -103c-54.667 -90 -82 -208 -82 -354
c0 -88.667 15.333 -158 46 -208c20.667 -34.667 48.334 -52 83.001 -52c48 0 92 32.667 132 98c54.667 91.333 82 205 82 341c0 102 -12.333 173.833 -37 215.5s-54.334 62.5 -89.001 62.5zM837.999 396c89.333 45.333 156.999 95.667 202.999 151
c34.667 40 52 79.667 52 119c0 30 -6.5 53.167 -19.5 69.5s-29.833 24.5 -50.5 24.5c-33.333 0 -63.666 -21 -90.999 -63c-40 -62.667 -71.333 -163 -94 -301z" />
    <glyph glyph-name="Scaron" unicode="&#x160;" horiz-adv-x="942" 
d="M1029 811l-51.999 0.000976562c7.33301 70 11 123 11 159c0 51.333 -13.833 91.833 -41.5 121.5s-65.167 44.5 -112.5 44.5c-73.333 0 -137.333 -26.5 -192 -79.5s-82 -112.5 -82 -178.5c0 -35.333 7.5 -67.333 22.5 -96s48.167 -68.667 99.5 -120
c94 -92 155.667 -164 185 -216s44 -102.667 44 -152c0 -72.667 -22.167 -142.667 -66.5 -210s-109.666 -122.833 -195.999 -166.5s-177.5 -65.5 -273.5 -65.5c-94.667 0 -174.5 24.667 -239.5 74s-97.5 101.333 -97.5 156c0 29.333 8.5 53.666 25.5 72.999s36.5 29 58.5 29
c22.667 0 41.334 -9 56.001 -27c9.33301 -10.667 18.666 -34.667 27.999 -72c10.667 -45.333 23.667 -78.166 39 -98.499s36.5 -37 63.5 -50s56.5 -19.5 88.5 -19.5c95.333 0 178.666 32.167 249.999 96.5s107 135.5 107 213.5c0 26.667 -4.5 53.167 -13.5 79.5
s-25.5 56.166 -49.5 89.499c-16.667 22.667 -53.667 62.667 -111 120c-56.667 56 -92.334 94.333 -107.001 115c-20.667 30 -36 60.167 -46 90.5s-15 60.5 -15 90.5c0 60.667 20.333 121.667 61 183s93.5 110.166 158.5 146.499s138.833 54.5 221.5 54.5
c41.333 0 92.333 -6.33301 153 -19c34.667 -6.66699 64.667 -11.667 90 -15c-14.667 -43.333 -26 -84.166 -34 -122.499s-19 -114.5 -33 -228.5zM719.001 1618h61l98 -181l273 181h58l-264 -291h-153z" />
    <glyph glyph-name="scaron" unicode="&#x161;" horiz-adv-x="655" 
d="M613 842c59.333 0 105.167 -11.4961 137.5 -34.4961s48.5 -49.5 48.5 -79.5c0 -18 -6.83301 -33.667 -20.5 -47s-30.167 -20 -49.5 -20c-12.667 0 -23.667 2.83301 -33 8.5s-22.666 19.834 -39.999 42.501c-32.667 43.333 -65 65 -97 65
c-27.333 0 -51.5 -10.5 -72.5 -31.5s-31.5 -47.167 -31.5 -78.5c0 -27.333 6.66699 -53.833 20 -79.5s47 -67.167 101 -124.5c74 -78.667 111 -153.334 111 -224.001s-30 -132.5 -90 -185.5s-137.333 -79.5 -232 -79.5c-79.333 0 -138.333 16.167 -177 48.5
s-58 72.166 -58 119.499c0 23.333 7.33301 42.666 22 57.999s32.667 23 54 23c18.667 0 34.667 -6.16699 48 -18.5s20 -26.833 20 -43.5c0 -6.66699 -0.666992 -15.334 -2 -26.001c-0.666992 -8.66699 -1 -16 -1 -22c0 -22 9.33301 -40.667 28 -56
c18 -15.333 42.667 -23 74 -23c36 0 67.667 6.16699 95 18.5s48.666 31 63.999 56s23 49.833 23 74.5c0 24 -7.16699 48 -21.5 72s-46.5 63.667 -96.5 119c-69.333 77.333 -104 151.666 -104 222.999c0 65.333 26.333 122.5 79 171.5s119.667 73.5 201 73.5zM454.001 1255
h61l98 -181l273 181h58l-264 -291h-153z" />
    <glyph glyph-name="Ydieresis" unicode="&#x178;" horiz-adv-x="1147" 
d="M1090 59l-21.001 -59.001c-41.333 -10.667 -76.666 -16 -105.999 -16c-31.333 0 -72.666 2.66699 -123.999 8c-48.667 5.33301 -87.334 8 -116.001 8c-40.667 0 -103 -4.66699 -187 -14l17 51c62.667 16 102 33.333 118 52s42.667 98.5 80 239.5s56 233.833 56 278.5
c0 89.333 -17.333 181 -52 275s-78 170 -130 228c-98 -36 -168.167 -69.833 -210.5 -101.5s-76.333 -70.5 -102 -116.5s-38.5 -86.333 -38.5 -121c0 -34 15.333 -65.667 46 -95c26 -25.333 39 -47.666 39 -66.999c0 -17.333 -5.16699 -31.666 -15.5 -42.999
s-23.166 -17 -38.499 -17c-27.333 0 -50.333 13.333 -69 40c-25.333 36.667 -38 80.667 -38 132c0 74 20.667 143.667 62 209s99 120 173 164c43.333 26 114.666 53.667 213.999 83c36.667 10.667 69.667 21.667 99 33c56 -67.333 101 -146.5 135 -237.5
s57.333 -203.833 70 -338.5c124 260 242.167 442.833 354.5 548.5s203.833 158.5 274.5 158.5c22 0 40 -6.33301 54 -19s21 -28.334 21 -47.001c0 -19.333 -8.16699 -35 -24.5 -47s-48.166 -19.667 -95.499 -23c-46.667 -3.33301 -82.667 -12.666 -108 -27.999
c-50 -30.667 -108.833 -87.334 -176.5 -170.001s-134.5 -186 -200.5 -310s-116.333 -253.167 -151 -387.5s-53.334 -221.833 -56.001 -262.5c31.333 -5.33301 62.333 -8 93 -8c46.667 0 98 6.66699 154 20zM929.999 1510c25.333 0 47.166 -9 65.499 -27s27.5 -40 27.5 -66
c0 -25.333 -9.16699 -47.166 -27.5 -65.499s-40.166 -27.5 -65.499 -27.5s-47.166 9.16699 -65.499 27.5s-27.5 40.166 -27.5 65.499c0 26 9.16699 48 27.5 66s40.166 27 65.499 27zM1219 1509c26 0 48 -9 66 -27s27 -39.667 27 -65c0 -26 -9 -48 -27 -66s-40 -27 -66 -27
c-25.333 0 -47 9 -65 27s-27 40 -27 66c0 25.333 9 47 27 65s39.667 27 65 27z" />
    <glyph glyph-name="florin" unicode="&#x192;" horiz-adv-x="819" 
d="M550 705l-155.997 -621c-40 -158 -84.5 -276.167 -133.5 -354.5s-113.833 -140.333 -194.5 -186s-158.334 -68.5 -233.001 -68.5c-39.333 0 -69.333 8.16699 -90 24.5s-31 34.833 -31 55.5c0 18.667 7.66699 35.167 23 49.5s33.333 21.5 54 21.5
c17.333 0 48.666 -5 93.999 -15c51.333 -11.333 89 -17 113 -17c39.333 0 71.666 16.667 96.999 50c42 54 77.667 138.333 107 253l202 808h-239l20 71h238c38 164.667 82.667 288.167 134 370.5s117.166 146.666 197.499 192.999s158.5 69.5 234.5 69.5
c39.333 0 69.333 -8.16699 90 -24.5s31 -35.166 31 -56.499c0 -18 -7.66699 -34.167 -23 -48.5s-33.333 -21.5 -54 -21.5c-17.333 0 -48.666 5 -93.999 15c-51.333 11.333 -89 17 -113 17c-39.333 0 -72 -17 -98 -51c-43.333 -56 -78.333 -140 -105 -252l-51 -211h265
l-18 -71h-267z" />
    <glyph glyph-name="circumflex" unicode="&#x2c6;" horiz-adv-x="696" 
d="M629 1254h151l73 -291h-57l-104 183l-268 -183h-64z" />
    <glyph glyph-name="caron" unicode="&#x2c7;" horiz-adv-x="696" 
d="M475 1255h61l98 -181l273 181h58l-264 -291h-153z" />
    <glyph glyph-name="macron" unicode="&#x2c9;" 
d="M526 1045h463l-52 -86h-460z" />
    <glyph glyph-name="breve" unicode="&#x2d8;" 
d="M556 1241h52.999c7.33301 -46.667 14 -75 20 -85c10 -16.667 26 -30.5 48 -41.5s47 -16.5 75 -16.5c48.667 0 95.334 14 140.001 42c27.333 17.333 59 51 95 101h58c-46.667 -92.667 -96.5 -162.167 -149.5 -208.5s-109.5 -69.5 -169.5 -69.5c-50 0 -91 20.167 -123 60.5
s-48 102.166 -48 185.499c0 6.66699 0.333008 17.334 1 32.001z" />
    <glyph glyph-name="dotaccent" unicode="&#x2d9;" horiz-adv-x="451" 
d="M528 1192c28 0 51.833 -9.83301 71.5 -29.5s29.5 -43.5 29.5 -71.5c0 -28.667 -9.83301 -52.834 -29.5 -72.501s-43.5 -29.5 -71.5 -29.5s-52 9.83301 -72 29.5s-30 43.834 -30 72.501c0 28 10 51.833 30 71.5s44 29.5 72 29.5z" />
    <glyph glyph-name="ring" unicode="&#x2da;" horiz-adv-x="614" 
d="M622 1283c48 0 89 -17.167 123 -51.5s51 -75.5 51 -123.5s-17 -89.167 -51 -123.5s-75 -51.5 -123 -51.5c-48.667 0 -90 17.167 -124 51.5s-51 75.5 -51 123.5s17 89.167 51 123.5s75.333 51.5 124 51.5zM621 1213c-28.667 0 -53.334 -10.333 -74.001 -31
s-31 -45.334 -31 -74.001c0 -29.333 10.333 -54.333 31 -75s45.334 -31 74.001 -31c29.333 0 54.166 10.333 74.499 31s30.5 45.667 30.5 75c0 28.667 -10.167 53.334 -30.5 74.001s-45.166 31 -74.499 31z" />
    <glyph glyph-name="ogonek" unicode="&#x2db;" horiz-adv-x="573" 
d="M241 16h69c-43.333 -68 -65 -132 -65 -192c0 -37.333 12 -67.833 36 -91.5s55.667 -35.5 95 -35.5c15.333 0 35 1.33301 59 4l-27 -60c-47.333 -11.333 -88 -17 -122 -17c-44.667 0 -80.5 12.667 -107.5 38s-40.5 56.333 -40.5 93c0 71.333 34.333 158.333 103 261z" />
    <glyph glyph-name="tilde" unicode="&#x2dc;" 
d="M998 1187l57.0039 0.000976562c-18.667 -61.333 -46.167 -108.333 -82.5 -141s-74.833 -49 -115.5 -49c-20.667 0 -39.334 2 -56.001 6c-8.66699 2 -31 11.667 -67 29c-37.333 17.333 -61 27.666 -71 30.999c-14.667 4 -29.334 6 -44.001 6c-18 0 -33.333 -5 -46 -15
s-26 -29 -40 -57h-55c16 66 40.833 114.167 74.5 144.5s70.167 45.5 109.5 45.5c29.333 0 73.666 -11.667 132.999 -35c56 -22 95.333 -33 118 -33c21.333 0 40.166 6.5 56.499 19.5s25.833 29.167 28.5 48.5z" />
    <glyph glyph-name="hungarumlaut" unicode="&#x2dd;" horiz-adv-x="819" 
d="M164 926l177 332l227 3l-341 -334zM465 926l177 332l226 3l-340 -334z" />
    <glyph glyph-name="pi" unicode="&#x3c0;" horiz-adv-x="1124" 
d="M766 744l-248.003 -0.00195312l-151 -517c-29.333 -100 -60.666 -169.667 -93.999 -209c-24 -28 -53 -42 -87 -42c-24 0 -43.333 6.83301 -58 20.5s-22 29.5 -22 47.5c0 18.667 5.33301 39.667 16 63c8 16.667 33.333 50 76 100c34 40.667 60.667 79.834 80 117.501
s39 89.5 59 155.5l80 264h-50c-77.333 0 -134.166 -8.83301 -170.499 -26.5s-65.833 -46.834 -88.5 -87.501h-36c24 79.333 65.667 141 125 185s136 66 230 66h638l-41 -137h-156l-131 -435c-11.333 -36.667 -17 -64.667 -17 -84c0 -36.667 10.333 -66 31 -88
s45.667 -33 75 -33c25.333 0 49.5 9 72.5 27s44.5 50 64.5 96h36c-21.333 -85.333 -45.666 -144.666 -72.999 -177.999c-39.333 -48.667 -86 -73 -140 -73c-48 0 -88.5 18.667 -121.5 56s-49.5 88 -49.5 152c0 44.667 7.33301 88.334 22 131.001z" />
    <glyph glyph-name="endash" unicode="&#x2013;" horiz-adv-x="1024" 
d="M127 355l36 129h993l-35 -129h-994z" />
    <glyph glyph-name="emdash" unicode="&#x2014;" horiz-adv-x="2048" 
d="M127 355l36 129h2017l-35 -129h-2018z" />
    <glyph glyph-name="quoteleft" unicode="&#x2018;" horiz-adv-x="491" 
d="M651 1411l17 -64c-55.333 -49.333 -91.5 -88.833 -108.5 -118.5s-25.5 -58.167 -25.5 -85.5c0 -14 8 -36 24 -66c12.667 -24 19 -46.667 19 -68c0 -26.667 -8.16699 -48.5 -24.5 -65.5s-36.833 -25.5 -61.5 -25.5c-25.333 0 -46.833 9.83301 -64.5 29.5
s-26.5 45.5 -26.5 77.5c0 56 18.167 114.5 54.5 175.5s101.833 131.167 196.5 210.5z" />
    <glyph glyph-name="quoteright" unicode="&#x2019;" horiz-adv-x="491" 
d="M417 918l-17 63.999c56 49.333 92.5 88.833 109.5 118.5s25.5 57.834 25.5 84.501c0 14.667 -8 37 -24 67c-12.667 24 -19 46.333 -19 67c0 27.333 8 49.5 24 66.5s36.333 25.5 61 25.5c26 0 47.667 -9.83301 65 -29.5s26 -45.5 26 -77.5
c0 -56 -18.167 -114.5 -54.5 -175.5s-101.833 -131.167 -196.5 -210.5z" />
    <glyph glyph-name="quotesinglbase" unicode="&#x201a;" horiz-adv-x="369" 
d="M43 -292l-18 67.998c56 48.667 92.5 88 109.5 118s25.5 58.667 25.5 86c0 14 -8 35.667 -24 65c-12.667 24.667 -19 47.334 -19 68.001c0 26.667 8 48.5 24 65.5s36.333 25.5 61 25.5c26 0 47.667 -9.83301 65 -29.5s26 -45.167 26 -76.5
c0 -28.667 -5.5 -60.167 -16.5 -94.5s-28.167 -68.5 -51.5 -102.5c-17.333 -25.333 -53 -64.666 -107 -117.999z" />
    <glyph glyph-name="quotedblleft" unicode="&#x201c;" horiz-adv-x="696" 
d="M623 1411l17 -64c-55.333 -49.333 -91.5 -88.833 -108.5 -118.5s-25.5 -58.167 -25.5 -85.5c0 -14 8 -36 24 -66c12.667 -24 19 -46.667 19 -68c0 -26.667 -8.16699 -48.5 -24.5 -65.5s-36.833 -25.5 -61.5 -25.5c-25.333 0 -46.833 9.83301 -64.5 29.5
s-26.5 45.5 -26.5 77.5c0 56 18.167 114.5 54.5 175.5s101.833 131.167 196.5 210.5zM883 1411l16.999 -64c-56 -49.333 -92.5 -88.833 -109.5 -118.5s-25.5 -58.167 -25.5 -85.5c0 -14 8 -36 24 -66c12.667 -24 19 -46.667 19 -68c0 -26.667 -8 -48.5 -24 -65.5
s-36.667 -25.5 -62 -25.5s-46.833 9.83301 -64.5 29.5s-26.5 45.5 -26.5 77.5c0 56 18.333 114.5 55 175.5s102.334 131.167 197.001 210.5z" />
    <glyph glyph-name="quotedblright" unicode="&#x201d;" horiz-adv-x="737" 
d="M671 918l-18 63.999c56 49.333 92.5 88.833 109.5 118.5s25.5 57.834 25.5 84.501c0 14.667 -8 37 -24 67c-12.667 24 -19 46.333 -19 67c0 27.333 8.16699 49.5 24.5 66.5s36.833 25.5 61.5 25.5c25.333 0 46.833 -9.83301 64.5 -29.5s26.5 -45.5 26.5 -77.5
c0 -56 -18.333 -114.5 -55 -175.5s-102 -131.167 -196 -210.5zM411 917.999l-17 63.999c56 49.333 92.5 88.833 109.5 118.5s25.5 57.834 25.5 84.501c0 14.667 -8 37 -24 67c-12.667 24 -19 46.333 -19 67c0 27.333 8 49.5 24 66.5s36.333 25.5 61 25.5
c26 0 47.667 -9.83301 65 -29.5s26 -45.5 26 -77.5c0 -56 -18.167 -114.5 -54.5 -175.5s-101.833 -131.167 -196.5 -210.5z" />
    <glyph glyph-name="quotedblbase" unicode="&#x201e;" horiz-adv-x="573" 
d="M293 -292l-18 63.998c56 49.333 92.5 88.833 109.5 118.5s25.5 58.167 25.5 85.5c0 14 -8 36 -24 66c-12.667 24 -19 46.667 -19 68c0 26.667 8.16699 48.5 24.5 65.5s36.833 25.5 61.5 25.5c25.333 0 46.833 -9.83301 64.5 -29.5s26.5 -45.5 26.5 -77.5
c0 -55.333 -18.333 -113.666 -55 -174.999s-102 -131.666 -196 -210.999zM33 -292.002l-17 63.998c56 49.333 92.5 88.833 109.5 118.5s25.5 58.167 25.5 85.5c0 14 -8 36 -24 66c-12.667 24 -19 46.667 -19 68c0 26.667 8 48.5 24 65.5s36.333 25.5 61 25.5
c26 0 47.667 -9.83301 65 -29.5s26 -45.5 26 -77.5c0 -55.333 -18.167 -113.666 -54.5 -174.999s-101.833 -131.666 -196.5 -210.999z" />
    <glyph glyph-name="dagger" unicode="&#x2020;" horiz-adv-x="942" 
d="M602 897l101.001 447c5.33301 23.333 9.83301 36.833 13.5 40.5s14.5 7.5 32.5 11.5c46 9.33301 75.667 14 89 14c16.667 0 25 -7.33301 25 -22c0 -4.66699 -2.66699 -16.667 -8 -36l-128 -455c149.333 29.333 243 44 281 44c23.333 0 35 -8.66699 35 -26
c0 -7.33301 -2.66699 -23 -8 -47c-6.66699 -28.667 -12.667 -46.667 -18 -54c-4.66699 -6.66699 -12 -10 -22 -10c-30.667 0 -125 12 -283 36l-336 -1229c-7.33301 -26 -13.833 -42.333 -19.5 -49s-12.834 -10 -21.501 -10c-14 0 -21 9.33301 -21 28c0 6 1 13.333 3 22
l272 1238c-146 -24 -238.333 -36 -277 -36c-9.33301 0 -17.5 2.83301 -24.5 8.5s-10.5 12.167 -10.5 19.5c0 9.33301 3.33301 25.333 10 48l13 44c3.33301 10 12 15 26 15c40 0 132 -14 276 -42z" />
    <glyph glyph-name="daggerdbl" unicode="&#x2021;" horiz-adv-x="983" 
d="M659 961l63.9932 362.999c5.33301 30.667 11.333 50 18 58s20.334 14.333 41.001 19c18 3.33301 30.333 6 37 8c15.333 4.66699 27 7 35 7s15.167 -3.16699 21.5 -9.5s9.5 -13.5 9.5 -21.5c0 -12 -3.66699 -29.333 -11 -52l-117 -372
c168.667 31.333 265.334 47 290.001 47c10 0 19 -3.33301 27 -10c6 -4.66699 9 -10.667 9 -18c0 -23.333 -6 -53 -18 -89c-5.33301 -16.667 -17 -25 -35 -25c-30.667 0 -125.334 12 -284.001 36l-131 -438l-85 -411c160.667 24 258.334 36 293.001 36
c21.333 0 32 -10 32 -30s-6.33301 -46.667 -19 -80c-7.33301 -19.333 -17.666 -29 -30.999 -29c-20 0 -117.333 16.667 -292 50l-65 -373c-5.33301 -29.333 -11.666 -47.666 -18.999 -54.999s-19.666 -12 -36.999 -14l-79 -8c-17.333 0 -26 6.33301 -26 19
c0 6 3.66699 21 11 45l120 386c-164.667 -32.667 -266 -49 -304 -49c-7.33301 0 -13.833 3.16699 -19.5 9.5s-8.5 13.5 -8.5 21.5c0 15.333 3.66699 33 11 53l13 37c4 6 9 10.333 15 13s13 4 21 4c44 0 138 -12 282 -36l124 411l87 443
c-45.333 -8.66699 -112.333 -18.334 -201 -29.001c-33.333 -4.66699 -60.666 -7 -81.999 -7c-8.66699 0 -16.667 3 -24 9s-11 12.667 -11 20c0 6.66699 1.33301 14.334 4 23.001l10 36c4.66699 20.667 9.83398 34 15.501 40s13.5 9 23.5 9c14 0 35.333 -2.33301 64 -7z" />
    <glyph glyph-name="bullet" unicode="&#x2022;" horiz-adv-x="1229" 
d="M819 939c84.667 0 157 -30 217 -90s90 -132.333 90 -217s-30 -157 -90 -217s-132.333 -90 -217 -90s-157 30 -217 90s-90 132.333 -90 217s30 157 90 217s132.333 90 217 90z" />
    <glyph glyph-name="ellipsis" unicode="&#x2026;" horiz-adv-x="2048" 
d="M1032 216c26 0 48 -9.83301 66 -29.5s27 -44.5 27 -74.5c0 -43.333 -10.333 -77.333 -31 -102s-47 -37 -79 -37c-25.333 0 -46.833 9.16699 -64.5 27.5s-26.5 41.5 -26.5 69.5c0 42 12.333 79 37 111c18 23.333 41.667 35 71 35zM1715 216
c26 0 47.833 -9.83301 65.5 -29.5s26.5 -44.5 26.5 -74.5c0 -43.333 -10.167 -77.333 -30.5 -102s-46.5 -37 -78.5 -37c-26 0 -47.833 9.16699 -65.5 27.5s-26.5 41.5 -26.5 69.5c0 42 12.333 79 37 111c18.667 23.333 42.667 35 72 35zM350 216
c26 0 47.833 -9.83301 65.5 -29.5s26.5 -44.5 26.5 -74.5c0 -43.333 -10.333 -77.333 -31 -102s-46.667 -37 -78 -37c-26 0 -47.833 9.16699 -65.5 27.5s-26.5 41.5 -26.5 69.5c0 42 12.333 79 37 111c18 23.333 42 35 72 35z" />
    <glyph glyph-name="perthousand" unicode="&#x2030;" horiz-adv-x="1966" 
d="M480 -7l146.001 252l366 667l151 286c16 -4.66699 42.667 -9.33398 80 -14.001c-61.333 -99.333 -119.333 -198.666 -174 -297.999l-321 -585c-58.667 -106.667 -113.334 -212 -164.001 -316c-12.667 2.66699 -29.667 4.66699 -51 6c-7.33301 0 -18.333 0.666992 -33 2z
M636.001 1198c55.333 0 100.501 -19.167 135.501 -57.5s52.5 -92.5 52.5 -162.5c0 -116.667 -36 -220 -108 -310c-58 -73.333 -126.333 -110 -205 -110c-54.667 0 -99.834 19.5 -135.501 58.5s-53.5 90.833 -53.5 155.5c0 104 29.833 201 89.5 291s134.5 135 224.5 135z
M622.002 1156c-42 0 -81.167 -41.833 -117.5 -125.5s-54.5 -176.167 -54.5 -277.5c0 -52 8 -90.333 24 -115s34.333 -37 55 -37c37.333 0 71 32.333 101 97c44 94.667 66 196 66 304c0 52 -8.66699 92.667 -26 122c-13.333 21.333 -29.333 32 -48 32zM1197 625
c55.333 0 100.501 -19.167 135.501 -57.5s52.5 -92.5 52.5 -162.5c0 -116.667 -36 -220 -108 -310c-58 -73.333 -126.333 -110 -205 -110c-54.667 0 -99.834 19.5 -135.501 58.5s-53.5 90.833 -53.5 155.5c0 104 29.833 201 89.5 291s134.5 135 224.5 135zM1183 583
c-42 0 -81.167 -41.833 -117.5 -125.5s-54.5 -176.167 -54.5 -277.5c0 -52 8 -90.333 24 -115s34.333 -37 55 -37c37.333 0 71 32.333 101 97c44 94.667 66 196 66 304c0 52 -8.66699 92.667 -26 122c-13.333 21.333 -29.333 32 -48 32zM1790 625
c54.667 0 99.666 -19.167 134.999 -57.5s53 -92.5 53 -162.5c0 -116.667 -36 -220 -108 -310c-58 -73.333 -126.333 -110 -205 -110c-55.333 0 -100.666 19.5 -135.999 58.5s-53 90.833 -53 155.5c0 104 29.833 201 89.5 291s134.5 135 224.5 135zM1775 583
c-41.333 0 -80.168 -41.833 -116.501 -125.5s-54.5 -176.167 -54.5 -277.5c0 -52 8 -90.333 24 -115s34.333 -37 55 -37c37.333 0 71 32.333 101 97c44 94.667 66 196 66 304c0 52 -8.66699 92.667 -26 122c-13.333 21.333 -29.666 32 -48.999 32z" />
    <glyph glyph-name="guilsinglleft" unicode="&#x2039;" horiz-adv-x="491" 
d="M353 411c18.667 -25.333 48.002 -74.3311 88.002 -146.998c27.333 -50 47 -93.667 59 -131c8 -24.667 12 -41.667 12 -51c0 -19.333 -9.66699 -29 -29 -29c-15.333 0 -29 13.333 -41 40c-26.667 60 -101.667 167.667 -225 323l194 175
c59.333 56.667 96.166 92.5 110.499 107.5s25.166 27.5 32.499 37.5c19.333 25.333 35.666 38 48.999 38c7.33301 0 13.666 -2.83301 18.999 -8.5s8 -11.834 8 -18.501s-1.66699 -13.667 -5 -21c-7.33301 -14 -41.666 -58.333 -102.999 -133
c-41.333 -50.667 -97.666 -111.334 -168.999 -182.001z" />
    <glyph glyph-name="guilsinglright" unicode="&#x203a;" horiz-adv-x="532" 
d="M396 417c-18.667 24.667 -47.667 73.333 -87 146c-28 50.667 -48 94.667 -60 132c-8 24 -12 40.667 -12 50c0 19.333 9.66699 29 29 29c15.333 0 29 -13.333 41 -40c26.667 -60 101.667 -167.333 225 -322l-194 -175c-59.333 -57.333 -96 -93.333 -110 -108
s-25 -27 -33 -37c-18.667 -26 -35 -39 -49 -39c-7.33301 0 -13.666 2.83301 -18.999 8.5s-8 12.167 -8 19.5c0 6 2 13 6 21c6.66699 14 40.667 58.333 102 133c41.333 50 97.666 110.667 168.999 182z" />
    <glyph glyph-name="trademark" unicode="&#x2122;" horiz-adv-x="2048" 
d="M194 1181l728.001 -0.000976562l22 -201h-34c-6.66699 48.667 -24.334 84.334 -53.001 107.001s-75.667 34 -141 34h-75v-579c0 -55.333 6.5 -90.666 19.5 -105.999s41.833 -24 86.5 -26v-36h-374v36c44 4 71.667 13.167 83 27.5s17 48.833 17 103.5v580h-76
c-62.667 0 -107.5 -10.333 -134.5 -31s-45.5 -57.334 -55.5 -110.001h-34zM1299 1181l272.999 -571.999l265 572h279v-37c-38 -0.666992 -63 -4.5 -75 -11.5s-21 -17.667 -27 -32s-9 -44.833 -9 -91.5v-468c0 -56.667 6.33301 -92 19 -106s43.334 -22.333 92.001 -25v-36
h-398v36c39.333 0.666992 65.833 4.66699 79.5 12s23.667 18 30 32s9.5 42.667 9.5 86v492l-307 -658h-32l-308 649v-482c0 -44 2.33301 -72 7 -84c6 -16.667 15.333 -28.667 28 -36s32 -11 58 -11h36v-36h-306v36c37.333 0 62.5 3.33301 75.5 10s22.5 17.167 28.5 31.5
s9 44.166 9 89.499v466c0 49.333 -2.66699 80.833 -8 94.5s-15 24.167 -29 31.5s-39.333 11 -76 11v37h286z" />
    <glyph glyph-name="Omega" unicode="&#x2126;" horiz-adv-x="1573" 
d="M50 0l100.999 342.997h37c-9.33301 -23.333 -14 -43.333 -14 -60c0 -33.333 11.667 -60.333 35 -81s58 -31 104 -31h222l24 99c-108 22.667 -195.5 75.5 -262.5 158.5s-100.5 180.167 -100.5 291.5c0 112.667 32.667 221 98 325s158.166 187 278.499 249
s249.166 93 386.499 93c174 0 313.667 -57.333 419 -172c78 -84 117 -179 117 -285c0 -93.333 -24.667 -187.166 -74 -281.499s-120.666 -174.666 -213.999 -240.999s-185.333 -106.166 -276 -119.499l-40 -117h225c70 0 122.5 12.667 157.5 38s61.833 70 80.5 134h36
l-99 -343h-528l128 364c68 14 125 43 171 87c62.667 60.667 115.167 142.167 157.5 244.5s63.5 200.166 63.5 293.499c0 95.333 -30.833 174 -92.5 236s-140.5 93 -236.5 93c-94.667 0 -182.667 -26.667 -264 -80s-148.666 -136.166 -201.999 -248.499
s-80 -230.833 -80 -355.5c0 -79.333 20.833 -145.833 62.5 -199.5s95.834 -87.167 162.501 -100.5l-74 -334h-509z" />
    </font>
</defs>
</svg>
